<svg version="1.2" xmlns="http://www.w3.org/2000/svg" viewBox="0 0 426 426" width="426" height="426"><style>.a{fill:#57c1e9}.b{fill:#fff}.c{fill:#fbb88e}.d{fill:#f8b78f}.e{fill:#234185}.f{fill:#3b4682}.g{fill:#2e395c}.h{fill:#475fa4}.i{fill:#f6a47a}.j{fill:#2d55a6}.k{fill:#af6c40}.l{fill:#be7546}.m{fill:#7f58a5}.n{fill:#fff6ed}.o{fill:#a380b1}.p{fill:none;stroke:#e8d9d1;stroke-miterlimit:10;stroke-width:1.2}.q{fill:#477bbe}.r{fill:#4c5a9c}.s{fill:#5f4da0}.t{fill:#4a397f}.u{fill:#f04e4f}.v{fill:#df3b47}.w{fill:#c3dae6}.x{fill:none;stroke:#214ba0;stroke-miterlimit:10;stroke-width:4.8}.y{fill:#214ba0}.z{fill:#16347a}.A{fill:#de417c}.B{fill:#0090bb}.C{fill:#615096}.D{fill:#b07341}</style><path class="a" d="m385.7 178.8q-0.7 1.5-1.4 2.9-1 2.2-2.1 4.4-0.4 0.9-0.9 1.8c-3.4 6.9-6.5 12.9-9.2 17.9-1.2 2.2-2.7 4.3-4.4 6.2-1.8 1.8-3.8 3.4-6 4.8-2.2 1.3-4.5 2.3-7 3-2.5 0.7-5 1.1-7.6 1.1l-59.4 0.6h-0.6l-5.1 0.1h-4.3l-13.4 0.2h-0.5l-6.8 0.1h-0.2l-41.9 0.4-37.5 0.4h-4.3l-27 0.3h-0.1l-17.5 0.2h-0.2l-55.4 0.6-16.6 0.2q-0.5 0-1 0-0.6 0-1.1 0-0.5-0.1-1.1-0.1-0.5-0.1-1-0.1-0.7-0.1-1.4-0.2-2.9-0.4-5.7-1.4-2.7-0.9-5.3-2.3-2.6-1.3-4.9-3.1-2.3-1.8-4.2-3.9c-7.2-7.9-12.3-17-15.8-26.8q-0.8-2.2-1.4-4.4c-12.1-40.6 2.6-93 29.1-128q1.6-2.2 3.4-4.3v-0.1c8.1-9.9 17.3-18.2 27-24.1 17.2-10.5 36.3-13.5 55.1-4.7 15.9 7.5 30.7 11 45.1 11.9q2.2 0.2 4.4 0.3c32.9 1 63.9-10.8 100.2-18.5q2.1-0.4 4.3-0.9c25.9-5.1 54.7-7.8 88.8-2.1q1.4 0.2 2.7 0.5 1.3 0.2 2.6 0.5 1.3 0.3 2.6 0.7 1.3 0.4 2.6 0.8 2.3 0.7 4.4 1.5c16.3 6.6 25.2 18.8 29 34.1q0.5 2.2 0.9 4.4c6.7 36.7-12.9 88.9-29.9 125.1z"/><path class="b" d="m167.3 77.6q-1.2 0-2.4 0.2 0-0.1 0-0.2c0-8.4-6.7-15.1-15.1-15.1-6.8 0-12.5 4.5-14.4 10.7-1.9-6.2-7.6-10.7-14.4-10.7-8.4 0-15.1 6.7-15.1 15.1q0 0.2 0 0.5-1.8-0.5-3.8-0.5c-8.4 0-15.1 6.7-15.1 15 0 8.4 6.7 15.1 15.1 15.1q2.1 0 4-0.5c1.1 7.2 7.3 12.8 14.9 12.8 6.8 0 12.5-4.6 14.4-10.8 1.9 6.2 7.6 10.8 14.4 10.8 7.5 0 13.7-5.4 14.9-12.5q1.3 0.2 2.6 0.2c8.4 0 15.1-6.7 15.1-15.1 0-8.3-6.7-15-15.1-15z"/><path class="b" d="m271.4 146c0 8.2 6.6 14.8 14.8 14.8 5.1 0 9.7-2.6 12.3-6.6 2.7 4.1 7.2 6.8 12.4 6.8 5.1 0 9.6-2.6 12.2-6.4 2.7 3.8 7.2 6.4 12.2 6.4 6.9 0 12.7-4.8 14.3-11.1q0.3 0 0.5 0c8.2 0 14.8-6.6 14.8-14.8 0-8.2-6.6-14.8-14.8-14.8-4.7 0-8.8 2.2-11.5 5.5q0.4-1.7 0.4-3.6c0-8.2-6.6-14.8-14.8-14.8-3.8 0-7.3 1.5-10 3.9-3.3-8.5-11.5-14.5-21.1-14.5-12.6 0-22.7 10.2-22.7 22.7 0 6 2.3 11.4 6 15.4-3.1 2.8-5 6.7-5 11.1z"/><path fill-rule="evenodd" class="a" d="m199.9 376.9c-91.3 0-165.1-9.1-165.1-20.3 0-11.1 73.8-20.2 165.1-20.2 91.3 0 165.1 9.1 165.1 20.2 0 11.2-73.8 20.3-165.1 20.3z"/><path class="a" d="m396.5 366.4c0 4-20.2 7.2-45 7.2-24.9 0-45.1-3.2-45.1-7.2 0-4 20.2-7.2 45.1-7.2 24.9 0 45 3.2 45 7.2z"/><path class="c" d="m327.9 238c8.9-16.2 7.7-22.3 7.7-22.3l-7.7-3.4c-2.4 10.4-4.8 17.1-8.4 25.5 1 0.5 4.9 3.7 8.4 0.2z"/><path class="d" d="m290.7 217.9c0.4-2.6 1.7-1.3 3.2-0.9 1.1 0.3 0.9 0.4 2.1 0.7 0 0-1-0.3-1.4-1.3-0.4-0.9 0.7-1.1 0.7-1.1l2.3 1.8c0.4 0.4 0.9 0.7 1.4 1.2 0.5 0.4 0.9 1.3 1.1 2 0.2 1.2-0.7 2.2-1.9 2.3-1.1 0.1-5-0.6-6.6-1.8 0 0-2.1-2.1-0.9-2.9z"/><path class="d" d="m324 230.6l-24.6-11.2-1.3 2.8 21.4 15.6c0 0 5.7 4.5 8.4 0.2 0 0 2.3-4.3-3.9-7.4z"/><path class="e" d="m323.7 221.2c0 1.9 3.8 3.9 6.9 5 1.5 0.5 3.2 1.1 5 1.4 4.6-13.7 6.3-19.7 6.5-22.1 0 0 0.3-8.2-6.8-8.4 0 0-5.2-0.7-6.6 4 0 0-3.1 11.1-5 20.1z"/><path fill-rule="evenodd" class="f" d="m331.4 254.3l2.1 51 4.5 52.8h4.7l4.5-51.5 6.9-52.3z"/><path class="g" d="m343.4 362.6l-10.5 2.3c0 0-7.3 1.1-8.6-0.8 0 0-0.2-0.4 0.3-0.6l13.4-5.4h4.7c0 0 1.1 1.8 0.7 4.5z"/><path class="g" d="m358.5 362.1l10.6 2.3c0 0 7.3 1.1 8.6-0.8 0 0 0.2-0.4-0.3-0.6l-13.5-5.4h-4.6c0 0-1.1 1.8-0.8 4.5z"/><path fill-rule="evenodd" class="h" d="m365.2 254.3h-26.3l7.1 17.6 4.4 36.6 9 49.1h4.7l-0.4-54.8 0.8-31.9z"/><path fill-rule="evenodd" class="d" d="m343.1 182.3h9.4v13.1h-9.4z"/><path class="i" d="m343.1 188.4v-6.1h9.4v6.5c-3.4 0.4-6.4 0.7-9.4-0.4z"/><path class="d" d="m367.3 200.1c-2.3-3.5-5.9-4.5-5.9-4.5l-8.7-3.2h-8.3l-8.6 3.2c0 0-3.6 1-5.9 4.5z"/><path class="j" d="m342.2 193.2l-7.7 2.7c0 0-5.2 1.9-5.2 5l2.2 13.1-3.3 46.6c19.9 5.1 39.1 0.5 39.1 0.5l-2.1-48.7 3.8-7.6c0-6.5-4.8-8.5-4.8-8.5l-9.4-3.1c0 0-9.5 5.2-12.6 0z"/><path class="c" d="m368.1 267.3c0 0 1.6-26.2-4.5-49.2l8.4-0.5c0 0 5.1 20.7 0.6 49.4z"/><path fill-rule="evenodd" class="d" d="m371.7 271.3l1.1-5.4-4.4-1.2-0.7 3.4z"/><path class="c" d="m367.1 271.5l-0.6 2.6c-2-0.3-0.9-3.5-0.9-3.5 0 0 1.7-4 5.6-2.6 1.3 0.4 1.4 4.1 1.4 4.1-0.3 1.5-1 3.5-1 3.5-0.5 0.9-1.4 0.3-1.4 0.3-0.7 0.9-1.3 0-1.3 0-0.8 0.8-1.2-0.3-1.2-0.3-1.1 0.8-1.5-0.5-1.5-0.5z"/><path class="j" d="m355.8 210.3c-3.1-9.7 3.1-12 3.1-12 6.7-3.7 9.6 1.9 9.6 1.9 0.8 1.9 3.3 9.2 5.3 19.3-3.3 3.1-8.4 6.1-12.5 6.2z"/><path class="k" d="m335.8 169c-0.3-1.4-0.5-1.8-0.8-5.2-0.1-1.5 1.2-6.8 3.1-7.2 2.7-0.5 2.7 7 3 9 0.5 2.8 0 5.9-0.3 8.6-0.1 1 0.1 3-1 3.6-0.9 0.4-0.7 0.6-1.3-0.1-1.3-1.6-2.3-6.7-2.7-8.7z"/><path class="d" d="m338.4 182.1c1.4 4.1 3.3 5.1 3.3 5.1l2.6 0.3c1.4-0.3 3.9-1.1 3.9-1.1 5.6-2.5 7.5-2.5 8.5-5.6 0-0.1 2.7-15.9 2.7-15.9 0.1-8.1-8.5-9.1-9.8-9.2-1.3-0.2-9.5-1.7-11.2 6.2 0 0-2.8 9.2 0 20.2z"/><path class="l" d="m356.9 171.6c-2 2.3-3.1 5.8-6.3 6.9-1.5 0.5-2.7 0.4-4-0.6-2-1.4-3.7 0.4-5.9-0.1-1.8-0.4-2.8-2.5-3.5-4.4 0.1 2.6 0.4 8.9 1.2 12 1.4 4 3.3 5 3.3 5l2.6 0.3c1.4-0.3 3.9-1.1 3.9-1.1 5.6-2.4 7.5-2.4 8.5-5.5 0-0.1 0.9-9 1.7-13.6-0.5 0.3-1 0.6-1.5 1.1z"/><path class="k" d="m354.5 160.2c0.5 0.5 2.2 5.5 2.2 5.5 0 0-1.3 6.2-1.5 9.6l1.6 0.1c0 0 0.1-2.5 1.3-2.8l-1.4 7.8c6.7-4.6 6.8-19.6 6.8-19.6z"/><path class="d" d="m356.4 173.9c0 0 1.1-3.2 3.5-1.6 0 0 1.1 0.7 0 2.9 0 0-1.6 3.2-3.9 1.7z"/><path class="l" d="m364.5 157.4c-0.4 1.1-0.6 2.3-1 3.4-0.5 1.5-0.6 1.7-2.1 1.7-1.4 0-2.7-0.7-3.6-1.4-2.1-1.3-3.2 0.5-5.4 0.6-1.5 0.1-2.4 0.9-3.8 1.1-1.6 0.3-2.6-0.5-3.8-1.3-1.9-1.1-4.3-0.2-6.5 0.1-5.3 0.7-8.1-5.4-6.9-10 0 0 1.3 2.1 3.5 2.4 0 0-5.3-4.8 1-11.1 0 0 2.5 7.3 11.9 6.8 0 0 15.5-1.8 16.7 7.7z"/><path class="m" d="m223.2 302.7h-143.9c-15.1 0-27.3 12.2-27.3 27.3 0 15.2 12.2 27.4 27.3 27.4h143.9z"/><path class="n" d="m223.2 311.5h-141.7c-10.2 0-18.5 8.3-18.5 18.5 0 10.3 8.3 18.6 18.5 18.6h141.7z"/><path class="o" d="m78.7 311.8c-8.9 1.3-15.7 9-15.7 18.2 0 9.3 6.8 17 15.7 18.3z"/><path fill-rule="evenodd" class="p" d="m82.4 319.1h134.5"/><path fill-rule="evenodd" class="p" d="m82.4 326.4h134.5"/><path fill-rule="evenodd" class="p" d="m82.4 333.7h134.5"/><path fill-rule="evenodd" class="p" d="m82.4 341h134.5"/><path class="q" d="m199.9 247.9h-143.9c-15.1 0-27.3 12.3-27.3 27.4 0 15.1 12.2 27.4 27.3 27.4h143.9z"/><path class="n" d="m199.9 256.8h-141.7c-10.2 0-18.5 8.3-18.5 18.5 0 10.2 8.3 18.5 18.5 18.5h141.7z"/><path class="r" d="m55.5 257c-8.9 1.4-15.8 9-15.8 18.3 0 9.3 6.9 16.9 15.8 18.3z"/><path fill-rule="evenodd" class="p" d="m59.1 264.4h134.5"/><path fill-rule="evenodd" class="p" d="m59.1 271.7h134.5"/><path fill-rule="evenodd" class="p" d="m59.1 279h134.5"/><path fill-rule="evenodd" class="p" d="m59.1 286.2h134.5"/><path class="s" d="m70.9 193.2h143.8c15.1 0 27.4 12.3 27.4 27.4 0 15.1-12.3 27.4-27.4 27.4h-143.8z"/><path class="n" d="m70.9 202.1h141.6c10.2 0 18.5 8.3 18.5 18.5 0 10.2-8.3 18.5-18.5 18.5h-141.6z"/><path class="t" d="m215.3 202.3c8.9 1.4 15.7 9 15.7 18.3 0 9.3-6.8 16.9-15.7 18.3z"/><path fill-rule="evenodd" class="p" d="m211.7 209.7h-134.6"/><path fill-rule="evenodd" class="p" d="m211.7 217h-134.6"/><path fill-rule="evenodd" class="p" d="m211.7 224.2h-134.6"/><path fill-rule="evenodd" class="p" d="m211.7 231.5h-134.6"/><path class="u" d="m170.4 279.7c0 42.9 34.8 77.7 77.7 77.7 42.9 0 77.7-34.8 77.7-77.7 0-42.9-34.8-77.7-77.7-77.7-42.9 0-77.7 34.8-77.7 77.7z"/><path fill-rule="evenodd" class="v" d="m263.4 344.3c-35.8 8.5-71.5-13.6-79.9-49.3-8.5-35.8 13.6-71.5 49.3-79.9 35.8-8.5 71.5 13.6 79.9 49.3 8.5 35.8-13.6 71.5-49.3 79.9z"/><path class="b" d="m191.4 279.7c0 31.3 25.4 56.7 56.7 56.7 31.3 0 56.7-25.4 56.7-56.7 0-31.3-25.4-56.7-56.7-56.7-31.3 0-56.7 25.4-56.7 56.7z"/><path class="w" d="m206.1 279.7c0 23.2 18.8 42.1 42 42.1 23.2 0 42-18.9 42-42.1 0-23.2-18.8-42-42-42-23.2 0-42 18.8-42 42z"/><path class="u" d="m215 279.7c0 18.3 14.8 33.2 33.1 33.2 18.3 0 33.1-14.9 33.1-33.2 0-18.3-14.8-33.1-33.1-33.1-18.3 0-33.1 14.8-33.1 33.1z"/><path class="v" d="m225.1 279.7c0 12.7 10.3 23 23 23 12.7 0 23-10.3 23-23 0-12.7-10.3-23-23-23-12.7 0-23 10.3-23 23z"/><path class="b" d="m233.1 279.7c0 8.3 6.7 15.1 15 15.1 8.3 0 15-6.8 15-15.1 0-8.3-6.7-15-15-15-8.3 0-15 6.7-15 15z"/><path fill-rule="evenodd" class="x" d="m236.5 271.3l-57.5-57.5"/><path fill-rule="evenodd" class="y" d="m184.2 219.1l-21.2-21.3-21.5 1.4 23.7 23.7z"/><path fill-rule="evenodd" class="z" d="m184.2 219.1l-21.2-21.3 1.4-21.4 23.7 23.7z"/><path fill-rule="evenodd" class="y" d="m248.1 282.9l-23.5-8.1 15.3-15.4z"/><path fill-rule="evenodd" class="z" d="m248.1 282.9l-23.5-8.1 7.6-7.7z"/><path class="d" d="m94.1 191.5c-0.3 0.2-1.9 1.2-2.1 1.4-1.3 1-0.5 1.5 0.2 1-0.3 0.9-0.3 0.4-0.7 1.3-0.7 1.6 0.1 2.2 1.2 2.5 1.3 1 2.4 0.6 3.6-0.3 1.7-1.3 1.3-3.3 0.9-5.3z"/><path class="d" d="m101.8 160.6l-8.2 31.8 2.6 2.2 13.7-33c0 0 1.8-5-2.8-7.1 0 0-3.1-0.5-5.3 6.1z"/><path fill-rule="evenodd" class="d" d="m73.4 249l0.5 14 3.4 0.5v-14.7z"/><path class="d" d="m71.1 272.9c0 0 3.4 1.2 4.4-1.6l1.6-8-3.2-0.3-1.2 6.1z"/><path class="A" d="m70.8 275.6c3.9-0.4 5.5-2.9 5.5-2.9l1.1-6.1 1.3 5.5 0.4-0.2-0.7-7.2c0 0 0.7-2-1.5-3.7 0 0 0.3 0.6-0.3 3.2l-1.4 6.1c0 0-0.4 2.2-2.9 2.5-1.5 0.2 0.2-3.1 0.2-3.1l-3.3 5.7c0 0 0.1 0.4 1.6 0.2z"/><path class="B" d="m120.9 175.9l-4.6-11.4h-9.4l-4.6 11.4-25.6 16.8-4.2 68.3h5.9l11.2-62.9 27-11.4c0 0 7.3-2.1 4.3-10.8z"/><path class="C" d=""/><path fill-rule="evenodd" class="d" d="m104.2 248l2.4 13.8 3.4 0.5-1.9-14.5z"/><path class="d" d="m103.8 271.6c0 0 3.4 1.3 4.4-1.6l1.6-8-3.2-0.2-1.1 6z"/><path class="A" d="m103.5 274.4c3.9-0.5 5.5-3 5.5-3l1.1-6 1.3 5.4 0.4-0.2-0.7-7.1c0 0 0.7-2-1.5-3.8 0 0 0.3 0.7-0.3 3.3l-1.4 6c0 0-0.4 2.2-2.9 2.5-1.5 0.2 0.2-3.1 0.2-3.1l-3.3 5.8c0 0 0.1 0.3 1.6 0.2z"/><path class="B" d="m128.5 164.5h-21.6c0 0 1 2 5.3 11.4l-22.6 22.2 16.1 63.4 4.8-1.2-7.4-58.8 21-9.9c10.7-7 6.4-15.7 6.4-15.7 0 0-1.4-7.1-2-11.4z"/><path class="D" d="m131.6 107.1c-3.7 5-1.8 4.4-2.6 10.2-0.8 5-7.1 12.7-12.9 14.2-5.3 1.3-7.6 2-9.2 7.4-1.3 4.4-5.5 5.9-9.8 4.2-2.1-0.8-4.1-2.4-6.5-2.7-2-0.3-4.6 0.3-6.7 0.3-5.5 0.1-5.6-5.1-2-8.3 2-1.8 3.9-2.7 4.8-5.3 0.7-2 0.5-4.2 1.4-6.2 1.2-2.4 2.7-3.8 5.1-4.8 2-1 3.8-1.6 4.6-4 0.8-2 0-4.3 0.6-6.2 0.7-2 3-2.9 3.7-4.8 1.1-2.5 0.5-4.4 2-7 1.1-1.8 1.8-3.9 3.3-5.5 4.9-5 15.3-2.7 20.7 0.1 6.2 3.2 7.2 13.3 3.5 18.4z"/><path class="c" d="m100.6 132.4c0.8 9.8 1.4 20.9 1.3 30 1.1 0.1 6.5 1.9 8.3-2.5 1.4-17.6 0.7-24.1 0.7-24.1 0 0 0.6-9.8-4.8-9.8 0 0-6.1 2.5-5.5 6.4z"/><path fill-rule="evenodd" class="d" d="m107.8 127.3h18.5v14.9h-18.5z"/><path class="D" d="m106 90.1c-1 1.9-1.6 4.5-0.8 6.5 1.7 4.3 10 5.8 12.5 1.6 1.8-3.1 1-7.7-1.3-10.3-3.2-3.7-8.4-1.7-10.4 2.2z"/><path class="d" d="m120.8 128.2c0 0-0.3 16.2 10.9 12.6 0 0 8.7-8.2-0.1-13.9z"/><path fill-rule="evenodd" class="d" d="m113.2 115.7h8.7v9.9h-8.7z"/><path class="i" d="m113.2 120.3v-4.6h8.7v5.4c-3.1 0.1-6.1 0-8.7-0.8z"/><path class="d" d="m101.1 129.9c2.1-3.2 5.3-4 5.3-4l7.8-2.9h7.4l7.8 2.9c0 0 3.2 0.8 5.3 4z"/><path class="d" d="m124.7 113q-0.5 1-1.5 1.9c-2.8 2.5-6.5 4.2-10.3 4-9.8-4.7-5.8-23.7-5.8-23.7 1.8-9.1 9.7-8.8 9.7-8.8 5.9 0 11.2 3 11.9 9.3 0.2 2.4-0.3 4.9-0.5 7.3-0.2 1.8-0.5 3.5-1.1 5.1-0.6 1.7-1.6 3.2-2.4 4.9z"/><path class="D" d="m108.4 87.3c0 0 0.2 12.9 11.7 13.9 0 0 6.3 0.6 5.2 6.6 0 0 0.4-4.7 4.1-3.6 0 0 2.6-3 2.3-9.2 0 0 0.6-6.9-9.1-9.9 0 0-9-3.7-14.2 2.2z"/><path class="d" d="m125.9 105.7c0 0 1.2-2.9 3.6-1.6 0 0 1.4 0.8 0.3 3.1 0 0-1.6 3-3.9 1.8z"/><path class="h" d="m105.2 165.2l2.6-9.5-1.3-7c-5-4.8-3.3-10.8-3.3-10.8 4.9-8.8 6-13.1 6-13.1l2.6-0.9c-2.9 9.9 1.4 12.6 1.4 12.6 5.1-0.5 10.4-12.8 10.4-12.8l1.5 0.6c-1.9 6-1.5 10.1 1.4 14.3 1.1 1.6 3.3 1.9 5.2 2.2 0 0-2.7 6.9-3.8 14.9-0.4 2.5 0.5 7 1.7 9.5 0 0-10.1 2.9-24.4 0z"/><path class="c" d="m126.7 135.6c2.9 9.4 4.8 17 6.7 26 1.1-0.2 6.7 0.4 7.6-4.4-2.7-17.4-4.8-23.6-4.8-23.6 0 0-1.2-6.8-6.3-5.8 0 0-5.1 1.4-3.2 7.8z"/><path class="d" d="m130.6 201.7c-1.9-0.6-1.3-1.6-1-3.1 0.3-1.1 0.4-1 0.7-2.1 0 0-0.3 1-1.2 1.4-0.9 0.3-1.2-0.7-1.2-0.7l1.8-2.3c0.3-0.5 0.7-1 1.1-1.4 0.4-0.6 1.3-1 2-1.2 1.2-0.2 2.2 0.6 2.4 1.8 0.1 1.1-0.3 2.2-0.4 3.3 0 0-1.1 4.1-4.2 4.3z"/><path class="d" d="m132.9 159.8l-0.9 32.8 3.1 1.6 5.9-35.2c0 0 0.7-5.3-4.3-6.3 0 0-3.1 0.2-3.8 7.1z"/></svg>