<svg version="1.2" xmlns="http://www.w3.org/2000/svg" viewBox="0 0 3710 3710" width="3710" height="3710"><defs><linearGradient id="P" gradientUnits="userSpaceOnUse"/><linearGradient id="g1" x2="1" href="#P" gradientTransform="matrix(-2486.364,-3087.909,3122.069,-2513.87,3603.688,4073.974)"><stop stop-color="#dae3fe"/><stop offset="1" stop-color="#e9effd"/></linearGradient><linearGradient id="g2" x2="1" href="#P" gradientTransform="matrix(821.389,-1384.626,1492.364,885.301,1198.333,2537.044)"><stop stop-color="#ff928e"/><stop offset="1" stop-color="#fe7062"/></linearGradient><linearGradient id="g3" x2="1" href="#P" gradientTransform="matrix(-81.449,1683.3,-5886.07,-284.808,1767.362,-1775.309)"><stop stop-color="#09005d"/><stop offset="1" stop-color="#1a0f91"/></linearGradient><linearGradient id="g4" x2="1" href="#P" gradientTransform="matrix(254.294,0,0,402.403,2164.242,2933.28)"><stop stop-color="#4f52ff"/><stop offset="1" stop-color="#4042e2"/></linearGradient><linearGradient id="g5" x2="1" href="#P" gradientTransform="matrix(95.413,0,0,402.405,1951.349,2943.75)"><stop stop-color="#4f52ff"/><stop offset="1" stop-color="#4042e2"/></linearGradient><linearGradient id="g6" x2="1" href="#P" gradientTransform="matrix(1767.396,1424.357,-1310.522,1626.145,1169.501,3016.17)"><stop stop-color="#ff928e"/><stop offset="1" stop-color="#fe7062"/></linearGradient><linearGradient id="g7" x2="1" href="#P" gradientTransform="matrix(1767.396,1424.358,-1530.007,1898.489,1243.315,2924.579)"><stop stop-color="#ff928e"/><stop offset="1" stop-color="#fe7062"/></linearGradient><linearGradient id="g8" x2="1" href="#P" gradientTransform="matrix(1767.396,1424.358,-1438.807,1785.325,1376.124,2759.785)"><stop stop-color="#ff928e"/><stop offset="1" stop-color="#fe7062"/></linearGradient><linearGradient id="g9" x2="1" href="#P" gradientTransform="matrix(6.254,15.541,-22.659,9.118,2257.78,548.797)"><stop stop-color="#b37cff"/><stop offset="1" stop-color="#f895e7"/></linearGradient><linearGradient id="g10" x2="1" href="#P" gradientTransform="matrix(522.103,-99.499,94.88,497.868,2330.543,752.702)"><stop stop-color="#b37cff"/><stop offset="1" stop-color="#f895e7"/></linearGradient><linearGradient id="g11" x2="1" href="#P" gradientTransform="matrix(8.564,21.282,-18.516,7.451,2865.773,930.795)"><stop stop-color="#b37cff"/><stop offset="1" stop-color="#f895e7"/></linearGradient><linearGradient id="g12" x2="1" href="#P" gradientTransform="matrix(6.225,15.471,-22.677,9.125,2800.909,1075.055)"><stop stop-color="#b37cff"/><stop offset="1" stop-color="#f895e7"/></linearGradient><linearGradient id="g13" x2="1" href="#P" gradientTransform="matrix(340.285,-64.849,61.692,323.72,2859.327,1205.954)"><stop stop-color="#b37cff"/><stop offset="1" stop-color="#f895e7"/></linearGradient><linearGradient id="g14" x2="1" href="#P" gradientTransform="matrix(8.58,21.322,-18.459,7.428,3206.354,1329.039)"><stop stop-color="#b37cff"/><stop offset="1" stop-color="#f895e7"/></linearGradient><linearGradient id="g15" x2="1" href="#P" gradientTransform="matrix(-741.604,1749.426,-806.067,-341.702,1821.726,838.137)"><stop stop-color="#4f52ff"/><stop offset="1" stop-color="#4042e2"/></linearGradient><linearGradient id="g16" x2="1" href="#P" gradientTransform="matrix(-70.896,212.689,-506.958,-168.985,1691.556,1706.419)"><stop stop-color="#4f52ff"/><stop offset="1" stop-color="#4042e2"/></linearGradient><linearGradient id="g17" x2="1" href="#P" gradientTransform="matrix(-165.824,391.175,-796.211,-337.524,1529.546,2343.717)"><stop stop-color="#4f52ff"/><stop offset="1" stop-color="#4042e2"/></linearGradient><linearGradient id="g18" x2="1" href="#P" gradientTransform="matrix(-81.024,288.65,-830.782,-233.202,1672.155,1779.849)"><stop stop-color="#4f52ff"/><stop offset="1" stop-color="#4042e2"/></linearGradient><linearGradient id="g19" x2="1" href="#P" gradientTransform="matrix(-196.753,464.136,-1044.71,-442.866,1557.584,963.859)"><stop stop-color="#4f52ff"/><stop offset="1" stop-color="#4042e2"/></linearGradient><linearGradient id="g20" x2="1" href="#P" gradientTransform="matrix(-177.241,278.522,-278.522,-177.241,1524.514,1061.928)"><stop stop-color="#4f52ff"/><stop offset="1" stop-color="#4042e2"/></linearGradient><linearGradient id="g21" x2="1" href="#P" gradientTransform="matrix(-245.429,578.961,-574.156,-243.392,2198.809,1232.47)"><stop stop-color="#4f52ff"/><stop offset="1" stop-color="#4042e2"/></linearGradient><linearGradient id="g22" x2="1" href="#P" gradientTransform="matrix(-31.672,74.714,-74.714,-31.672,2058.563,1155.372)"><stop stop-color="#4f52ff"/><stop offset="1" stop-color="#4042e2"/></linearGradient><linearGradient id="g23" x2="1" href="#P" gradientTransform="matrix(20.256,-440.571,842.004,38.712,1982.743,2205.45)"><stop stop-color="#4f52ff"/><stop offset="1" stop-color="#4042e2"/></linearGradient><linearGradient id="g24" x2="1" href="#P" gradientTransform="matrix(189.529,-384.179,707.216,348.894,2187.137,1307.431)"><stop stop-color="#4f52ff"/><stop offset="1" stop-color="#4042e2"/></linearGradient><linearGradient id="g25" x2="1" href="#P" gradientTransform="matrix(676.893,0,0,526.044,485.105,1423.142)"><stop stop-color="#4f52ff"/><stop offset="1" stop-color="#4042e2"/></linearGradient><linearGradient id="g26" x2="1" href="#P" gradientTransform="matrix(-31.672,74.714,-74.714,-31.672,885.41,1153.016)"><stop stop-color="#4f52ff"/><stop offset="1" stop-color="#4042e2"/></linearGradient><linearGradient id="g27" x2="1" href="#P" gradientTransform="matrix(-30.384,-410.188,762.899,-56.511,871.204,2334.498)"><stop stop-color="#4f52ff"/><stop offset="1" stop-color="#4042e2"/></linearGradient><linearGradient id="g28" x2="1" href="#P" gradientTransform="matrix(256.11,-507.097,915.136,462.19,964.646,1383.503)"><stop stop-color="#4f52ff"/><stop offset="1" stop-color="#4042e2"/></linearGradient><linearGradient id="g29" x2="1" href="#P" gradientTransform="matrix(-152.696,2.459,-2.534,-157.397,2865.151,2411.797)"><stop stop-color="#febbba"/><stop offset="1" stop-color="#ff928e"/></linearGradient><linearGradient id="g30" x2="1" href="#P" gradientTransform="matrix(-114.499,1.844,-1.442,-89.579,2724.27,3199.864)"><stop stop-color="#4f52ff"/><stop offset="1" stop-color="#4042e2"/></linearGradient><linearGradient id="g31" x2="1" href="#P" gradientTransform="matrix(24.945,190.525,-153,20.032,2690.33,3070.025)"><stop stop-color="#febbba"/><stop offset="1" stop-color="#ff928e"/></linearGradient><linearGradient id="g32" x2="1" href="#P" gradientTransform="matrix(-164.819,2.654,-1.285,-79.778,2549.967,3205.718)"><stop stop-color="#4f52ff"/><stop offset="1" stop-color="#4042e2"/></linearGradient><linearGradient id="g33" x2="1" href="#P" gradientTransform="matrix(24.945,190.524,-128.221,16.787,2512.501,3093.308)"><stop stop-color="#febbba"/><stop offset="1" stop-color="#ff928e"/></linearGradient><linearGradient id="g34" x2="1" href="#P" gradientTransform="matrix(-192.688,1016.957,-411.893,-78.043,2732.66,2283.781)"><stop stop-color="#4f52ff"/><stop offset="1" stop-color="#4042e2"/></linearGradient><linearGradient id="g35" x2="1" href="#P" gradientTransform="matrix(-857.552,445.657,-494.414,-951.373,3364.314,1845.577)"><stop stop-color="#09005d"/><stop offset="1" stop-color="#1a0f91"/></linearGradient><linearGradient id="g36" x2="1" href="#P" gradientTransform="matrix(89.319,359.532,-326.267,81.055,2622.357,1850.572)"><stop stop-color="#febbba"/><stop offset="1" stop-color="#ff928e"/></linearGradient><linearGradient id="g37" x2="1" href="#P" gradientTransform="matrix(-58.876,909.905,-816.524,-52.834,2733.383,1828.114)"><stop stop-color="#4f52ff"/><stop offset="1" stop-color="#4042e2"/></linearGradient><linearGradient id="g38" x2="1" href="#P" gradientTransform="matrix(-857.555,445.658,-168.275,-323.803,3271.414,1666.815)"><stop stop-color="#09005d"/><stop offset="1" stop-color="#1a0f91"/></linearGradient><linearGradient id="g39" x2="1" href="#P" gradientTransform="matrix(521.557,645.589,-331.177,267.55,1966.353,1852.318)"><stop stop-color="#febbba"/><stop offset="1" stop-color="#ff928e"/></linearGradient><linearGradient id="g40" x2="1" href="#P" gradientTransform="matrix(521.558,645.59,-824.398,666.013,1898.821,1906.874)"><stop stop-color="#febbba"/><stop offset="1" stop-color="#ff928e"/></linearGradient><linearGradient id="g41" x2="1" href="#P" gradientTransform="matrix(154.026,-5.635,6.234,170.4,2560.202,1845.12)"><stop stop-color="#febbba"/><stop offset="1" stop-color="#ff928e"/></linearGradient><linearGradient id="g42" x2="1" href="#P" gradientTransform="matrix(-146.018,187.998,-331.359,-257.366,2695.36,1724.886)"><stop stop-color="#09005d"/><stop offset="1" stop-color="#1a0f91"/></linearGradient><linearGradient id="g43" x2="1" href="#P" gradientTransform="matrix(154.027,-5.635,7.695,210.328,2560.612,1856.326)"><stop stop-color="#febbba"/><stop offset="1" stop-color="#ff928e"/></linearGradient><linearGradient id="g44" x2="1" href="#P" gradientTransform="matrix(187.49,421.851,-312.48,138.88,2991.458,1731.512)"><stop stop-color="#09005d"/><stop offset="1" stop-color="#1a0f91"/></linearGradient><linearGradient id="g45" x2="1" href="#P" gradientTransform="matrix(-156.985,121.537,-141.514,-182.789,3622.703,1741.777)"><stop stop-color="#ff928e"/><stop offset="1" stop-color="#fe7062"/></linearGradient><linearGradient id="g46" x2="1" href="#P" gradientTransform="matrix(46.069,-106.88,101.173,43.61,2969.01,2078.942)"><stop stop-color="#febbba"/><stop offset="1" stop-color="#ff928e"/></linearGradient><linearGradient id="g47" x2="1" href="#P" gradientTransform="matrix(100.347,208.366,-229.831,110.684,2962.396,1821.112)"><stop stop-color="#febbba"/><stop offset="1" stop-color="#ff928e"/></linearGradient><linearGradient id="g48" x2="1" href="#P" gradientTransform="matrix(674.885,738.019,-482.426,441.156,3006.221,1787.574)"><stop stop-color="#09005d"/><stop offset="1" stop-color="#1a0f91"/></linearGradient><linearGradient id="g49" x2="1" href="#P" gradientTransform="matrix(100.346,208.365,-303.426,146.126,3007.676,1799.303)"><stop stop-color="#febbba"/><stop offset="1" stop-color="#ff928e"/></linearGradient><linearGradient id="g50" x2="1" href="#P" gradientTransform="matrix(-366.319,-636.795,147.294,-84.731,3258.403,3396.035)"><stop stop-color="#febbba"/><stop offset="1" stop-color="#ff928e"/></linearGradient><linearGradient id="g51" x2="1" href="#P" gradientTransform="matrix(-105.842,.699,-0.99,-150.027,3177.977,3170.567)"><stop stop-color="#09005d"/><stop offset="1" stop-color="#1a0f91"/></linearGradient><linearGradient id="g52" x2="1" href="#P" gradientTransform="matrix(542.683,169.593,-482.254,1543.173,2844.931,2925.89)"><stop stop-color="#febbba"/><stop offset="1" stop-color="#ff928e"/></linearGradient><linearGradient id="g53" x2="1" href="#P" gradientTransform="matrix(-126.174,.833,-0.842,-127.646,3079.973,3190.331)"><stop stop-color="#09005d"/><stop offset="1" stop-color="#1a0f91"/></linearGradient><linearGradient id="g54" x2="1" href="#P" gradientTransform="matrix(306.723,671.829,-610.403,278.679,2720.703,1945.612)"><stop stop-color="#09005d"/><stop offset="1" stop-color="#1a0f91"/></linearGradient><linearGradient id="g55" x2="1" href="#P" gradientTransform="matrix(-522.427,-748.298,612.079,-427.326,3208.253,2405.299)"><stop stop-color="#febbba"/><stop offset="1" stop-color="#ff928e"/></linearGradient></defs><style>.a{fill:url(#g1)}.b{fill:#bdd0fb}.c{opacity:.57;fill:#fff}.d{fill:#91b3fa}.e{fill:url(#g2)}.f{fill:url(#g3)}.g{opacity:.44;fill:url(#g4)}.h{opacity:.44;fill:url(#g5)}.i{fill:url(#g6)}.j{fill:url(#g7)}.k{fill:url(#g8)}.l{fill:url(#g9)}.m{fill:url(#g10)}.n{fill:url(#g11)}.o{fill:#fff}.p{fill:url(#g12)}.q{fill:url(#g13)}.r{fill:url(#g14)}.s{opacity:.56;fill:#fff}.t{fill:url(#g15)}.u{fill:url(#g16)}.v{fill:url(#g17)}.w{fill:url(#g18)}.x{fill:url(#g19)}.y{fill:url(#g20)}.z{fill:url(#g21)}.A{fill:url(#g22)}.B{fill:url(#g23)}.C{fill:url(#g24)}.D{fill:url(#g25)}.E{fill:url(#g26)}.F{fill:url(#g27)}.G{fill:url(#g28)}.H{fill:url(#g29)}.I{fill:url(#g30)}.J{fill:#7d97f4}.K{fill:url(#g31)}.L{fill:url(#g32)}.M{fill:url(#g33)}.N{fill:url(#g34)}.O{fill:url(#g35)}.P{fill:url(#g36)}.Q{fill:url(#g37)}.R{fill:url(#g38)}.S{fill:url(#g39)}.T{fill:url(#g40)}.U{fill:url(#g41)}.V{fill:url(#g42)}.W{fill:url(#g43)}.X{fill:url(#g44)}.Y{fill:url(#g45)}.Z{fill:url(#g46)}.a0{fill:url(#g47)}.a1{fill:url(#g48)}.a2{fill:url(#g49)}.a3{fill:url(#g50)}.a4{fill:url(#g51)}.a5{fill:url(#g52)}.a6{fill:url(#g53)}.a7{fill:url(#g54)}.a8{fill:url(#g55)}</style><path class="a" d="m2919.7 2856.2c-57.1 60.1-111.2 98.9-153.9 129.5-501.8 360.1-1095.7 255.2-1221.9 229.5-186.3-37.8-546.6-111-807-417.3-394.1-463.3-332.7-1193.4-27.1-1675.3 55.9-88.2 351.3-577.4 951.5-655.9 363.2-47.5 786.7 48.3 1093.3 305.2 643.7 539.3 597.9 1628.7 165.1 2084.3z"/><path class="b" d="m1314.1 1951.3c-364.1-335.2-595.6-763.1-429.8-1469.2 0 0 1000 692.3 429.8 1469.2z"/><path class="c" d="m1290.7 1775.2c-2.4-0.7-4.1-2.7-4.3-5.3-32.9-607.7-315-1036-317.9-1040.2-1.8-2.7-1-6.4 1.6-8.2 2.7-1.8 6.4-1.1 8.2 1.6 2.9 4.3 286.8 435.1 319.9 1046.2 0.2 3.2-2.3 6-5.6 6.1q-1 0.1-1.9-0.2z"/><path class="d" d="m465.3 619.4c-19.7 239-77.3 1634.8 1222.8 1924.1 0 0 274.4-909.1-1191-1939.1-12.8-9-30.5-0.6-31.8 15z"/><path class="e" d="m2818 1553c-16.7-314.7-175-618.1-525.1-640-224.9-14-388.3 125.8-426.6 284.5l-61.2 315.7 176.9 420.5-243.6 520.5 111.5-507.4-174.9-423.5 120.2-314.9c-103-192.1-310.1-309.9-518.6-304.2-274.5 7.5-497.5 256.7-515.1 577.4-11.6 211.9 65.3 406.7 191.6 538l774.8 631.1c33.5 27.3 77.1 28.5 110.5 3.2l759-575.9c121.1-119.7 231.7-317.2 220.6-525z"/><path class="f" d="m2606.8 3207.7h-2135.8c-8 0-14.4-6.5-14.4-14.4v-493.7c0-7.9 6.4-14.4 14.4-14.4h2135.8c7.9 0 14.4 6.5 14.4 14.4v493.7c0 7.9-6.5 14.4-14.4 14.4z"/><path class="g" d="m2413.7 3134.5h-244.6c-2.7 0-4.9-2.2-4.9-4.9v-392.6c0-2.7 2.2-4.9 4.9-4.9h244.6c2.6 0 4.8 2.2 4.8 4.9v392.6c0 2.7-2.2 4.9-4.8 4.9z"/><path class="h" d="m2042.8 3145h-87.5c-2.2 0-4-1.8-4-4v-394.5c0-2.2 1.8-4 4-4h87.5c2.2 0 4 1.8 4 4v394.5c0 2.2-1.8 4-4 4z"/><path class="i" d="m1065.8 3102.6v-295.6h55v247.4h76.2v48.2z"/><path class="j" d="m1372.1 3102.6l-17-74.6h-77l-17 74.6h-55l73.2-296.8h74.6l73.4 296.8zm-27.3-123.4l-15.7-68.7q-1.5-6.3-6.4-31.4-5-25.2-6-33.7-2.6 17.4-6.7 38.3-4 20.9-21 95.5z"/><path class="k" d="m1698.4 3102.6h-68.7l-28.9-154.9q-6.7-31.7-9.5-75l-1.6 14.9-8.3 60.9-28.1 154.1h-68.8l-53.5-295.6h53.9l26.5 166.8q3.9 25 10.3 78.6 5.1-54.2 9.5-77.4l31.6-168h57l31.5 168q6.3 37.4 9.9 77.8 7.1-59.8 10.3-79l25.7-166.8h54.4z"/><g style="opacity:.6"><path class="l" d="m2250.1 562.5c-1.1-2.8-0.3-6.1 2.2-8q4.4-3.5 8.9-6.8c3-2.3 7.4-1.7 9.6 1.4 2.3 3 1.7 7.4-1.4 9.7q-4.4 3.2-8.6 6.5c-3 2.4-7.3 1.9-9.7-1.1q-0.6-0.8-1-1.7z"/><path class="m" d="m2289.3 535.4c-1.3-3.1-0.1-6.7 2.8-8.5 6.5-3.9 13.2-7.7 20-11.3 3.3-1.7 7.5-0.4 9.3 2.9 1.8 3.4 0.5 7.6-2.9 9.4-6.5 3.4-13 7-19.3 10.8-3.2 2-7.5 0.9-9.4-2.3q-0.3-0.5-0.5-1zm52.8-26.5c-1.5-3.6 0.2-7.6 3.7-9l2.3-0.9c6.3-2.6 12.7-5 19.2-7.2 3.6-1.2 7.5 0.6 8.8 4.3 1.2 3.6-0.7 7.5-4.3 8.8-6.2 2.1-12.5 4.4-18.5 6.9l-2.2 0.9c-3.6 1.4-7.6-0.3-9-3.8q0 0 0 0zm56.2-18.2q-0.2-0.5-0.4-1c-0.8-3.7 1.4-7.4 5.1-8.3 7.4-1.8 15-3.4 22.5-4.7 3.7-0.7 7.3 1.8 8 5.5 0.6 3.8-1.8 7.4-5.6 8-7.2 1.3-14.5 2.9-21.6 4.6-3.4 0.8-6.8-1-8-4.1zm58.3-9.5q-0.4-0.9-0.5-2c-0.3-3.8 2.5-7.1 6.3-7.4 7.6-0.6 15.3-1 22.9-1.2 3.8-0.1 6.9 2.9 7 6.7 0.1 3.8-2.9 7-6.7 7.1-7.3 0.1-14.8 0.5-22.1 1.1-3.1 0.3-5.8-1.5-6.9-4.3zm59-0.3c-0.4-0.9-0.5-2-0.5-3 0.3-3.8 3.6-6.7 7.4-6.4 7.6 0.5 15.3 1.3 22.9 2.3 3.7 0.5 6.4 4 5.9 7.7-0.5 3.8-4 6.5-7.7 6-7.3-1-14.7-1.7-22.1-2.3-2.7-0.2-4.9-1.9-5.9-4.3zm58.5 8.8c-0.5-1.2-0.7-2.7-0.4-4.1 0.9-3.7 4.6-6 8.3-5.2 7.4 1.8 14.9 3.7 22.2 5.9 3.7 1 5.8 4.9 4.7 8.5-1.1 3.7-4.9 5.8-8.6 4.7-7-2.1-14.2-4-21.4-5.6-2.3-0.5-4-2.1-4.8-4.2zm56.4 17.7c-0.7-1.6-0.7-3.4-0.1-5.1 1.5-3.6 5.5-5.3 9-3.9 7.1 2.9 14.2 5.9 21 9.2 3.5 1.6 5 5.7 3.4 9.1-1.7 3.5-5.8 5-9.2 3.3-6.7-3.1-13.5-6-20.3-8.8-1.8-0.7-3.2-2.1-3.8-3.8zm53 26.1c-0.8-1.9-0.7-4.2 0.4-6.1 2-3.3 6.2-4.4 9.5-2.4 6.5 3.8 13.1 7.9 19.4 12.2 3.1 2.1 4 6.4 1.8 9.6-2.1 3.1-6.4 4-9.5 1.8-6.1-4.1-12.4-8-18.7-11.8-1.4-0.8-2.4-2-2.9-3.3zm48.4 33.8c-0.9-2.2-0.6-4.9 1-6.9 2.5-3 6.8-3.4 9.8-1 5.8 4.8 11.6 9.9 17.2 15 2.8 2.6 3 7 0.4 9.8-2.6 2.8-6.9 3-9.7 0.4-5.4-5-11-9.9-16.7-14.5-0.9-0.8-1.6-1.7-2-2.8zm138.4 334.8c-0.4-1-0.6-2.1-0.5-3.2 0.7-7.3 1.2-14.7 1.5-22.1 0.2-3.8 3.4-6.7 7.2-6.6 3.8 0.2 6.8 3.4 6.6 7.2-0.3 7.6-0.8 15.3-1.6 22.9-0.4 3.8-3.7 6.5-7.5 6.1-2.7-0.2-4.8-1.9-5.7-4.3zm-95.8-293.9c-1-2.7-0.4-5.8 1.8-7.7 2.9-2.6 7.2-2.3 9.8 0.5 5 5.7 10 11.6 14.7 17.5 2.4 3 1.9 7.3-1.1 9.7-3 2.4-7.3 1.9-9.7-1.1-4.6-5.8-9.3-11.4-14.2-16.9q-0.9-0.9-1.3-2zm97.1 234.9q-0.4-1-0.5-2.2c-0.4-7.3-1.1-14.8-1.9-22.1-0.4-3.7 2.3-7.2 6.1-7.6 3.8-0.4 7.2 2.3 7.6 6.1 0.9 7.5 1.5 15.2 2 22.8 0.2 3.8-2.7 7.1-6.6 7.3-3 0.2-5.7-1.7-6.7-4.3zm-61.3-188c-1.2-3-0.1-6.6 2.7-8.4 3.2-2.1 7.5-1.1 9.5 2.1 4.2 6.4 8.2 12.9 11.9 19.6 1.9 3.3 0.7 7.5-2.6 9.4-3.3 1.8-7.5 0.7-9.4-2.6-3.6-6.4-7.5-12.8-11.5-18.9q-0.3-0.6-0.6-1.2zm53.5 129.4q-0.3-0.5-0.4-1.1c-1.5-7.2-3.3-14.4-5.2-21.5-1-3.7 1.1-7.5 4.8-8.5 3.7-1 7.5 1.2 8.5 4.8 2 7.4 3.8 14.9 5.4 22.3 0.8 3.7-1.6 7.4-5.3 8.2-3.3 0.7-6.6-1.1-7.8-4.2zm-25.3-77.5c-1.4-3.4 0.2-7.4 3.6-8.9 3.5-1.5 7.6 0 9.1 3.5 3.1 6.9 6 14 8.7 21.2 1.4 3.6-0.4 7.5-4 8.9-3.5 1.3-7.6-0.5-8.9-4-2.6-6.9-5.4-13.8-8.4-20.5q0-0.1-0.1-0.2z"/><path class="n" d="m2862.5 949.4c-0.5-1.3-0.6-2.7-0.3-4.1q1.2-5.3 2.2-10.6c0.8-3.7 4.4-6.2 8.1-5.4 3.8 0.7 6.2 4.4 5.5 8.1q-1.1 5.5-2.4 11c-0.8 3.7-4.5 6-8.2 5.2-2.3-0.6-4.1-2.2-4.9-4.2z"/></g><g style="opacity:.64"><path class="o" d="m2690.3 1190.5c-1.2-3-0.1-6.6 2.8-8.4q4.6-2.9 9.1-5.8c3.2-2.1 7.5-1.3 9.6 1.9 2.1 3.2 1.2 7.5-2 9.6q-4.6 3.1-9.4 6c-3.3 2-7.5 1-9.5-2.2q-0.3-0.5-0.6-1.1z"/><path class="o" d="m2129.3 1001.1q0 0 0-0.1c-2.4-6.2-4.6-12.6-6.7-19l-0.7-2.3c-1.2-3.6 0.8-7.5 4.5-8.7 3.6-1.1 7.5 1 8.6 4.5l0.7 2.3c2 6.1 4.2 12.3 6.5 18.3 1.3 3.5-0.4 7.5-4 8.9-3.5 1.3-7.5-0.4-8.9-3.9zm14.4 33c-1.3-3.3 0.1-7.1 3.4-8.7 3.4-1.7 7.5-0.3 9.2 3.1 3.2 6.5 6.6 13 10.2 19.2 1.9 3.3 0.7 7.6-2.6 9.4-3.3 1.9-7.5 0.8-9.4-2.6-3.7-6.5-7.3-13.2-10.6-19.9q-0.1-0.2-0.2-0.5zm-31-88.7q-0.2-0.5-0.3-1.1c-1.6-7.4-3-14.8-4.2-22.2-0.6-3.8 2-7.3 5.8-7.9 3.7-0.6 7.3 2 7.9 5.7 1.1 7.2 2.4 14.4 4 21.4 0.8 3.8-1.6 7.4-5.3 8.2-3.3 0.8-6.6-1-7.9-4.1zm60.6 138.8c-1.2-2.9-0.2-6.4 2.4-8.3 3.2-2.1 7.5-1.4 9.6 1.7 4.2 6 8.6 11.8 13 17.5 2.4 3 1.9 7.3-1.1 9.7-3 2.4-7.3 1.8-9.7-1.1-4.6-5.9-9.2-12-13.5-18.2q-0.4-0.6-0.7-1.3zm-68.6-196.4q-0.4-1-0.5-2.2c-0.5-7.4-0.7-15-0.7-22.5-0.1-3.8 3-6.9 6.8-6.9 3.8-0.1 6.9 3 7 6.8 0 7.2 0.2 14.6 0.7 21.8 0.2 3.8-2.7 7.1-6.5 7.3-3 0.2-5.7-1.6-6.8-4.3zm105.4 241.3c-1-2.5-0.4-5.5 1.7-7.5 2.7-2.7 7.1-2.6 9.7 0.2 5 5.2 10.2 10.4 15.5 15.3 2.8 2.6 2.9 6.9 0.3 9.7-2.6 2.8-6.9 3-9.7 0.4-5.5-5.1-10.9-10.5-16.1-15.9q-0.9-1-1.4-2.2zm-104.6-299.5c-0.4-0.9-0.6-2-0.5-3.1 0.7-7.5 1.6-15 2.7-22.5 0.6-3.7 4.1-6.3 7.9-5.8 3.7 0.6 6.3 4.1 5.8 7.9-1.1 7.1-2 14.4-2.6 21.6-0.4 3.8-3.7 6.6-7.5 6.2-2.7-0.2-4.9-1.9-5.8-4.3zm147.8 338.4c-0.8-2.2-0.6-4.8 1-6.8 2.3-3 6.6-3.6 9.6-1.2 5.8 4.4 11.7 8.7 17.6 12.7 3.2 2.2 4 6.5 1.9 9.6-2.2 3.2-6.5 4-9.6 1.8-6.2-4.2-12.3-8.6-18.3-13.2-1-0.8-1.7-1.8-2.2-2.9zm48.6 31.9c-0.7-1.9-0.7-4 0.4-5.9 1.8-3.3 6-4.6 9.4-2.7 6.3 3.5 12.8 6.9 19.3 10 3.4 1.6 4.9 5.8 3.2 9.2-1.6 3.4-5.8 4.9-9.2 3.2-6.7-3.2-13.5-6.7-20-10.3-1.5-0.8-2.5-2.1-3.1-3.5zm52.8 24.3c-0.6-1.6-0.6-3.3 0-5 1.3-3.6 5.3-5.4 8.8-4.1 6.8 2.5 13.8 4.9 20.7 7 3.6 1.1 5.7 5 4.5 8.6-1.1 3.7-4.9 5.7-8.6 4.6-7.1-2.2-14.3-4.6-21.4-7.2-1.9-0.7-3.3-2.2-4-3.9zm55.9 16c-0.5-1.2-0.6-2.6-0.3-4 0.7-3.7 4.4-6.1 8.1-5.3 7.1 1.4 14.3 2.7 21.5 3.8 3.7 0.5 6.3 4 5.8 7.8-0.6 3.8-4.1 6.4-7.8 5.8-7.5-1.1-14.9-2.4-22.3-3.9-2.3-0.5-4.1-2.1-5-4.2zm57.7 7.4c-0.4-0.9-0.5-1.9-0.5-2.9 0.2-3.8 3.5-6.7 7.3-6.5 7.2 0.3 14.5 0.5 21.8 0.5 3.8-0.1 6.9 3 6.9 6.8 0 3.8-3 6.9-6.9 7-7.5 0-15.1-0.2-22.5-0.6-2.8-0.1-5.1-1.9-6.1-4.3zm58.2-1.4q-0.4-0.9-0.5-1.9c-0.4-3.8 2.4-7.2 6.2-7.5 7.1-0.8 14.4-1.7 21.5-2.9 3.8-0.6 7.3 2 7.9 5.7 0.6 3.8-1.9 7.3-5.7 7.9-7.4 1.2-14.9 2.2-22.4 3-3.1 0.3-5.9-1.5-7-4.3zm57.2-10.2q-0.2-0.5-0.3-0.9c-1-3.7 1.3-7.4 4.9-8.4 7-1.8 14.1-3.8 21-6 3.6-1.2 7.5 0.8 8.6 4.4 1.2 3.7-0.8 7.5-4.4 8.7-7.2 2.3-14.5 4.4-21.7 6.3-3.4 0.8-6.9-1-8.1-4.1zm55-18.7c-1.4-3.5 0.3-7.5 3.7-9 6.7-2.8 13.3-5.8 19.8-9 3.4-1.7 7.6-0.3 9.2 3.1 1.7 3.4 0.3 7.5-3.1 9.2-6.7 3.3-13.6 6.5-20.5 9.4-3.5 1.5-7.5-0.1-9-3.6q-0.1-0.1-0.1-0.1z"/><path class="o" d="m2115.2 772.1c-0.6-1.3-0.7-2.8-0.3-4.3q1.3-5.4 2.8-10.8c1.1-3.7 4.9-5.8 8.5-4.8 3.7 1 5.8 4.8 4.8 8.5q-1.4 5.2-2.7 10.5c-0.9 3.7-4.7 5.9-8.4 5-2.2-0.6-3.9-2.1-4.7-4.1z"/></g><path class="d" d="m2222.4 747.4c-1 1.7-0.7 3.9 0.6 5.3l37.6 41.7c-7.1 25.2-10.2 51.7-8.8 78.6l-45.8 32.3c-1.6 1.1-2.3 3.2-1.8 5.1l18.7 64.6c0.6 1.9 2.3 3.2 4.2 3.3l56 2.8c13.2 23.5 30 44.3 49.5 61.9l-9.6 55.2c-0.4 2 0.6 3.9 2.3 4.9l58.9 32.4c1.7 1 3.9 0.7 5.3-0.6l41.6-37.6c25.3 7.1 51.8 10.2 78.7 8.8l32.3 45.8c1.1 1.6 3.2 2.3 5.1 1.8l64.6-18.7c1.9-0.5 3.2-2.2 3.3-4.2l2.8-56c23.5-13.2 44.3-30 61.9-49.4l55.2 9.6c2 0.3 3.9-0.6 4.8-2.4l32.5-58.9c1-1.7 0.7-3.8-0.6-5.3l-37.6-41.6c7.1-25.2 10.2-51.8 8.8-78.7l45.8-32.3c1.6-1.1 2.3-3.1 1.8-5l-18.7-64.7c-0.6-1.9-2.2-3.2-4.2-3.3l-56-2.8c-13.2-23.5-30-44.3-49.4-61.8l9.5-55.3c0.4-1.9-0.6-3.9-2.3-4.8l-58.9-32.5c-1.7-0.9-3.9-0.7-5.3 0.6l-41.6 37.6c-25.3-7-51.8-10.2-78.7-8.8l-32.3-45.8c-1.1-1.6-3.2-2.3-5-1.8l-64.7 18.7c-1.9 0.6-3.2 2.3-3.3 4.2l-2.8 56c-23.5 13.2-44.3 30-61.8 49.5l-55.3-9.6c-1.9-0.4-3.9 0.6-4.8 2.3z"/><path class="o" d="m2436.8 884.8c-5.2-12.9-6.2-27.1-2.6-40.8 4.5-16.8 15.2-31 30.2-39.8 15.1-8.8 32.7-11.2 49.5-6.8 16.9 4.5 31 15.2 39.8 30.2 18.2 31.1 7.7 71.2-23.4 89.3-31.1 18.2-71.1 7.7-89.3-23.4q-2.5-4.2-4.2-8.7zm110.9-44.4q-1.5-3.7-3.5-7.2c-7.3-12.5-19.1-21.4-33.1-25.1-14-3.7-28.6-1.7-41.1 5.7-12.5 7.3-21.4 19-25.1 33-3.7 14-1.7 28.6 5.6 41.1 15.1 25.8 48.4 34.6 74.2 19.5 23.5-13.7 32.8-42.5 23-67z"/><path class="o" d="m2345.5 922.9q-3.1-7.7-5.4-15.9c-2.4-8-4.1-16.2-5.2-24.5q0-0.1 0-0.2-0.1-0.6-0.2-1.1 0-0.1 0-0.2 0 0 0 0 0 0 0-0.1 0-0.3-0.1-0.5 0-0.1 0-0.1 0-0.1 0-0.2 0-0.1 0-0.1-0.1-0.8-0.2-1.6 0-0.3 0-0.5-0.2-1.8-0.3-3.5-0.1-1-0.2-2c-0.1-1.2 0.6-2.3 1.7-2.7q0.4-0.2 0.9-0.2c1.5-0.1 2.8 1 2.9 2.6 0.8 11.2 2.8 22.5 6 33.4 11.8 41 38.9 74.8 76.2 95.4 37.4 20.6 80.5 25.4 121.4 13.6q7.9-2.3 15.4-5.3c75-30.2 116.5-113.1 93.6-192.4-11.9-41-39-74.8-76.3-95.4-37.3-20.6-80.4-25.4-121.4-13.6q-7.8 2.3-15.3 5.3c-21.7 8.8-41.2 22.1-57.1 39.2q-0.5 0.5-1 0.7c-1 0.4-2.1 0.2-2.9-0.5-1.1-1-1.2-2.8-0.2-3.9 16.5-17.7 36.7-31.6 59.1-40.6q7.8-3.1 15.9-5.5c42.3-12.2 86.9-7.2 125.6 14 38.6 21.3 66.6 56.4 78.9 98.8 23.7 82-19.3 167.7-96.8 199q-7.8 3.1-15.9 5.5c-82.1 23.7-167.9-19.3-199.1-96.9z"/><g style="opacity:.6"><path class="p" d="m2793.2 1088.7c-1.1-2.8-0.3-6.1 2.1-8 3-2.3 6-4.6 9.1-6.8 3.1-2.3 7.4-1.6 9.6 1.5 2.2 3.1 1.5 7.4-1.5 9.7-2.9 2.1-5.8 4.2-8.6 6.4-3 2.4-7.3 1.9-9.7-1.1q-0.6-0.8-1-1.7z"/><path class="q" d="m2832.3 1063.3c-1.3-3.3 0-7 3.2-8.7 6.5-3.5 13.4-6.7 20.3-9.6 3.5-1.5 7.5 0.1 9 3.6 1.6 3.6-0.1 7.6-3.6 9.1-6.6 2.7-13.1 5.8-19.3 9.1-3.4 1.8-7.6 0.5-9.3-2.9q-0.2-0.3-0.3-0.6zm53.4-21q-0.1-0.4-0.2-0.8c-1-3.6 1.1-7.4 4.8-8.4 7.2-2 14.6-3.6 22-5 3.7-0.6 7.3 1.8 8 5.6 0.7 3.7-1.8 7.3-5.6 8-6.9 1.3-13.9 2.8-20.8 4.7-3.4 0.9-6.9-0.9-8.2-4.1zm56.8-8.7q-0.5-1.1-0.5-2.3c-0.2-3.8 2.8-7 6.6-7.1 7.5-0.3 15-0.3 22.5 0 3.8 0.2 6.7 3.4 6.6 7.2-0.2 3.8-3.5 6.8-7.3 6.6-7-0.3-14.2-0.3-21.3-0.1-3 0.2-5.6-1.7-6.6-4.3zm57.2 4.2c-0.4-1.2-0.6-2.5-0.4-3.8 0.8-3.8 4.4-6.2 8.1-5.5 7.3 1.3 14.7 3.1 21.9 5.1 3.7 1 5.8 4.8 4.8 8.5-1 3.6-4.8 5.8-8.5 4.8-6.8-1.9-13.8-3.6-20.7-4.9-2.4-0.4-4.3-2.1-5.2-4.2zm54.9 16.9c-0.6-1.7-0.7-3.6 0.1-5.4 1.5-3.5 5.6-5.1 9.1-3.5 6.8 2.9 13.6 6.2 20.2 9.8 3.4 1.8 4.6 6 2.8 9.3-1.8 3.4-6 4.6-9.3 2.8-6.3-3.3-12.7-6.5-19.2-9.3-1.8-0.7-3-2.1-3.7-3.7zm49.8 28.5c-0.8-2.1-0.6-4.7 0.9-6.7 2.2-3 6.5-3.7 9.6-1.4 6 4.4 12 9.1 17.6 14 2.9 2.5 3.2 6.9 0.6 9.7-2.5 2.9-6.8 3.2-9.7 0.7-5.3-4.7-10.9-9.1-16.6-13.3-1.1-0.8-1.9-1.8-2.4-3zm105 218.1c-0.4-0.9-0.6-1.8-0.5-2.8 0.3-7.1 0.3-14.3 0-21.4-0.2-3.8 2.7-7 6.5-7.2 3.8-0.1 7.1 2.8 7.2 6.6 0.4 7.5 0.4 15.1 0.1 22.5-0.2 3.8-3.4 6.8-7.2 6.6-2.8-0.1-5.2-1.8-6.1-4.3zm-62.7-179.3c-1.1-2.6-0.4-5.8 1.9-7.7 2.8-2.5 7.2-2.2 9.7 0.6 4.9 5.7 9.6 11.6 14 17.6 2.2 3.1 1.6 7.4-1.5 9.7-3.1 2.2-7.4 1.5-9.7-1.5-4.1-5.8-8.6-11.4-13.2-16.7q-0.8-0.9-1.2-2zm58.6 122q-0.2-0.6-0.4-1.3c-1.3-6.9-2.9-13.9-4.7-20.8-1.1-3.6 1.1-7.4 4.8-8.4 3.7-1.1 7.4 1.1 8.5 4.8 1.9 7.2 3.6 14.6 5 21.9 0.7 3.8-1.8 7.4-5.5 8-3.3 0.7-6.5-1.2-7.7-4.2zm-26.1-74.7c-1.3-3.2 0-7 3.2-8.6 3.3-1.8 7.5-0.6 9.3 2.8 3.5 6.6 6.8 13.4 9.7 20.3q0 0.1 0.1 0.1c1.4 3.5-0.3 7.5-3.7 8.9-3.5 1.5-7.6-0.1-9.1-3.6-2.8-6.5-5.9-13-9.2-19.2q-0.2-0.3-0.3-0.7z"/><path class="r" d="m3203.1 1347.7c-0.5-1.3-0.6-2.7-0.3-4.1 0.8-3.5 1.5-7 2.2-10.5 0.7-3.8 4.3-6.3 8-5.6 3.8 0.7 6.2 4.3 5.5 8-0.6 3.8-1.4 7.5-2.2 11.1-0.9 3.8-4.6 6.1-8.3 5.2-2.3-0.5-4.1-2.1-4.9-4.1z"/></g><g style="opacity:.64"><path class="o" d="m3084.8 1511c-1.3-3.1-0.1-6.8 2.8-8.5 3.1-1.9 6.2-3.8 9.1-5.7 3.2-2.1 7.5-1.2 9.6 1.9 2.1 3.2 1.2 7.5-2 9.6-3.1 2-6.3 4.1-9.6 6-3.2 2-7.5 0.9-9.4-2.4q-0.3-0.4-0.5-0.9z"/><path class="o" d="m2714.1 1386.8c-1-2.7-2.1-5.5-3.2-8.4-1.3-3.6 0.6-7.5 4.1-8.8 3.6-1.3 7.4 0.4 8.8 3.9q0 0.1 0.1 0.2 1.4 4 3 7.9 0 0 0 0.1c1.6 3.8 3.2 7.6 5 11.4 1.6 3.5 0.1 7.6-3.4 9.2-3.4 1.6-7.5 0-9.1-3.4-1.9-4-3.6-8-5.3-12.1zm-12.8-41.8q-0.3-0.5-0.4-1.1c-1.5-7.2-2.8-14.5-3.8-21.8-0.5-3.8 2.2-7.3 6-7.8 3.7-0.5 7.2 2.2 7.7 6 0.9 6.9 2.1 13.8 3.6 20.7 0.8 3.7-1.5 7.3-5.3 8.2-3.3 0.7-6.6-1.1-7.8-4.2zm34.7 84.3c-1.2-3-0.1-6.6 2.7-8.4 3.2-2.1 7.5-1.1 9.5 2.1 3.8 5.9 7.8 11.6 12.1 17.2 2.3 3 1.7 7.3-1.3 9.6-3 2.3-7.4 1.8-9.7-1.3-4.4-5.8-8.7-11.9-12.7-18.1q-0.3-0.5-0.6-1.1zm-40.6-140.5q-0.5-1.2-0.5-2.6c0-7.4 0.4-14.8 1.1-22.1 0.3-3.8 3.7-6.6 7.5-6.3 3.8 0.4 6.5 3.7 6.2 7.5-0.6 7-1 14-1 21-0.1 3.8-3.2 6.8-7 6.8-2.9 0-5.3-1.8-6.3-4.3zm76.1 184.4c-1-2.5-0.5-5.4 1.5-7.5 2.7-2.7 7.1-2.7 9.8 0 4.9 4.9 10.2 9.6 15.5 14.1 2.9 2.4 3.3 6.8 0.9 9.7-2.5 2.9-6.8 3.3-9.7 0.9-5.7-4.7-11.2-9.7-16.4-14.9q-1-1-1.6-2.3zm44.3 35c-0.8-1.9-0.7-4.3 0.6-6.2 2-3.2 6.2-4.2 9.5-2.2 5.9 3.7 12 7.2 18.2 10.4 3.4 1.8 4.7 5.9 3 9.3-1.8 3.4-5.9 4.7-9.3 3-6.6-3.4-13-7.1-19.3-11-1.2-0.8-2.2-2-2.7-3.3zm50.9 24.6c-0.6-1.5-0.7-3.2-0.1-4.8 1.2-3.6 5.2-5.5 8.8-4.2 6.5 2.3 13.3 4.4 20 6.1 3.7 1 5.9 4.8 4.9 8.5-0.9 3.7-4.7 5.9-8.4 4.9-7.1-1.9-14.2-4.1-21.1-6.5-2-0.7-3.4-2.2-4.1-4zm55 13c-0.5-1.1-0.6-2.2-0.5-3.4 0.5-3.8 3.9-6.5 7.7-6 6.9 0.8 13.9 1.3 20.9 1.6 3.8 0.1 6.8 3.3 6.7 7.1-0.2 3.9-3.4 6.8-7.2 6.7-7.3-0.3-14.8-0.9-22.1-1.8-2.6-0.3-4.6-2-5.5-4.2zm56.5 0.5q-0.4-0.8-0.5-1.8c-0.4-3.8 2.4-7.2 6.2-7.6 6.9-0.7 13.9-1.7 20.7-3 3.8-0.7 7.4 1.8 8.1 5.5 0.7 3.8-1.8 7.4-5.5 8.1-7.3 1.3-14.6 2.4-21.9 3.1-3.2 0.3-6-1.5-7.1-4.3zm55.2-11.8q-0.1-0.2-0.1-0.4c-1.2-3.6 0.7-7.5 4.3-8.7 5-1.7 10-3.5 14.9-5.5q2.4-0.9 4.8-1.9c3.5-1.5 7.5 0.1 9 3.6q0 0.1 0.1 0.1c1.4 3.5-0.3 7.5-3.7 8.9q-2.5 1.1-5.1 2.1c-5.1 2.1-10.3 4-15.6 5.8-3.5 1.1-7.2-0.6-8.6-4z"/><path class="o" d="m2702 1232.5c-0.5-1.2-0.6-2.7-0.3-4.1 0.9-3.7 1.8-7.4 2.8-11 1-3.7 4.8-5.8 8.5-4.8 3.7 1 5.8 4.9 4.8 8.5-0.9 3.4-1.8 6.9-2.6 10.4-0.9 3.7-4.6 6-8.3 5.2-2.3-0.6-4.1-2.2-4.9-4.2z"/></g><path class="d" d="m2776.8 1211.6c-0.7 1.2-0.5 2.6 0.4 3.6l25.2 27.8c-4.8 16.9-6.9 34.7-5.9 52.7l-30.7 21.6c-1.1 0.8-1.6 2.1-1.2 3.4l12.5 43.3c0.4 1.2 1.5 2.1 2.8 2.2l37.5 1.9c8.8 15.7 20.1 29.6 33.1 41.4l-6.4 36.9c-0.2 1.3 0.4 2.6 1.5 3.3l39.5 21.7c1.1 0.7 2.6 0.5 3.5-0.4l27.9-25.2c16.9 4.8 34.6 6.8 52.7 5.9l21.6 30.7c0.7 1.1 2.1 1.5 3.4 1.2l43.2-12.5c1.3-0.4 2.2-1.5 2.2-2.8l1.9-37.5c15.8-8.9 29.7-20.1 41.4-33.1l37 6.4c1.3 0.2 2.6-0.4 3.2-1.6l21.8-39.4c0.6-1.2 0.4-2.6-0.4-3.6l-25.2-27.8c4.7-16.9 6.8-34.7 5.9-52.7l30.7-21.6c1-0.8 1.5-2.1 1.1-3.4l-12.5-43.2c-0.3-1.3-1.5-2.2-2.8-2.3l-37.5-1.9c-8.8-15.7-20-29.6-33.1-41.3l6.5-37c0.2-1.3-0.4-2.6-1.6-3.3l-39.4-21.7c-1.2-0.6-2.6-0.5-3.6 0.4l-27.9 25.2c-16.8-4.7-34.6-6.8-52.6-5.9l-21.6-30.7c-0.8-1-2.1-1.5-3.4-1.2l-43.3 12.6c-1.2 0.3-2.1 1.5-2.2 2.8l-1.9 37.4c-15.7 8.9-29.6 20.1-41.4 33.1l-37-6.4c-1.3-0.2-2.6 0.4-3.2 1.6z"/><path class="s" d="m2916 1305.3c-3.8-9.6-4.5-20-1.9-30.2 3.3-12.5 11.2-22.9 22.4-29.4 11.1-6.5 24.1-8.3 36.6-5 12.4 3.2 22.9 11.2 29.4 22.3 6.5 11.1 8.3 24.1 5 36.6-3.3 12.5-11.2 22.9-22.3 29.4-11.1 6.5-24.1 8.3-36.6 5.1-12.5-3.3-22.9-11.3-29.4-22.4q-1.9-3.1-3.2-6.4zm74.3-29.7q-0.9-2.2-2.1-4.2c-4.3-7.4-11.1-12.6-19.3-14.7-8.2-2.2-16.8-1-24.1 3.3-7.3 4.3-12.5 11.1-14.7 19.3-2.1 8.2-0.9 16.7 3.3 24.1 4.3 7.3 11.2 12.5 19.4 14.6 8.2 2.2 16.7 1 24-3.3 7.3-4.2 12.6-11.1 14.7-19.3 1.8-6.7 1.3-13.5-1.2-19.8z"/><path class="s" d="m2858.3 1329.4q-2.1-5.2-3.6-10.7c-2.3-7.6-3.7-15.5-4.2-23.3-0.1-1.3 0.6-2.3 1.7-2.8q0.4-0.1 0.9-0.2c1.5-0.1 2.8 1.1 2.9 2.6 0.5 7.5 1.9 14.9 4 22.2 16.2 56.1 75 88.5 131.1 72.3q5.3-1.5 10.2-3.5c49.8-20.1 77.4-75.1 62.1-127.7-16.2-56.1-75-88.5-131.1-72.3q-5.2 1.5-10.2 3.5c-14.4 5.8-27.3 14.7-37.9 26q-0.4 0.5-1 0.7c-1 0.4-2.1 0.2-2.9-0.5-1.1-1.1-1.2-2.8-0.2-3.9 11.2-12 24.8-21.3 39.9-27.4q5.3-2.1 10.7-3.7c59.1-17.1 120.9 17 138 76.1 16.1 55.3-13 113.2-65.3 134.3q-5.2 2.1-10.7 3.7c-55.4 16-113.3-13-134.4-65.4z"/><path fill-rule="evenodd" class="t" d="m1508.2 2699.3h-164.4l73.9-2029.6 10.2 1.5z"/><path fill-rule="evenodd" class="u" d="m1040 2467.9h769.8v77.1h-769.8z"/><path fill-rule="evenodd" class="v" d="m974.6 2545h906.5v77.2h-906.5z"/><path fill-rule="evenodd" class="w" d="m903.2 2622.2h1043.3v77.1h-1043.3z"/><path fill-rule="evenodd" class="x" d="m849.5 1180.6h1219.4v30.6h-1219.4z"/><path fill-rule="evenodd" class="y" d="m1427.5 1331.7c-64.9 0-117.3-52.5-117.3-117.3 0-64.9 52.4-117.4 117.3-117.4 64.9 0 117.4 52.5 117.4 117.4 0 64.8-52.5 117.3-117.4 117.3z"/><path fill-rule="evenodd" class="z" d="m1683.4 1697l-15.3-11.5 385.6-514.5 291.3 515.5-16.7 9.5-276.9-490.1z"/><path fill-rule="evenodd" class="A" d="m2042.7 1233.3c-22.4 0-40.5-18.1-40.5-40.6 0-22.4 18.1-40.5 40.5-40.5 22.5 0 40.6 18.1 40.6 40.5 0 22.5-18.1 40.6-40.6 40.6z"/><path class="B" d="m2006.2 2021.7c182.5 0 330.4-148 330.4-330.5h-660.8c0 182.5 147.9 330.5 330.4 330.5z"/><path class="C" d="m2359.9 1707.5h-715.5c-1.4 0-2.5-1.1-2.5-2.5v-45.2c0-1.4 1.1-2.6 2.5-2.6h715.5c1.4 0 2.5 1.2 2.5 2.6v45.2c0 1.4-1.1 2.5-2.5 2.5z"/><path fill-rule="evenodd" class="D" d="m500.4 1686.2l-15.3-11.5 385.6-514.6 291.3 515.6-16.7 9.4-276.9-490z"/><path fill-rule="evenodd" class="E" d="m869.6 1230.9c-22.5 0-40.6-18.1-40.6-40.5 0-22.5 18.1-40.6 40.6-40.6 22.4 0 40.5 18.1 40.5 40.6 0 22.4-18.1 40.5-40.5 40.5z"/><path class="F" d="m823.2 2010.9c182.5 0 330.5-148 330.5-330.5h-660.9c0 182.5 147.9 330.5 330.4 330.5z"/><path class="G" d="m1176.9 1696.7h-715.5c-1.4 0-2.5-1.1-2.5-2.6v-45.2c0-1.4 1.1-2.5 2.5-2.5h715.5c1.4 0 2.6 1.1 2.6 2.5v45.2c0 1.5-1.2 2.6-2.6 2.6z"/><path class="H" d="m2808.9 2334c16 16.5 39.3 30.5 55.6 39.3-23.7 30.3-56 60.9-99 90.9l-12 28.1-40.5-47.1c0 0 70.8-36.7 95.9-111.2z"/><path class="I" d="m2610.4 3242.5c0-0.9 0-1.7 0.3-2.6 12-51.3 75.5-84.2 75.5-84.2l25.4 1.6c15.3 44.8 13.9 72.4 11.7 84.8q-0.1 0.5-0.2 1c-20.9 2.2-63.9 4.1-112.7-0.6z"/><path class="J" d="m2723.1 3243.1c-1.1 4.1-4 7.4-7.9 8.3-29.7 6.7-77.1 2.4-97 0.2-4.4-0.5-7.6-4.5-7.8-9.1 48.8 4.7 91.8 2.8 112.7 0.6z"/><path class="K" d="m2721.2 3119.3l-9.9 51.9c-0.7 3.8-3.6 6.7-7.1 7.1-4.3 0.4-10.5 0.8-16.7 0-5.5-0.7-9.5-6.3-8.6-12.4l6.7-46z"/><path class="J" d="m2500.6 3246.2c28-1.3 42.5-4.8 49.9-8 0.1 2.8 0.1 5.6 0 8.6 0 3.1-2.3 5.7-5.1 5.7l-153.9 1.5c-4.9 0-7.8-5.6-5.8-10.2 20.2 1.4 71.6 4.3 114.9 2.4z"/><path class="L" d="m2385.7 3243.8c0.2-0.4 0.4-0.8 0.6-1.1 13.3-19.2 47.3-57.6 115.4-75.1l32.7-1.5c0 0 15.1 25.1 16.1 72.1-7.5 3.2-21.9 6.7-49.9 8-43.3 1.9-94.7-1-114.9-2.4z"/><path class="M" d="m2539.7 3116.3c-0.3 2.4-4.2 39.6-5.7 54.1-0.4 3.4-2.8 6.1-5.9 6.5-5.6 0.8-14.6 1.5-22.5 0-4.3-0.8-7.5-4.8-7.6-9.6l-0.9-58.3z"/><path class="N" d="m2555.1 2437.8c0 0-74.2 301.9-66.7 680.2 0.1 6.9 5.1 12.7 11.8 14 10 2 24.7 4.2 36.8 3.7 6.4-0.3 11.7-5.2 12.7-11.6 10.1-65.2 67.8-432.6 103.1-492.7 0 0 29.1 326 24.2 495.4-0.1 4.2 3.1 7.8 7.3 8.2 6.3 0.7 16.5 1.1 29.4-0.5 4.9-0.6 8.8-4.4 9.4-9.3 7-55.2 47.2-383.5 41.5-619.5-0.3-13.3-36.4-70.7-36.4-70.7z"/><path class="O" d="m2439.3 2075.8q18.5-31.8 37.1-63.7c97.2-72.6 246-39 303.4-32.7 18.8 2 36.1 11 48.8 25.2 50 56 160.2 209.9 35.9 368.7-16.3-8.8-39.6-22.8-55.6-39.3 13.4-39.8 13.8-90.4-16.7-151.9q-1.3 7.4-3.5 14.6c-38.4 129.1-38.9 236-38.4 260.6 0.1 3.4-1.9 6.4-5 7.7-53 22.2-155.9 11.2-190.4 6.6-6.4-0.8-10.7-6.7-9.9-13 14.9-122.8-75.2-323.1-98.9-373.2-1.7-3.6-4-6.8-6.8-9.6z"/><path class="P" d="m2685.9 1877.7l12 104.8c0 0-58.8 18.8-102.3-10.8l28.7-96z"/><path class="Q" d="m2655.6 2623.7c1.3 0 2.5-0.9 2.9-2.3 6.1-25.4 54.8-54 55.3-54.2 1.4-0.9 1.9-2.7 1-4.1-0.8-1.4-2.6-1.9-4-1.1-2.1 1.2-51.4 30.2-58.1 58-0.4 1.6 0.6 3.2 2.2 3.6q0.3 0.1 0.7 0.1z"/><path class="R" d="m2240.1 2112.1c111.5 14.9 182.9-56.5 236.3-100 70.4-57.4 126.4-30.9 126.4-30.9l-73.8 146.5c-111.9 108.9-228.8 87-302.8 53.5-1.6-28.1 5.5-51.7 13.9-69.1z"/><path class="S" d="m2082.6 2048.2l37.2 19.3c44.7 26.2 84.5 39.8 120.3 44.6-8.4 17.4-15.5 41-13.9 69.1-47.1-21.4-76.8-47.4-76.8-47.4-84.5-48.5-66.8-85.6-66.8-85.6z"/><path class="T" d="m1974.7 2101.9c2.3-7.9 8-14.4 15.7-17.6l74.4-31.4c0 0 0.9-9.6-16.1-15.8-17.1-6.3-13.4-25.3-13.4-25.3 0 0 23.3 10.2 57.5 26.4 19.5 9.2 30.7 26 36.7 38.6l-18.9 25.7c-45.9 14.6-92.6 18-139.8 13.3z"/><path class="U" d="m2590.7 1764.4c0 0-27.4 63-29.2 96.1-1.9 33.1-9 54.5 29.2 61.2 38.3 6.6 70.5-12.4 87.9-45.4 0 0 27.4-50.7 21.2-71.5-6.1-20.8-109.1-40.4-109.1-40.4z"/><path class="V" d="m2665.6 1852.7l-2.2-1c-2.8-1.2-4-4.5-2.6-7.2 5.4-10.4 15.9-34.3 2.4-39.9-17.5-7.1-86.9-21.3-101.8-45.9-14.4-23.6-1.7-54.1 17.5-62.8 1.3-0.6 2.8-0.1 3.4 1.1l1.6 3c1.1 2.1 4.2 1.8 4.8-0.5 0.6-2.1 3.5-2.5 4.7-0.6 4.6 7.3 17 19.3 50.2 25.4 47.2 8.7 78.3 27.8 79.1 60.4 0.1 2 2.3 3.2 4 2.1 3.5-2.1 9.1-3.1 16.6 3.2 12.9 10.9 7.6 39.1-20.8 62.4-1.3 1.1-1.3 3.2 0.1 4.1 5.2 3.4 12.9 11.3-7 22-20.6 11-36 10.1-41.9 9.1-1.4-0.3-2.4-1.7-2.1-3.1l6.3-28.7c0.4-1.6-0.8-3.1-2.5-3.1 0 0-9.8 0-9.8 0z"/><path class="W" d="m2664.4 1858.7c0 0 10.4-40.2 28.5-29 18 11.3-9.4 45.1-23.9 46.6z"/><path class="X" d="m2977.2 1835.9c0 0-42.2-94.4 52.7-72.5 0 0 69.8 4 72.2 47.5 0 0 29.7 19.6 7.9 57.3 0 0 88.3-34.1 126.8 43.2 38.4 77.4 3.1 120-34 131.1 0 0 30 15.1 15.8 49.1-14.2 34.1-86.2 58.1-128.7 16.7 0 0-121 16-118.6-69.5 0 0-56.3-36.4 2.9-107 59.1-70.6 3-95.9 3-95.9z"/><path class="Y" d="m2959.9 2025.1c20.1-6.4 79-18.6 136 32.3 9.7 8.7 13.8 22 10.6 34.5-14.2 55.8-51.4 220.5-15.3 290.9 0 0-60.4 68.8-128.4 15.3 0 0-32.2-130.7-72.6-187.7-27.8-39.3 41-150 58.5-176.7 2.6-4.1 6.5-7.1 11.2-8.6z"/><path class="Z" d="m3014.1 1913.9c0 0 31.3 84.3 34.2 121.7 0 0-32.9 15.6-64.6-9.3 0 0-4.6-84.7-9.6-99.8z"/><path class="a0" d="m2970.6 1798.9c0 0-76.7 111-29.3 142.2 47.4 31.1 102-47.8 102-47.8 0 0 17.2-60.4-2.2-80.5-19.3-20-70.5-13.9-70.5-13.9z"/><path class="a1" d="m3006.4 1772.1c0 0-35.9 9.1-40.7 25.5-4.7 16.4 51.7 30.6 67.4 31.1l13.7 65.6c0 0 36.5-62.5 21.1-98-15.4-35.5-61.5-24.2-61.5-24.2z"/><path class="a2" d="m3027.9 1885.4c0 0 30-35.8 42.5-12.9 12.5 22.8-26.8 40.8-40.7 29.7z"/><path class="a3" d="m2888.9 2674.8c0.3 5.9-9.4 53.3-14.6 78.6-2.2 10.2-0.4 20.8 4.9 29.7l202.4 328.5c2.5 4 4.3 8.3 5.4 12.8 3.9 15.6 12 53.6 8.6 88.3l-9.8 21.4 43.9-10.7 7.7-118.6-12.6-7.4c-10.9-6.4-19.5-16.1-24.5-27.7-18.5-43-64.5-152.5-76.8-206-13.9-60.8-82.5-109.3-82.5-109.3l11.5-28.3z"/><path class="a4" d="m3178.1 3181.8c0 0-24.5-37.3-27.5-52-3-14.6-11.3-40.5-25.8-32.4 0 0-5.8 71.5-2.9 99.3 2.8 27.9-31.1 27.5-31.1 27.5 0 0-9.4 1.5-16.1 8.5-4.7 4.8-1.1 12.9 5.5 13.2 11.1 0.6 28.8 0.5 47.2-3.4 6.5-1.4 11.2-6.9 11.5-13.5l3.5-82.3 30.7 37.5z"/><path class="a5" d="m3007.5 2725.7c0 0 11.7 296.6 13.3 338.7 1.7 42.1-4.4 135.6-46.2 164.2l18.6 13.3c0 0 22.6-19.9 44.5-57.8 24.5-42.6 32-50.4 32-50.4l-8.6-17c-3.8-7.5-5-15.9-3.5-24.2 8.4-44.3 36.5-191.7 44.3-223.5 9.2-37.5 9.1-87.4-25.7-128.6-34.8-41.2-68.7-14.7-68.7-14.7z"/><path class="a6" d="m3055 3254.3c1.3 0 2.4-0.9 2.6-2.2 1.3-10 6.5-49.7 11.1-60.1 5.3-11.8 22.4-61.6-1.1-65.4 0 0-56.8 86-67.8 97.6-11 11.7-25.2 4.4-25.2 4.4 0 0-10.8 3.4-18.9 14-3.8 5.1-0.1 12.4 6.3 12.3l39.2-0.2c11.4-0.1 21.5-7.2 25.6-17.8 6.6-17.4 18-42.8 31.7-54.3l-6.1 68.9c-0.1 1.5 1.1 2.8 2.6 2.8z"/><path class="a7" d="m2953 2366.2c0 0 9.3 28-3.5 74.6l-79.5 295.4c-1.3 4.7 1.3 9.5 5.9 11 25.3 8.7 108.5 32.9 221.4 23.3 5.7-0.5 10.4-4.6 11.5-10.2 6.9-33.7 30.5-148.4 35.4-172 18.5-89.9 39.2-186.8-59.7-243.6-44.8 20-86.7 32.1-131.5 21.5z"/><path class="a8" d="m3104.1 2068.4c0 0 97.1 78.1 122.6 186.5 25.5 108.4-138 122.6-138 122.6 0 0-22.7-24.5-48.9-15.2-26.3 9.3-2.8-43.3 28.1-43.7 30.9-0.3 17 24.3 60.4 3.8 42.2-19.9 67.5-80-42.5-168.6-6.4-5.1-11.5-11.7-14.6-19.3-22-52.7-5.8-87.8 32.9-66.1z"/></svg>