<svg xmlns="http://www.w3.org/2000/svg" version="1.2" viewBox="0 0 865 865">
  <defs>
    <clipPath id="cp1" clipPathUnits="userSpaceOnUse">
      <path d="M742 705a394 394 0 1 0-600 0z"/>
    </clipPath>
    <clipPath id="cp2" clipPathUnits="userSpaceOnUse">
      <path d="M742 705a394 394 0 1 0-600 0z"/>
    </clipPath>
    <clipPath id="cp3" clipPathUnits="userSpaceOnUse">
      <path d="M271 626c-35-62-12-148-30-199-9-26-27-39-47-41-15 2-30 10-39 23-24 32-26 74 7 138 31 61 72 100 77 104 21-3 32-25 32-25z"/>
    </clipPath>
    <clipPath id="cp4" clipPathUnits="userSpaceOnUse">
      <path d="m776 669 22-9-1-10c-2-36-11-70-18-72s-122-5-151-5c8-15 19-37 19-42 0-7-7-15-17-14-8 2-63 46-81 61-44 3-100 7-142 7-79 0-246-14-274-11-19 2-44 20-39 89 1 13 2 24 5 33h12l-11 7c12 40 34 56 45 56 16 0 167-27 214-30 46-3 226 3 258 4s159 3 171 0c10-3 11-31 10-60z"/>
    </clipPath>
  </defs>
  <style>
    .a{fill:#faddb3}.b{fill:#fef3df}.c{fill:#70a883}.d{fill:#4b6661}.e{fill:#364945}.g{fill:#fff}.i{fill:#a23749}.k{fill:#461101}.l{fill:#833f32}.o{fill:#fed190}.p{fill:#d86955}.q{fill:none;stroke:#bc5446;stroke-linecap:round;stroke-linejoin:round}.r{fill:#ce4e4e}.s{fill:#4c1405}.t{fill:#350f07}.y{fill:#995341}
  </style>
  <path d="M742 705a394 394 0 1 0-600 0z" class="a"/>
  <g clip-path="url(#cp1)">
    <path d="M183 257s-5-31 25-29c0 0-1-29 21-38 23-10 36 8 36 8s19-16 39-11 23 27 23 27 15-9 34-1c18 9 16 28 16 28s30-5 34 16zM616 257s-4-31 26-29c0 0-2-29 21-38 22-10 36 8 36 8s18-16 38-11 23 27 23 27 16-9 34-1c18 9 16 28 16 28s30-5 34 16zM634 473s-3-20 15-18c0 0-1-18 13-24s23 5 23 5 12-10 24-7 14 17 14 17 10-6 21 0c12 5 10 17 10 17s19-3 22 10z" class="b"/>
  </g>
  <g clip-path="url(#cp2)">
    <path d="m524 685 115-284 116 284z" class="c"/>
    <path d="m673 607-5-10-10 10-4-65-20-1-3 38-8-4-1 7 8 11-2 37-13-7-2 7 13 18-4 57h42l-5-75zM93 674l180-444 180 444z" class="d"/>
    <path d="m325 551-7-14-17 15-6-102-30-2-4 60-14-6-2 11 14 17-5 58-20-12-2 12 20 29-7 88h66l-7-117z" class="e"/>
    <path d="m240 669 208-512 207 512z" style="fill:#629b78"/>
    <path d="m507 528-7-17-20 17-7-117-35-3-5 69-15-6-2 12 15 21-5 66-23-13-3 13 23 33-7 102h76l-9-135z" class="d"/>
    <path d="m-94 669 207-511 208 511z" class="c"/>
    <path d="m173 528-8-17-19 18-8-117-34-3-5 69-15-7-3 13 16 20-5 67-23-14-3 14 23 32-8 102h76l-9-135zM640 674l177-436 177 436z" class="d"/>
    <path d="m867 554-6-15-17 16-6-101-29-2-5 59-13-6-2 11 13 17-4 57-19-12-3 12 20 28-7 87h65l-7-115z" class="e"/>
  </g>
  <path d="M501 358s-3-18 15-17c0 1-1-17 12-22 13-6 21 5 21 5s11-9 22-7c12 3 13 16 13 16 1 0 10-5 20 0 11 5 10 16 10 16s17-3 19 9zM118 333s-2-14 12-13c0 0-1-13 9-17 10-5 16 3 16 3s8-7 17-5 11 13 11 13 7-5 15-1 7 13 7 13 13-3 15 7z" class="g"/>
  <path d="M766 236s-33 14-62 14-52-20-92-19c-41 2-66 38-66 38V143s25-36 66-37c40-1 63 19 92 19s62-14 62-14z" style="fill:#fcf3e2"/>
  <path d="M604 107c-36 5-58 36-58 36v126s22-32 58-37zM695 250h9c29 0 62-14 62-14V111s-33 14-62 14l-9-1zM666 192l19-12-4-3-1-1 5-11-10 2-2-1-1-5-9 8c-1 0-3 0-2-2l5-19-6 3s-1 1-2-1l-5-12-7 11c-1 2-1 1-2 1l-5-4a2568 2568 0 0 0-1 21l-7-9-2 4-2 1-9-3a373 373 0 0 0 1 12l-4 2a3222 3222 0 0 0 17 17l-3 5 16-1a1246 1246 0 0 0 0 18h3l1-16a1433 1433 0 0 1 18 3l-2-6 1-2z" class="i"/>
  <g style="opacity:.4;mix-blend-mode:multiply">
    <path d="M630 233c30 3 50 17 74 17 29 0 62-14 62-14V111s-33 14-62 14l-15-2z" style="fill:#ce91ce"/>
  </g>
  <path d="M544 679c-2 0-4-2-4-4V130c0-2 2-4 4-4s4 2 4 4v545c0 2-2 4-4 4z" class="k"/>
  <path d="M555 117a11 11 0 1 1-22 0 11 11 0 0 1 22 0z" class="k"/>
  <path d="M553 132c0 1-1 3-3 3h-12c-2 0-4-1-4-3s2-4 4-4h12c2 0 3 2 3 4z" class="l"/>
  <path d="M230 652s-45-41-78-105-31-106-7-138 79-34 96 18c18 51-5 137 30 199 0 0-14 28-41 26z" style="fill:#e28160"/>
  <path d="M271 626c-35-62-12-148-30-199-9-27-27-39-47-41-15 2-30 10-39 23-24 32-26 74 7 138 31 61 72 100 77 104 21-3 32-25 32-25z" style="fill:#fe9f6f"/>
  <g clip-path="url(#cp3)">
    <path d="M153 585c1-18 6-34 10-51l13-53 27-102c1-4-5-5-6-2l-28 106-12 53c-4 16-9 32-10 49 0 3 6 3 6 0zM124 555c2-17 6-34 11-51l12-52 27-103c1-3-5-5-6-1l-28 106-12 52c-4 16-9 32-10 49 0 4 6 4 6 0zM187 605c1-17 6-34 10-51l13-52 27-103c1-3-5-5-6-1l-28 106-13 53c-4 16-8 32-9 48 0 4 6 4 6 0zM212 646c1-17 6-34 10-51l13-52 26-103c1-4-4-5-5-1l-28 106-13 52c-4 16-8 32-9 49-1 4 5 4 6 0zM237 687c1-17 6-34 10-51l13-52 26-103c1-4-4-5-5-1l-28 106-13 52c-4 16-8 32-9 49-1 4 5 4 6 0z" class="o"/>
    <path d="M295 546c-9-12-19-23-30-33l-38-38-83-80c-3-2-7 2-4 5l77 74 36 36c13 12 26 24 37 39 2 3 7 0 5-3zM304 506c-9-13-19-23-30-33l-38-39-83-79c-3-3-7 2-4 4l77 74 37 37c12 12 25 24 36 38 2 4 7 1 5-2zM277 581c-9-12-19-23-30-33l-38-38-83-79c-3-3-7 1-4 4l77 74 36 36c13 13 26 25 37 39 2 3 7 0 5-3zM277 629c-9-12-19-23-30-33l-38-38-83-80c-3-2-7 2-4 5l77 74 37 36c12 12 25 24 36 39 2 3 7 0 5-3zM277 677c-9-12-19-23-30-33l-38-38-83-80c-3-2-7 2-4 4l77 74 37 37c12 12 26 24 36 39 2 3 8 0 5-3z" class="o"/>
  </g>
  <path d="M324 384s-24-11-33 2c-9 14 11 40 11 40s-4 22 4 49c0 0-12 29-32 45s-62 51-59 98 26 83 33 83h200s15-7 13-17c-2-9-30-16-30-16s62-68 39-177c0 0 12-17 19-37 10-30-7-69-19-84 0 0-8-30-22-32-15-1-15 15-15 15s-54-14-109 31z" class="p"/>
  <path d="M333 483s15 21 57 21" class="q"/>
  <path d="M362 504s28 8 69-2M297 390s15-1 24 10M433 353s14 4 21 10M276 577s69 18 63 90c0 0 34 4 34 17 1 13-11 17-11 17M342 681s13 8 7 20" class="q"/>
  <path d="M356 677s15 7 9 22M427 681s13 8 7 20M441 677s15 7 9 22" class="q"/>
  <path d="M377 455c0 12-12 22-26 22-15 0-27-10-27-22 0-13 12-22 27-22 14 0 26 9 26 22zM470 398c-14 6-21 20-16 31 4 11 19 15 33 9l5-2c0-14-3-28-8-41-5 0-9 1-14 3z" class="r"/>
  <path d="M361 424c2 5 1 10-3 12-4 1-8-2-10-7s0-10 3-11c4-1 8 1 10 6z" class="s"/>
  <path d="m359 420-8 13c2 3 5 4 7 3 4-2 5-7 3-12l-2-4z" class="t"/>
  <path d="M355 427c0 1 0 3-2 3l-2-2c-1-2 0-4 1-4l3 2z" class="a"/>
  <path d="M459 400c2 5 0 10-3 11-4 2-8-1-10-6s-1-10 3-11c4-2 8 1 10 6z" class="s"/>
  <path d="m456 396-8 13c2 2 5 3 8 2s5-6 3-11l-3-4z" class="t"/>
  <path d="M452 402c1 2 0 3-1 4l-3-3 1-4c1 0 3 1 3 3z" class="a"/>
  <path d="M406 404c-15 2-25 11-25 17 0 7 25 17 36 13s20-18 18-24c-1-7-13-9-29-6z" style="fill:#7b3724"/>
  <path d="M395 412c-6 2-9 9-6 11s26-3 25-9c-1-7-11-6-19-2z" style="fill:#843e2d"/>
  <path d="M431 444c-9 0-16-9-16-9s1 9-7 13l-5 2c3 6 8 18 11 19s22-4 23-8l-3-17h-3z" class="a"/>
  <path d="m415 435 11 32" style="fill:none;stroke:#ffa26f;stroke-miterlimit:10;stroke-width:2"/>
  <path d="M381 441c6 11 20 11 27 7 8-4 7-13 7-13s7 9 16 9 18-6 18-15" style="fill:none;stroke:#7b3724;stroke-linecap:round;stroke-linejoin:round;stroke-width:2"/>
  <path d="m776 669 22-9-1-10c-2-36-11-70-18-72s-122-5-151-5c8-15 18-37 18-42 1-7-6-15-16-14-8 2-63 46-81 61-44 3-100 7-142 7-79 0-246-14-274-11-19 2-44 20-39 89 1 13 2 23 5 33h12l-11 7c12 40 34 56 45 56 16 0 167-27 214-30 46-3 226 3 258 4 32 0 159 3 171 0 9-3 11-31 10-60z" class="l"/>
  <g clip-path="url(#cp4)">
    <path d="M149 568c27-7 55-2 82 3 26 4 51 10 76 18 25 9 49 19 75 27 25 8 50 13 76 14 53 2 106-11 155-29 23-8 46-18 68-28 23-11 49-23 75-22 2 0 2-3 0-3-22-1-42 7-62 15-24 11-47 22-72 32-52 20-107 33-164 32-57-2-107-27-160-44-25-8-51-13-76-17s-50-7-74-1c-2 0-1 3 1 3zM145 776c17 8 38-4 54-10 12-5 26-8 39-12l47-15c62-20 122-43 186-57 62-13 126-11 187-30 28-9 55-21 82-33 25-12 49-28 76-35l15-3c2 0 2-3 0-3-25 2-48 15-70 26-27 15-55 27-83 38-60 23-123 22-186 33s-124 33-185 54a2218 2218 0 0 1-123 40c-11 4-25 10-37 4-2-1-3 2-2 3zM816 656c-28 9-57 13-86 16-30 3-60 8-90 13-28 4-55 7-82 7-6 0-42-1-38 12 1 5 10 6 13 7 12 2 24 0 35 0l99-6c61-4 124-2 184 11 2 1 3-2 1-3-51-11-105-13-158-12-29 0-57 2-86 4l-43 3c-13 1-25 2-37-2-9-2 0-8 4-9 6-2 12-2 17-2h29c26 0 52-6 78-10l84-11c26-3 52-7 76-15 2-1 1-4-1-3zM112 608c0 15 32 17 42 18 32 5 65 6 98 6l85 1 30 2c9 1 19 2 27 7 13 7 5 18-4 24-17 8-38 10-56 13-31 5-64 7-95 12-58 8-109 34-157 66-2 1-1 3 1 2 50-33 101-57 160-66l96-12c17-3 35-5 50-12 9-4 21-15 12-25-10-11-28-12-42-13-22-2-44-1-66-1a1546 1546 0 0 1-156-10c-6-1-22-4-22-12 0-2-3-2-3 0z" class="y"/>
    <path d="M145 660c31 0 62-2 93-5 13-2 26-3 39-1 11 2 1 7-4 9l-17 4c-59 10-122 13-178 38-2 1 0 3 2 3 39-18 83-24 125-30l52-8c11-2 24-4 31-14l-1-2c-18-7-39-4-57-1-28 3-57 4-85 4-2 0-2 3 0 3zM559 545c10 12 33 10 46 10 20 0 38-5 48-23 1-2-2-3-3-2-9 19-27 22-46 22-13 0-34 1-43-9-1-1-3 1-2 2zM527 569c11 6 20 19 2 25-10 3-21 3-32 4-19 0-38-2-56-5-34-6-70-21-87-53-1-2-3 0-2 1 19 39 66 53 106 58 24 2 51 4 75-3 19-6 7-23-5-30-2 0-3 2-1 3z" class="y"/>
  </g>
  <path d="m163 728 25-9-25-3zM143 593l45 8-40 3z" class="k"/>
  <path d="M124 576c-16 6-34 28-30 87 1 13 2 24 5 33h12l-10 7c10 38 31 54 43 56 40-8 29-128 9-162-9-15-20-20-29-21z" style="fill:#fb9167"/>
  <path d="M120 589c17-1 24 29 27 41 7 27 8 59 5 87-2 9-4 21-13 25-7 2-12-7-15-12-9-18-12-40-14-59s-5-45 5-61 18 15 19 20c4 17 6 35 7 52 1 13 4 31-2 42-4 7-11-14-11-16a220 220 0 0 1-10-74c1-1 2-8 4-7 4 2 5 9 6 13 4 12 6 25 7 37l1 17-1 6-1 3c0 2 0 0 1 1a269 269 0 0 1-6-32l-2-25c0-3-5-3-5 0l4 33c0 6 0 25 8 28 11 5 2-55 1-60-1-6-3-23-12-25-7-2-9 8-9 13-2 14 0 29 2 43s5 28 11 41c2 5 7 14 14 9s6-21 6-28c0-17-2-34-5-51-2-12-3-26-8-37-3-7-12-16-20-9-12 11-10 33-10 48 1 19 4 39 9 58 3 12 7 28 18 35 8 6 18-4 21-11 8-21 6-46 5-67-2-22-5-44-14-63-4-9-12-20-23-19-2 0-2 4 0 4z" class="o"/>
  <path d="M301 559c-2-9 15-26 46-20 30 7 48 61 27 74-21 14-36-11-42-25-10-24-29-17-31-29z" class="p"/>
  <path d="M355 590s10 15 7 27M371 585s9 5 11 17M294 531s-2 27 11 34c14 7 19 9 25 20M324 538s46-9 58 44" class="q"/>
  <path d="M436 549c-2-8 15-26 46-20 30 7 48 61 27 74-21 14-36-11-42-25-10-24-29-17-31-29z" class="p"/>
  <path d="M490 581s10 14 7 26M506 575s9 5 11 17" class="q"/>
</svg>