<svg version="1.2" xmlns="http://www.w3.org/2000/svg" viewBox="0 0 3710 3710" width="3710" height="3710"><defs><linearGradient id="P" gradientUnits="userSpaceOnUse"/><linearGradient id="g1" x2="1" href="#P" gradientTransform="matrix(-1953.886,-2079.943,2154.498,-2023.923,3490.655,3663.152)"><stop stop-color="#dae3fe"/><stop offset="1" stop-color="#e9effd"/></linearGradient><linearGradient id="g2" x2="1" href="#P" gradientTransform="matrix(-30.769,-609.222,743.699,-37.561,2111.498,2832.606)"><stop stop-color="#09005d"/><stop offset="1" stop-color="#1a0f91"/></linearGradient><linearGradient id="g3" x2="1" href="#P" gradientTransform="matrix(2435.326,0,0,1394.475,822.682,1555.812)"><stop stop-color="#09005d"/><stop offset="1" stop-color="#1a0f91"/></linearGradient><linearGradient id="g4" x2="1" href="#P" gradientTransform="matrix(-185.91,2399.311,-4309.614,-333.93,2136.609,141.161)"><stop stop-color="#53d8ff"/><stop offset="1" stop-color="#3840f7"/></linearGradient><linearGradient id="g5" x2="1" href="#P" gradientTransform="matrix(-283.074,621.53,-1134.534,-516.719,2113.413,2602.722)"><stop stop-color="#09005d"/><stop offset="1" stop-color="#1a0f91"/></linearGradient><linearGradient id="g6" x2="1" href="#P" gradientTransform="matrix(-231.512,2897.411,-5189.616,-414.666,2074.33,961.774)"><stop stop-color="#ff928e"/><stop offset="1" stop-color="#fe7062"/></linearGradient><linearGradient id="g7" x2="1" href="#P" gradientTransform="matrix(-61.198,843.163,-5561.726,-403.675,2098.473,152.923)"><stop stop-color="#ff928e"/><stop offset="1" stop-color="#fe7062"/></linearGradient><linearGradient id="g8" x2="1" href="#P" gradientTransform="matrix(-28.062,1293.2,-2124.499,-46.101,1415.485,1652.291)"><stop stop-color="#09005d"/><stop offset="1" stop-color="#1a0f91"/></linearGradient><linearGradient id="g9" x2="1" href="#P" gradientTransform="matrix(-416.254,2551.318,-3812.616,-622.037,1432.662,1969.778)"><stop stop-color="#ff928e"/><stop offset="1" stop-color="#fe7062"/></linearGradient><linearGradient id="g10" x2="1" href="#P" gradientTransform="matrix(25.877,-905.694,12728.2,363.667,1400.143,2668.29)"><stop stop-color="#09005d"/><stop offset="1" stop-color="#1a0f91"/></linearGradient><linearGradient id="g11" x2="1" href="#P" gradientTransform="matrix(-47.597,802.361,-5381.365,-319.231,1446.655,1083.327)"><stop stop-color="#ff928e"/><stop offset="1" stop-color="#fe7062"/></linearGradient><linearGradient id="g12" x2="1" href="#P" gradientTransform="matrix(777.782,293.74,-569.15,1507.029,2932.745,2811.511)"><stop stop-color="#4f52ff"/><stop offset="1" stop-color="#4042e2"/></linearGradient><linearGradient id="g13" x2="1" href="#P" gradientTransform="matrix(777.747,293.726,-254.644,674.263,3038.739,2530.875)"><stop stop-color="#4f52ff"/><stop offset="1" stop-color="#4042e2"/></linearGradient><linearGradient id="g14" x2="1" href="#P" gradientTransform="matrix(-188.602,1432.95,-1787.561,-235.276,790.229,682.339)"><stop stop-color="#4f52ff"/><stop offset="1" stop-color="#4042e2"/></linearGradient><linearGradient id="g15" x2="1" href="#P" gradientTransform="matrix(-188.616,1433.051,-1740.625,-229.098,1037.348,714.873)"><stop stop-color="#4f52ff"/><stop offset="1" stop-color="#4042e2"/></linearGradient><linearGradient id="g16" x2="1" href="#P" gradientTransform="matrix(1413.504,-26.717,18.786,993.866,703.019,2427.188)"><stop stop-color="#4f52ff"/><stop offset="1" stop-color="#4042e2"/></linearGradient><linearGradient id="g17" x2="1" href="#P" gradientTransform="matrix(1413.469,-26.717,24.497,1296.019,705.299,2547.448)"><stop stop-color="#4f52ff"/><stop offset="1" stop-color="#4042e2"/></linearGradient><linearGradient id="g18" x2="1" href="#P" gradientTransform="matrix(1413.451,-26.716,44.374,2347.673,700.134,2273.796)"><stop stop-color="#4f52ff"/><stop offset="1" stop-color="#4042e2"/></linearGradient><linearGradient id="g19" x2="1" href="#P" gradientTransform="matrix(1413.501,-26.717,16.899,894.071,695.384,2022.454)"><stop stop-color="#4f52ff"/><stop offset="1" stop-color="#4042e2"/></linearGradient><linearGradient id="g20" x2="1" href="#P" gradientTransform="matrix(1413.466,-26.717,25.324,1339.768,693.66,1930.323)"><stop stop-color="#4f52ff"/><stop offset="1" stop-color="#4042e2"/></linearGradient><linearGradient id="g21" x2="1" href="#P" gradientTransform="matrix(1413.477,-26.717,26.717,1413.472,699.423,2236.124)"><stop stop-color="#4f52ff"/><stop offset="1" stop-color="#4042e2"/></linearGradient><linearGradient id="g22" x2="1" href="#P" gradientTransform="matrix(1413.438,-26.716,48.803,2581.946,694.696,1983.682)"><stop stop-color="#4f52ff"/><stop offset="1" stop-color="#4042e2"/></linearGradient><linearGradient id="g23" x2="1" href="#P" gradientTransform="matrix(1413.514,-26.717,22.057,1166.954,697.985,2161.255)"><stop stop-color="#4f52ff"/><stop offset="1" stop-color="#4042e2"/></linearGradient><linearGradient id="g24" x2="1" href="#P" gradientTransform="matrix(1413.492,-26.717,9.941,525.938,691.718,1828.247)"><stop stop-color="#4f52ff"/><stop offset="1" stop-color="#4042e2"/></linearGradient><linearGradient id="g25" x2="1" href="#P" gradientTransform="matrix(1413.463,-26.717,24.703,1306.915,691.714,1826.868)"><stop stop-color="#4f52ff"/><stop offset="1" stop-color="#4042e2"/></linearGradient><linearGradient id="g26" x2="1" href="#P" gradientTransform="matrix(1413.481,-26.717,26.716,1413.47,695.59,2033.032)"><stop stop-color="#4f52ff"/><stop offset="1" stop-color="#4042e2"/></linearGradient><linearGradient id="g27" x2="1" href="#P" gradientTransform="matrix(650.674,0,0,1014.632,1931.208,2530.382)"><stop stop-color="#09005d"/><stop offset="1" stop-color="#1a0f91"/></linearGradient><linearGradient id="g28" x2="1" href="#P" gradientTransform="matrix(-235.02,2273.034,-1686.9,-174.416,2310.345,1948.536)"><stop stop-color="#ff928e"/><stop offset="1" stop-color="#fe7062"/></linearGradient><linearGradient id="g29" x2="1" href="#P" gradientTransform="matrix(-35.696,1749.134,-8702.49,-177.596,2278.143,1471.937)"><stop stop-color="#ff928e"/><stop offset="1" stop-color="#fe7062"/></linearGradient></defs><style>.a{fill:url(#g1)}.b{fill:url(#g2)}.c{fill:url(#g3)}.d{fill:url(#g4)}.e{opacity:.65;fill:#fff}.f{fill:url(#g5)}.g{fill:url(#g6)}.h{fill:url(#g7)}.i{opacity:.74;fill:#fff}.j{opacity:.42;fill:#fff}.k{fill:url(#g8)}.l{fill:url(#g9)}.m{fill:url(#g10)}.n{fill:url(#g11)}.o{fill:#fff}.p{fill:#7d97f4}.q{fill:#91b3fa}.r{fill:url(#g12)}.s{fill:url(#g13)}.t{fill:url(#g14)}.u{fill:url(#g15)}.v{fill:url(#g16)}.w{fill:url(#g17)}.x{fill:url(#g18)}.y{fill:url(#g19)}.z{fill:url(#g20)}.A{fill:url(#g21)}.B{fill:url(#g22)}.C{fill:url(#g23)}.D{fill:url(#g24)}.E{fill:url(#g25)}.F{fill:url(#g26)}.G{fill:url(#g27)}.H{fill:url(#g28)}.I{opacity:.5;fill:#fff}.J{fill:url(#g29)}</style><path class="a" d="m2904 2828.7c-72.1 74.3-136.7 118-186.1 151-481.9 321.8-1032.8 229.1-1203.1 197.4-274.8-51.2-506.8-87.3-706-267.3-452.9-409.2-430.9-1262.6-84.8-1791.4 41-62.6 386.5-574.8 938.6-647 13.5-1.7 23.6-2.7 32.4-3.7 85.4-9 614.6-56.7 1046.2 304.8 61.7 51.8 161.2 145.1 253.3 287.5 337.1 520.6 338.2 1326.8-90.5 1768.7z"/><path fill-rule="evenodd" class="b" d="m1854.4 2141l-51.1 458.3h592.9l-77.3-458.3z"/><path class="c" d="m822.7 979v1080.1c0 88.9 70.8 161.6 159.6 163.8 394.5 10.2 1774.4 34.9 2149.9 29.4 64.6-1 116.8-52.7 118.7-117.2 7.3-250.9 19-854.3-24.5-1134.4-9.2-59-59-103.2-118.6-105.1-330.6-10.5-1793.3-44.1-2168.7-35.7-64.7 1.5-116.4 54.4-116.4 119.1z"/><path class="d" d="m890.5 973.8v1026.2c0 51.8 41.6 94.1 93.5 94.9l2094.2 25.8c51.4 0.8 93.6-40.6 93.8-92l3.5-1017c0.1-36.8-29.2-66.9-66-67.8l-2144-43.3c-41.2-1-75 32-75 73.2z"/><path class="e" d="m3187.7 2163.3q0 0 0 0l-2297.3-39.2c-1.9 0-3.3-1.5-3.3-3.4 0-1.9 1.5-3.3 3.4-3.3l2297.3 39.1c1.8 0.1 3.3 1.6 3.3 3.5 0 1.8-1.5 3.3-3.4 3.3z"/><path class="f" d="m2523.9 2693.1h-867.8c-23.5 0-41.2-16.8-36.7-34.8l11.1-44.1c3.4-13.2 18-22.9 35.3-23.5l836.5-26.1c18.1-0.5 34.1 9.1 38 22.8l20.1 70.2c5.2 18.2-12.6 35.5-36.5 35.5z"/><path class="g" d="m890.5 973.8v1026.2c0 51.8 41.6 94.1 93.5 94.9l2094.2 25.8c51.4 0.8 93.6-40.6 93.8-92l3.5-1017c0.1-36.8-29.2-66.9-66-67.8l-2144-43.3c-41.2-1-75 32-75 73.2z"/><path class="h" d="m3175.1 1130.6l0.4-119.1c0.1-36.8-29.2-66.8-66-67.7l-2143.5-43.3c-41.1-1-74.4 32.1-74.4 73.3v156.8z"/><path fill-rule="evenodd" class="i" d="m1028.4 1064.7c-13.6 0-24.6-11-24.6-24.6 0-13.6 11-24.5 24.6-24.5 13.5 0 24.5 10.9 24.5 24.5 0 13.6-11 24.6-24.5 24.6z"/><path fill-rule="evenodd" class="i" d="m1113.4 1064.7c-13.6 0-24.5-11-24.5-24.6 0-13.6 10.9-24.5 24.5-24.5 13.6 0 24.6 10.9 24.6 24.5 0 13.6-11 24.6-24.6 24.6z"/><path fill-rule="evenodd" class="i" d="m1195.8 1064.7c-13.5 0-24.5-11-24.5-24.6 0-13.6 11-24.5 24.5-24.5 13.6 0 24.6 10.9 24.6 24.5 0 13.6-11 24.6-24.6 24.6z"/><path class="j" d="m3047.8 2064.6l-2013-29c-30.6-0.4-55.2-25.4-55.2-56v-201.4c0-28.5 23.3-51.5 51.7-51.2l2017.8 23c23.2 0.2 41.8 19.1 41.8 42.3v229.9c0 23.7-19.4 42.8-43.1 42.4z"/><path class="j" d="m2323.1 1701.9l-1286.8-18.6c-31.4-0.4-56.7-26-56.7-57.4v-398.4c0-22.5 18.3-40.7 40.8-40.7h1294.1c25.9 0 46.8 20.9 46.8 46.7v430.7c0 21-17.2 38-38.2 37.7z"/><path class="j" d="m3078.4 1702.4h-670.7c-6.4 0-11.5-5.2-11.5-11.5v-489.8c0-7.9 6.4-14.3 14.3-14.3h671.8c4.7 0 8.6 3.8 8.6 8.6v494.5c0 6.9-5.6 12.5-12.5 12.5z"/><path class="k" d="m582.3 2657.2c0 16.3 13.3 29.7 29.7 29.7h1605.8c16.3 0 29.7-13.4 29.7-29.7l13.3-922.8c0-16.3-19.2-48.2-54.4-45.8l-1569.4-40.6c-20.5-0.5-40.3 7.4-54.8 21.8-14.5 14.5-22.5 34.3-22 54.7z"/><path class="l" d="m611.6 2628.7c0 15.5 12.6 28.1 28.1 28.1h1539.3c15.5 0 28.1-12.6 28.1-28.1l12.6-837.7c-1.4-50.4-45.6-68.5-72.4-67.5l-1504.1-40.3c-14.4-0.4-28.3 5.2-38.5 15.3-10.2 10.2-15.9 24.1-15.5 38.5z"/><path class="m" d="m457.6 2763.5h1881.9c3.1 0 5.7-2.6 5.7-5.7v-69.8c0-3.1-2.6-5.6-5.7-5.6h-1881.9c-3.1 0-5.6 2.5-5.6 5.6v69.8c0 3.1 2.5 5.7 5.6 5.7z"/><path class="n" d="m2218.5 1875.5l1.2-84c-1.4-50.4-45.6-68.8-72.4-67.7l-1504.1-40.5c-14.4-0.4-28.3 5.1-38.5 15.3-10.2 10.2-15.8 24.6-15.5 39l3.5 137.9z"/><path class="o" d="m2190.5 2230.8q0 0-0.1 0c-2.2-0.1-4.1-1.9-4-4.2l1-68c0-2.2 1.8-4 4.1-4q0 0 0 0c2.3 0 4.1 1.9 4.1 4.2l-1 67.9c0 2.3-1.9 4.1-4.1 4.1z"/><path class="j" d="m2192.9 2064.3q0 0 0 0c-2.3-0.1-4.1-1.9-4.1-4.2l3.8-260.2c0-15.5-4.7-27.8-13.9-36.6-17.1-16.4-44.4-15.6-45.5-15.5l-480.7-12.9c-2.3-0.1-4.1-2-4.1-4.3 0.1-2.2 1.9-4.2 4.3-4l480.4 12.9c3-0.1 32-0.6 51.3 17.8 10.8 10.4 16.4 24.8 16.5 42.6l-3.8 260.3c-0.1 2.3-1.9 4.1-4.2 4.1z"/><path class="j" d="m1565.3 2302.3h-896.7c-6.2 0-11.2-5-11.2-11.2v-363.5c0-6.2 5-11.2 11.2-11.2h896.7c6.1 0 11.1 5 11.1 11.2v363.5c0 6.2-5 11.2-11.1 11.2z"/><path class="j" d="m2165.9 2302.3h-533.5c-4.4 0-8-3.6-8-8v-369.9c0-4.4 3.6-8 8-8h533.5c4.4 0 8 3.6 8 8v369.9c0 4.4-3.6 8-8 8z"/><path class="j" d="m2164.1 2620.3h-1496.9c-5.4 0-9.8-4.4-9.8-9.8v-242.3c0-5.4 4.4-9.8 9.8-9.8h1496.9c5.4 0 9.8 4.4 9.8 9.8v242.3c0 5.4-4.4 9.8-9.8 9.8z"/><path fill-rule="evenodd" class="i" d="m688.3 1779.9c-1.7 10.5-11.6 17.7-22.2 15.9-10.5-1.7-17.6-11.6-15.9-22.1 1.7-10.6 11.6-17.7 22.2-16 10.5 1.7 17.6 11.7 15.9 22.2z"/><path fill-rule="evenodd" class="i" d="m733.7 1797.9c-10.7 0-19.4-8.7-19.4-19.4 0-10.6 8.7-19.3 19.4-19.3 10.6 0 19.3 8.7 19.3 19.3 0 10.7-8.7 19.4-19.3 19.4z"/><path fill-rule="evenodd" class="i" d="m793.8 1801.4c-10.7 0-19.4-8.6-19.4-19.3 0-10.7 8.7-19.3 19.4-19.3 10.6 0 19.3 8.6 19.3 19.3 0 10.7-8.7 19.3-19.3 19.3z"/><path class="p" d="m2814 1321.8c2.6-11.1-13.1-18.5-22.7-10.8-97.4 79-331.5 315.6-273.1 729 73.2 518.7-52 708-207.7 823.4 0 0 213.9-54.3 348.5-246.3 330.4-471.5 108.5-1097.3 155-1295.3z"/><path class="o" d="m2739.9 1483.8c-12.2 57.7-23.1 115.7-31.5 173.9-8.7 58.1-15.4 116.4-20 174.8-4.4 58.5-7.4 117-7.6 175.5-0.5 58.5 2 117 4.7 175.7 2.3 58.7 5 117.8 0.7 177.3-4.3 59.4-16.8 119.4-41.6 175.5-6.2 14-12.7 28-20.1 41.5-7.1 13.6-15 26.9-23.1 40.2-16.3 26.3-34.7 51.8-55.2 76-41.2 48.2-90.8 91.1-145.5 127.3-5.8 3.8-14 2.9-18.5-2.1-4.3-4.9-3.3-11.8 2.2-15.7 13-9.1 25.9-18.4 38.2-28.1 6.3-4.8 12.3-9.8 18.4-14.7 5.9-5.1 12.1-10 17.8-15.3 23.2-20.6 44.7-42.7 64.2-66 39.3-46.4 70.7-98.2 94.5-151.8 11.6-26.9 20.8-54.6 27.6-82.7 6.7-28.2 10.9-56.8 13.3-85.7 4.7-57.7 2.5-116.3 0.7-175-1.7-58.7-3-117.7-1.4-176.6q1-44.3 3.9-88.4c0.8-14.7 2-29.4 3.2-44.1q1.9-22.1 4.3-44.1c6.3-58.6 14.7-117.1 25.2-175.3 10.8-58.1 23.5-116 38.7-173.3 0.4-1.7 2.3-2.7 4.2-2.3 1.8 0.4 3 1.9 2.7 3.5z"/><path class="q" d="m2561.6 2563.3c12 12.7 33 9.1 40.2-6.8 39.6-87.5 129.3-345.2-18.8-642-125.2-250.6-169.2-398.4-184.6-466.9-3.2-14.5-23-16.4-29-2.8-66.1 149.8-240.6 659.3 192.2 1118.5z"/><path class="o" d="m2583.3 2554.1q0.7 0.1 1.3 0.1c3.8 0 6.8-3.1 6.7-6.9 0-4.2-8.3-429.7-166.6-786.1-1.5-3.4-5.5-5-8.9-3.4-3.5 1.5-5 5.5-3.5 8.9 157.1 353.8 165.4 776.6 165.4 780.8 0.1 3.3 2.5 6 5.6 6.6z"/><path class="r" d="m2704.4 3028.9c224.9-43.9 386.6-255.9 419.8-414.3l-56.9-57.8c-85.4 140.7-155.7 235.3-318.5 261-8.8 1.4-15.9 8-17.8 16.8l-39.9 180.6c-1.8 8 5.3 15.3 13.3 13.7z"/><path class="s" d="m3209.1 2690.7l-74.5-232c-1.5-4.8-7.5-6.3-11.1-2.8l-123.7 118.6c-4.8 4.6-3.8 12.6 2 16l194.2 110.8c7.2 4.1 15.6-2.8 13.1-10.6z"/><path class="t" d="m509.8 902.5c89.7-210.8 330.7-325 492.6-324.5l44.6 67.8c-155.3 54.3-262.6 103.3-321.5 257.2-3.2 8.3-11.2 13.9-20.1 14l-185 1.4c-8.2 0-13.9-8.3-10.6-15.9z"/><path class="u" d="m945.6 479.2l232.8 57c16 3.9 20.5 24.5 7.7 34.8l-170.4 137.1c-5.6 3.7-13.2 1.1-15.2-5.3l-68-213c-2.5-7.9 5.9-14.7 13.1-10.6z"/><g style="opacity:.3"><path class="v" d="m1537.7 2195.9c5.1 0.3 9.4 4.5 9.6 9.8 0.5 11.5 0.6 23.3 0.1 35-0.2 5.6-5 10-10.7 9.8q-0.1 0-0.2 0c-5.5-0.3-9.8-5.1-9.6-10.7 0.4-11 0.4-22.2-0.1-33.2-0.2-5.7 4.1-10.5 9.8-10.7q0.5 0 1.1 0zm-6 89.2q0.6 0 1.2 0.1c5.6 1 9.3 6.3 8.3 11.9-2 11.5-4.6 22.9-7.6 34.1-1.4 5.5-7 8.7-12.5 7.3-5.5-1.5-8.7-7.1-7.3-12.6 2.9-10.6 5.3-21.5 7.2-32.4 1-5.2 5.6-8.7 10.7-8.4zm-25.4 85.6q1.7 0.1 3.4 0.8c5.2 2.2 7.7 8.2 5.5 13.4-4.6 10.7-9.6 21.4-15.1 31.6-2.6 5-8.8 6.9-13.8 4.3-5-2.7-7-8.9-4.3-13.9 5.2-9.7 10-19.8 14.3-30 1.7-4.1 5.8-6.5 10-6.2zm-43.9 77.8c1.9 0.1 3.7 0.8 5.4 1.9 4.6 3.4 5.6 9.8 2.3 14.4-6.8 9.4-14.2 18.6-21.7 27.4-3.7 4.3-10.2 4.8-14.5 1.1-4.3-3.7-4.8-10.2-1.1-14.5 7.2-8.4 14.2-17.1 20.7-26.1 2.1-2.9 5.5-4.4 8.9-4.2zm-60.2 66.1c2.6 0.1 5.2 1.3 7.1 3.5 3.7 4.2 3.3 10.7-0.9 14.4-8.8 7.7-17.9 15.1-27.3 22-4.5 3.3-11 2.4-14.3-2.2-3.4-4.6-2.4-11 2.1-14.3 8.9-6.6 17.6-13.6 25.9-20.9 2.1-1.8 4.8-2.7 7.4-2.5zm-73.3 51.1c3.4 0.2 6.7 2.1 8.4 5.3 2.7 5 0.9 11.2-4.1 13.9-10.2 5.6-20.8 10.7-31.4 15.4-5.2 2.3-11.3-0.1-13.5-5.3-2.3-5.2 0.1-11.2 5.3-13.5 10.1-4.4 20.1-9.3 29.8-14.6 1.8-0.9 3.6-1.3 5.5-1.2zm-376.7 2.2c1.5 0.1 2.9 0.4 4.2 1.1 9.8 5.2 19.9 10 30 14.3 5.3 2.2 7.7 8.2 5.5 13.4-2.2 5.2-8.2 7.7-13.4 5.5-10.7-4.6-21.4-9.6-31.7-15-5-2.7-6.9-8.9-4.2-13.9 1.9-3.6 5.8-5.7 9.6-5.4zm293.9 31.3c4.3 0.3 8.1 3.2 9.3 7.5 1.5 5.5-1.6 11.1-7.1 12.7-11.2 3.1-22.6 5.8-34 7.9-5.6 1.1-11-2.6-12-8.1-1.1-5.6 2.6-11 8.1-12 10.9-2.1 21.8-4.6 32.4-7.6q1.7-0.5 3.3-0.4zm-210.6 1.2q1 0.1 2 0.3c10.7 2.9 21.6 5.3 32.5 7.2 5.5 1 9.3 6.3 8.3 11.9-1 5.6-6.3 9.3-11.9 8.3-11.5-2-22.9-4.6-34.2-7.5-5.4-1.5-8.7-7.1-7.2-12.6 1.2-4.8 5.7-7.9 10.5-7.6zm122.5 13.1c5.1 0.3 9.4 4.5 9.6 9.7 0.3 5.7-4.1 10.5-9.8 10.8-11.5 0.5-23.3 0.6-34.9 0.1q-0.1 0-0.2 0c-5.6-0.3-9.9-5-9.7-10.6 0.2-5.7 5-10.1 10.7-9.9 11 0.5 22.2 0.4 33.2-0.1q0.5 0 1.1 0z"/><path class="w" d="m891.9 2528.6c2 0.1 4 0.9 5.7 2.2 4.1 3.3 8.4 6.5 12.7 9.6 4.6 3.4 5.7 9.8 2.3 14.4-3.3 4.5-9.7 5.6-14.3 2.3-4.5-3.3-9-6.7-13.4-10.2-4.5-3.5-5.2-9.9-1.7-14.4 2.1-2.7 5.4-4.1 8.7-3.9z"/></g><g style="opacity:.3"><path class="x" d="m741.1 2254.6c5 0.3 9.1 4.2 9.6 9.2 0.5 5.3 1.2 10.6 1.9 15.9 0.8 5.6-3.1 10.8-8.7 11.6-5.6 0.8-10.8-3.1-11.6-8.7-0.8-5.5-1.4-11.2-2-16.7-0.6-5.6 3.6-10.7 9.2-11.2q0.8-0.1 1.6-0.1z"/><path class="y" d="m1161.8 1815.7q7.1 0.4 14.2 1.1c5.6 0.5 9.7 5.5 9.2 11.2-0.5 5.6-5.5 9.8-11.1 9.2-11-1-21.9-1.6-32.7-1.7-5.7 0-10.2-4.7-10.2-10.3 0.1-5.7 4.7-10.2 10.4-10.2 6.7 0.1 13.5 0.3 20.2 0.7zm67.6 9.8q0.9 0 1.7 0.2c11.2 2.6 22.3 5.7 33.2 9.2 5.4 1.8 8.4 7.5 6.6 12.9-1.7 5.4-7.5 8.4-12.9 6.6-10.3-3.3-20.9-6.2-31.5-8.7-5.5-1.3-9-6.8-7.7-12.3 1.2-4.9 5.7-8.2 10.6-7.9zm-141.7-7.3c4.8 0.3 8.9 4 9.6 9 0.7 5.6-3.3 10.7-8.9 11.4-10.7 1.4-21.6 3.3-32.2 5.5-5.6 1.2-11-2.3-12.2-7.8-1.2-5.6 2.3-11 7.9-12.2 11.2-2.4 22.6-4.4 33.9-5.8q1-0.1 1.9-0.1zm224.7 36.5c1.3 0.1 2.6 0.4 3.8 1 10.3 5 20.5 10.5 30.4 16.3 4.8 2.9 6.4 9.1 3.6 14-2.9 4.9-9.2 6.5-14.1 3.6-9.3-5.5-19-10.7-28.8-15.4-5.1-2.5-7.2-8.6-4.8-13.7 1.9-3.9 5.8-6 9.9-5.8zm-310.1-15.8c4 0.3 7.6 2.8 9.1 6.8 1.9 5.3-0.9 11.2-6.2 13.1-10.2 3.7-20.3 7.9-30.2 12.5-5.1 2.3-11.2 0.1-13.6-5-2.4-5.2-0.1-11.3 5-13.7 10.4-4.8 21.1-9.2 31.8-13.1 1.4-0.5 2.8-0.6 4.1-0.6zm-78.8 39c3.2 0.2 6.2 1.8 8.1 4.7 3 4.8 1.6 11.1-3.1 14.2-9.2 5.8-18.2 12.1-26.8 18.7-4.5 3.5-11 2.6-14.4-1.9-3.4-4.5-2.6-10.9 1.9-14.4 9.1-6.9 18.6-13.5 28.2-19.7 1.9-1.2 4-1.7 6.1-1.6zm-68.4 55.2c2.4 0.1 4.8 1.1 6.6 3 4 3.9 4.1 10.4 0.1 14.5-7.7 7.7-15.1 15.8-22.1 24.1-3.6 4.3-10.1 4.9-14.4 1.3-4.4-3.7-4.9-10.2-1.3-14.5 7.3-8.7 15.1-17.3 23.2-25.4 2.2-2.2 5.1-3.2 7.9-3zm-54.8 68.8c1.7 0.1 3.4 0.6 4.9 1.6 4.8 3 6.2 9.3 3.2 14.1-5.8 9.2-11.2 18.8-16.2 28.4-2.6 5-8.8 7-13.8 4.4-5.1-2.6-7-8.8-4.4-13.8 5.2-10.2 11-20.2 17.1-29.9 2-3.3 5.6-5 9.2-4.8zm-38.3 79.2q1.4 0.1 2.8 0.6c5.4 1.8 8.2 7.7 6.3 13-3.6 10.3-6.8 20.8-9.6 31.3-1.4 5.5-7 8.8-12.5 7.3-5.5-1.4-8.8-7-7.3-12.5 2.9-11.1 6.2-22.1 10-32.9 1.6-4.4 5.9-7.1 10.3-6.8zm-20 85.6q0.4 0 0.7 0.1c5.6 0.6 9.6 5.7 8.9 11.4-0.9 7.9-1.7 16-2.1 23.9q-0.3 4.4-0.4 8.7c-0.2 5.6-5 10.1-10.7 9.8-5.7-0.1-10-4.9-9.8-10.6q0.1-4.5 0.4-9.1c0.5-8.4 1.3-16.8 2.3-25.2 0.6-5.4 5.4-9.3 10.7-9z"/><path class="z" d="m1387 1901.6c2.1 0.2 4.1 0.9 5.8 2.2 4.4 3.5 8.7 7.1 13 10.8 4.2 3.7 4.7 10.2 1 14.5-3.7 4.2-10.2 4.7-14.5 1-4-3.5-8.1-6.9-12.3-10.2-4.4-3.5-5.1-10-1.6-14.4 2.2-2.7 5.4-4.1 8.6-3.9z"/></g><path class="A" d="m1366.2 2019.6c-1.2-1.7-3.3-2.4-5.3-1.8l-55.8 16.9c-20.6-17.9-44.2-32.6-70.1-43.3l-10-57.4c-0.3-2.1-1.9-3.6-3.9-3.9l-69.1-11.2c-2.1-0.3-4.1 0.7-5 2.5l-27.6 51.4c-27.9 1.9-54.9 8.5-80.1 19l-47.7-33.6c-1.7-1.2-3.9-1.2-5.6 0l-56.7 41c-1.7 1.2-2.4 3.3-1.8 5.3l16.9 55.8c-17.9 20.6-32.6 44.2-43.3 70.1l-57.4 10c-2 0.3-3.6 1.9-3.9 3.9l-11.2 69.1c-0.3 2 0.7 4 2.5 5l51.4 27.6c1.9 27.9 8.5 54.9 19 80.1l-33.6 47.7c-1.2 1.7-1.2 3.9 0 5.6l41 56.7c1.2 1.7 3.3 2.4 5.3 1.8l55.8-16.9c20.6 17.9 44.2 32.6 70.1 43.3l10 57.4c0.3 2 1.9 3.6 3.9 3.9l69.1 11.2c2 0.3 4.1-0.7 5-2.5l27.6-51.4c27.9-1.9 54.9-8.5 80.1-19l47.7 33.6c1.7 1.2 3.9 1.2 5.6 0l56.7-41c1.7-1.2 2.4-3.3 1.8-5.3l-16.9-55.8c17.9-20.6 32.6-44.2 43.3-70.1l57.4-10c2-0.3 3.6-1.9 3.9-3.9l11.2-69.1c0.3-2.1-0.7-4.1-2.5-5l-51.4-27.6c-1.9-28-8.5-55-19-80.1l33.6-47.7c1.2-1.7 1.2-3.9 0-5.6z"/><path class="q" d="m1141.7 2157.6c34.3 2 62.9 29 65.9 64.1 3.4 38.7-25.3 72.8-63.9 76.2-18.7 1.7-37-4.1-51.4-16.2-14.4-12-23.2-29-24.8-47.7-3.4-38.7 25.3-72.9 63.9-76.2q5.3-0.5 10.3-0.2zm-7.5 124.1q4 0.2 8-0.1c29.7-2.6 51.7-28.8 49.1-58.5-2.6-29.6-28.8-51.6-58.5-49-29.6 2.6-51.6 28.8-49 58.4 1.3 14.4 8 27.4 19.1 36.7 8.9 7.5 19.9 11.8 31.3 12.5z"/><path class="q" d="m1146.3 2056.1q8.8 0.5 17.7 1.9 2.8 0.5 5.5 1c9.1 1.8 18.1 4.3 26.7 7.5q0.2 0 0.4 0.1 0.5 0.2 1 0.4 0.9 0.3 1.9 0.7c1.7 0.7 2.7 2.3 2.6 4.1q0 0.6-0.3 1.2c-0.8 2.1-3.2 3.2-5.3 2.4-10.8-4.3-22.2-7.4-33.8-9.3-57.7-9.3-113.3 12.7-149.5 53.4-20.1 22.6-34.3 51-39.4 83.1q-1.4 8.4-1.9 16.8c-2.2 37.8 8.5 74.8 30.9 105.9 25.8 35.7 63.9 59.2 107.4 66.2 89.7 14.5 174.4-46.7 188.9-136.4q1.3-8.3 1.8-16.7c1.4-24-2.4-48.2-11.4-70.6q-0.3-0.9-0.3-1.7c0.1-1.6 1.1-3 2.6-3.6 2.1-0.8 4.5 0.2 5.3 2.3 9.4 23.5 13.5 48.8 12 74.1q-0.5 8.8-1.9 17.5c-15.2 94.1-104.2 158.4-198.3 143.2-45.7-7.4-85.7-32.1-112.7-69.5-23.6-32.6-34.8-71.5-32.5-111.2q0.5-8.8 1.9-17.6c7.4-45.7 32.1-85.7 69.6-112.7 32.6-23.6 71.5-34.8 111.1-32.5z"/><g style="opacity:.3"><path class="B" d="m1903 1946.7c2.8 0.2 5.2 2.1 5.8 4.9 1.3 5.3 2.3 10.6 3.2 15.9 0.6 3.5-1.7 6.7-5.2 7.3-3.4 0.6-6.7-1.7-7.3-5.2-0.8-5-1.8-10.1-3-15.1-0.8-3.4 1.3-6.8 4.7-7.6q1-0.2 1.8-0.2z"/><path class="C" d="m1909.6 1995c3.2 0.2 5.8 2.8 5.9 6.1 0.4 9.2 0.4 18.6-0.2 27.8q-0.2 3-0.4 5.9c-0.3 3.5-3.5 5.9-6.8 5.8-3.5-0.3-6.1-3.3-5.8-6.8q0.2-2.8 0.4-5.6c0.5-8.8 0.6-17.8 0.2-26.6-0.2-3.5 2.5-6.4 6-6.6q0.4 0 0.7 0zm-5.3 65.6q0.5 0 0.9 0.1c3.4 0.7 5.7 4.1 5 7.5-2.3 11-5.2 21.9-8.8 32.5-1.1 3.4-4.7 5.1-8 4-3.4-1.1-5.1-4.7-4-8 3.4-10.1 6.2-20.6 8.3-31.1 0.7-3.1 3.5-5.2 6.6-5zm-21 62.3q1.2 0.1 2.4 0.6c3.1 1.6 4.4 5.3 2.9 8.5-4.8 10.1-10.4 20-16.5 29.4-1.9 3-5.8 3.8-8.8 1.9-2.9-1.9-3.7-5.8-1.8-8.8 5.8-8.9 11.1-18.4 15.7-28 1.2-2.4 3.6-3.7 6.1-3.6zm-35.7 55.3c1.3 0.1 2.6 0.5 3.7 1.4 2.7 2.3 3 6.3 0.8 9-7.2 8.6-15 16.8-23.2 24.4-2.6 2.4-6.6 2.3-9-0.3-2.4-2.5-2.2-6.5 0.3-8.9 7.8-7.3 15.3-15.2 22.2-23.4 1.3-1.6 3.3-2.3 5.2-2.2zm-48.1 44.8c1.8 0.2 3.6 1 4.8 2.6 2 2.9 1.4 6.8-1.5 8.9-9 6.6-18.6 12.7-28.4 18.1-3.1 1.7-6.9 0.6-8.6-2.5-1.7-3-0.6-6.9 2.5-8.6 9.3-5.2 18.4-11 27.1-17.3 1.2-0.9 2.7-1.2 4.1-1.2zm-57.5 31.9c2.3 0.1 4.5 1.6 5.5 3.9 1.3 3.3-0.3 7-3.5 8.3-10.4 4.2-21.2 7.7-32 10.6-3.4 0.9-6.9-1.2-7.8-4.5-0.9-3.4 1.1-6.9 4.5-7.8 10.3-2.7 20.6-6.1 30.5-10.1 0.9-0.3 1.9-0.5 2.8-0.4zm-63.6 16.8c3 0.1 5.5 2.4 5.9 5.4 0.5 3.5-2 6.7-5.4 7.2-11.1 1.5-22.4 2.3-33.7 2.4-3.5 0-6.3-2.8-6.4-6.3 0-3.5 2.8-6.3 6.3-6.4 10.7-0.1 21.5-0.9 32.1-2.3q0.6-0.1 1.2 0zm-98.2-5q0.5 0 1.1 0.1c9 2.2 18.2 3.9 27.5 5.1q2.1 0.2 4.2 0.5c3.4 0.4 6 3.5 5.6 7-0.4 3.4-3.6 6-7 5.6q-2.2-0.3-4.4-0.6c-9.7-1.2-19.4-3-28.9-5.3-3.4-0.8-5.5-4.2-4.7-7.6 0.8-3 3.6-5 6.6-4.8z"/></g><g style="opacity:.3"><path class="D" d="m1654.6 1739.7c3.4 0.2 6.1 3.2 5.9 6.6-0.1 3.5-3.1 6.2-6.6 6.1-10.5-0.5-21.2-0.4-31.6 0.4-3.5 0.2-6.5-2.3-6.8-5.8-0.3-3.5 2.3-6.6 5.8-6.8 11-0.8 22.2-1 33.2-0.5q0 0 0.1 0zm32.2 3.4q0.3 0.1 0.7 0.1c10.9 1.8 21.7 4.3 32.3 7.5 3.4 1 5.3 4.5 4.3 7.8-1 3.4-4.5 5.3-7.9 4.3-10-3-20.4-5.3-30.8-7.1-3.5-0.6-5.8-3.8-5.2-7.3 0.5-3.2 3.4-5.4 6.6-5.3zm-96.7 1.5c2.8 0.1 5.2 2.2 5.8 5.1 0.7 3.4-1.5 6.7-5 7.4-10.3 2.1-20.6 4.8-30.5 8.1-3.4 1.1-7-0.7-8-4-1.1-3.4 0.7-6.9 4-8 10.4-3.5 21.2-6.3 32.1-8.5q0.8-0.2 1.6-0.1zm158.8 16.9q1.1 0 2.1 0.5c10.2 4.4 20.1 9.4 29.6 15 3 1.8 4 5.7 2.3 8.7-1.8 3-5.7 4-8.7 2.2-9.1-5.3-18.6-10.1-28.2-14.3-3.2-1.4-4.7-5.1-3.3-8.3 1.1-2.5 3.6-4 6.2-3.8zm-220.2 3.4c2.2 0.1 4.3 1.4 5.3 3.6 1.5 3.2 0.2 6.9-3 8.4-9.5 4.5-18.8 9.6-27.7 15.2-3 1.9-6.9 1-8.8-1.9-1.8-3-1-6.9 2-8.8 9.3-5.9 19.1-11.2 29.1-15.9 1-0.5 2-0.7 3.1-0.6zm-54.8 34.4c1.7 0.1 3.4 0.9 4.6 2.4 2.2 2.7 1.8 6.7-1 8.9-8.1 6.6-16 13.8-23.3 21.4-2.4 2.5-6.4 2.6-8.9 0.1-2.5-2.4-2.6-6.4-0.2-8.9 7.7-7.9 15.9-15.5 24.4-22.5 1.3-1 2.9-1.5 4.4-1.4zm-44.9 46.6c1.2 0.1 2.4 0.5 3.4 1.3 2.8 2.1 3.4 6.1 1.3 8.8-6.4 8.5-12.3 17.3-17.5 26.4-1.8 3-5.6 4.1-8.7 2.3-3-1.7-4-5.6-2.3-8.6 5.5-9.6 11.7-18.9 18.4-27.7 1.3-1.7 3.4-2.6 5.4-2.5z"/><path class="E" d="m1804.9 1794.4c1.3 0.1 2.5 0.5 3.5 1.3 4.3 3.3 8.5 6.7 12.6 10.2 2.6 2.3 2.9 6.3 0.6 9-2.3 2.6-6.3 2.9-8.9 0.6-3.9-3.3-7.9-6.6-12-9.7-2.8-2.2-3.3-6.2-1.2-8.9 1.4-1.8 3.4-2.6 5.4-2.5z"/></g><path class="F" d="m1794.8 1875.8c-0.8-1.1-2.2-1.6-3.5-1.2l-37.4 11.3c-13.7-12-29.5-21.8-46.8-29l-6.7-38.4c-0.3-1.4-1.3-2.4-2.7-2.6l-46.2-7.5c-1.4-0.2-2.7 0.5-3.3 1.7l-18.5 34.4c-18.7 1.3-36.8 5.7-53.6 12.7l-31.9-22.5c-1.1-0.8-2.6-0.8-3.7 0l-38 27.4c-1.1 0.8-1.6 2.3-1.2 3.6l11.3 37.3c-12 13.8-21.8 29.6-29 46.9l-38.4 6.7c-1.4 0.2-2.4 1.3-2.6 2.7l-7.5 46.2c-0.2 1.3 0.5 2.7 1.7 3.3l34.4 18.5c1.3 18.7 5.7 36.8 12.7 53.6l-22.5 31.9c-0.8 1.1-0.8 2.6 0 3.7l27.4 38c0.8 1.1 2.3 1.6 3.6 1.2l37.3-11.3c13.8 12 29.6 21.8 46.9 28.9l6.7 38.5c0.2 1.3 1.3 2.4 2.7 2.6l46.2 7.5c1.3 0.2 2.7-0.5 3.3-1.7l18.5-34.4c18.7-1.3 36.8-5.7 53.6-12.7l31.9 22.5c1.1 0.8 2.6 0.8 3.7 0l38-27.5c1.1-0.8 1.6-2.2 1.2-3.5l-11.3-37.4c12-13.7 21.8-29.5 28.9-46.8l38.5-6.7c1.3-0.3 2.4-1.3 2.6-2.7l7.5-46.2c0.2-1.4-0.5-2.7-1.7-3.3l-34.4-18.5c-1.3-18.7-5.7-36.8-12.7-53.6l22.5-31.9c0.8-1.1 0.8-2.6 0-3.7z"/><path class="q" d="m1644.8 1967.3c10.2 0.6 19.9 4.5 27.8 11.1 9.8 8.3 15.9 19.8 17 32.6 2.3 26.3-17.3 49.6-43.6 51.9-26.3 2.2-49.6-17.3-51.9-43.6-1.1-12.7 2.8-25.2 11-35 8.3-9.8 19.8-15.8 32.6-16.9q3.5-0.3 7.1-0.1zm-5.1 83q2.6 0.2 5.2 0c19.4-1.7 33.7-18.9 32.1-38.2-0.9-9.4-5.3-17.9-12.5-24-7.2-6-16.4-8.9-25.7-8.1-9.4 0.9-17.9 5.3-24 12.5-6 7.2-8.9 16.3-8.1 25.7 1.6 17.6 15.9 31.1 33 32.1z"/><path class="q" d="m1648 1896.7q6 0.3 12.1 1.3c8 1.3 15.9 3.4 23.5 6.3q0.5 0.2 1 0.4c2.6 1 4.2 3.6 4 6.2q0 1-0.4 2c-1.3 3.2-4.9 4.8-8.2 3.6-7-2.8-14.4-4.8-21.9-6q-0.6-0.1-1.3-0.2c-17.7-2.7-35.5-0.9-51.9 5.1-9 3.3-17.5 7.7-25.5 13.4q-0.1 0-0.2 0.1-0.3 0.2-0.6 0.4c-23.1 16.7-38.3 41.4-42.8 69.5q-0.9 5.5-1.2 10.9c-1.5 24.4 5.5 48.4 20 68.5 16.7 23.1 41.4 38.4 69.5 42.9 28.1 4.5 56.3-2.1 79.4-18.8 23.1-16.7 38.4-41.4 42.9-69.5q0.9-5.4 1.2-10.8c0.9-15.6-1.6-31.2-7.4-45.7q-0.5-1.3-0.4-2.7c0.1-2.4 1.6-4.6 3.9-5.5 3.3-1.3 7 0.3 8.3 3.5 6.4 16.3 9.2 33.7 8.2 51.2q-0.3 6-1.3 12c-5.1 31.5-22.1 59.1-48 77.8-25.8 18.6-57.3 26.1-88.8 21-31.5-5.1-59.1-22.1-77.8-47.9-16.2-22.5-24-49.4-22.4-76.7q0.4-6.1 1.4-12.2c9.8-60.9 64.4-103.7 124.7-100.1z"/><path class="G" d="m1941.9 2074.8c-3.5 161.6-14.6 719.3-9.3 916.9 0.6 20.9 14.9 37.7 32.8 38.4 88.5 3.4 413 12 557.7 4.9 30.2-1.5 54.2-30.1 54.8-65.4 3-169.7 9.6-646.9-6.1-865.6-1.9-26.1-19.5-47-41.9-49.6-96.3-11.3-422.2-38.9-547.3-29.4-22.5 1.7-40.2 23.3-40.7 49.8z"/><path class="H" d="m1981.3 2124.4c-4.7 130.5-19.7 564.6-15 725.1 0.7 23.4 16.5 42.4 36.6 43.8 82.4 5.6 363.9 18.1 484.8 6.7 21.8-2 38.9-22.6 40.1-48.1 6.1-133.2 23.7-537.4 19.1-696.1-0.7-25.3-17.4-46-39-48.2-89.2-9.4-388.3-31.7-491.1-25.2-19.3 1.3-34.6 19.4-35.5 42z"/><path class="I" d="m2160.6 2053.3c0 4.9 3.3 9 7.5 9.3 20.9 1.3 79.8 4.9 106.1 6.7 5.2 0.3 9.3-5.1 8.3-11.1l-0.2-1c-0.6-4.1-3.5-7.2-7-7.5-17.8-2-71.5-7.2-107.1-5.8-4.3 0.2-7.6 4.4-7.6 9.4z"/><path class="J" d="m2547.7 2205.2c-0.1-17.5-0.3-34.8-0.8-49.2-0.7-25.3-17.4-46.1-39-48.4-89.2-9.3-388.3-31.7-491.1-25.1-19.3 1.2-34.6 19.5-35.5 42.1-0.7 20.2-1.2 36.2-2.3 67.7z"/><path class="j" d="m2259.3 2483.3h-232.6c-13.8 0-24.9-11.5-24.9-25.6v-204.2c0-13 10.3-23.4 22.9-23.1l234.7 5.8c13 0.3 23.3 11.2 23.3 24.5v198.5c0 13.3-10.5 24.1-23.4 24.1z"/><path class="j" d="m2511.3 2483.3h-199.1c-5 0-9-4-9-9v-230.5c0-3.9 3.1-7 7-7h201.6c3.9 0 7.1 3.1 7.1 7v232c0 4.1-3.4 7.5-7.6 7.5z"/><path class="j" d="m2511.6 2683.4h-510.1c-4.5 0-8.1-3.6-8.1-8v-153.3c0-3.6 3-6.5 6.5-6.5h511.4c4.2 0 7.6 3.4 7.6 7.6v153c0 4-3.3 7.2-7.3 7.2z"/><path class="j" d="m2464.4 2872.8l-447.2-6.2c-13.3-0.2-23.9-9.8-23.9-21.7v-108.3c0-10.4 9.4-18.9 21.1-18.9h470.5c11.2 0 20.2 8.1 20.2 18.1l0.3 100.8c0.1 20.2-18.4 36.6-41 36.2z"/><path fill-rule="evenodd" class="i" d="m2039.1 2163.2c-6.2 6.1-16.2 6.1-22.3 0-6.2-6.2-6.2-16.2 0-22.4 6.1-6.1 16.1-6.1 22.3 0 6.1 6.2 6.1 16.2 0 22.4z"/><path fill-rule="evenodd" class="i" d="m2091.7 2164.7c-6.2 6.2-16.2 6.2-22.3 0-6.2-6.2-6.2-16.2 0-22.3 6.1-6.2 16.1-6.2 22.3 0 6.2 6.1 6.2 16.1 0 22.3z"/><path fill-rule="evenodd" class="i" d="m2145 2160.3c-2 8.5-10.5 13.7-19 11.7-8.5-2-13.7-10.5-11.7-19 2-8.5 10.5-13.7 19-11.7 8.5 2 13.7 10.5 11.7 19z"/></svg>