<svg version="1.2" xmlns="http://www.w3.org/2000/svg" viewBox="0 0 500 500" width="500" height="500"><defs><linearGradient id="P" gradientUnits="userSpaceOnUse"/><linearGradient id="g1" x2="1" href="#P" gradientTransform="matrix(16.15,-10.318,18.459,28.892,242.399,401.938)"><stop offset=".6" stop-color="#2e71b0" stop-opacity="0"/><stop offset="1" stop-opacity="1"/></linearGradient><linearGradient id="g2" x2="1" href="#P" gradientTransform="matrix(7.531,-16.615,17.982,8.15,258.635,349.238)"><stop offset=".6" stop-color="#f02b66" stop-opacity="0"/><stop offset="1" stop-opacity="1"/></linearGradient><linearGradient id="g3" x2="1" href="#P" gradientTransform="matrix(-0.884,12.702,-23.626,-1.644,173.306,144.43)"><stop offset=".12" stop-color="#e06060" stop-opacity="0"/><stop offset=".94" stop-opacity=".57"/></linearGradient><linearGradient id="g4" x2="1" href="#P" gradientTransform="matrix(22.482,3.796,-11.184,66.243,114.849,183.534)"><stop offset=".12" stop-color="#e06060" stop-opacity="0"/><stop offset=".94" stop-opacity=".57"/></linearGradient><linearGradient id="g5" x2="1" href="#P" gradientTransform="matrix(2.062,30.042,-55.633,3.818,165.526,157.943)"><stop offset=".12" stop-color="#f02b66" stop-opacity="0"/><stop offset=".94" stop-opacity=".57"/></linearGradient><linearGradient id="g6" x2="1" href="#P" gradientTransform="matrix(14.786,-7.624,3.601,6.984,178.23,108.003)"><stop offset=".6" stop-color="#2e71b0" stop-opacity="0"/><stop offset="1" stop-opacity="1"/></linearGradient><linearGradient id="g7" x2="1" href="#P" gradientTransform="matrix(-4.565,-15.462,15.322,-4.524,179.018,94.637)"><stop offset=".56" stop-color="#ffb387" stop-opacity="0"/><stop offset=".98" stop-opacity="1"/></linearGradient><clipPath clipPathUnits="userSpaceOnUse" id="cp1"><path d="m170.82 73.32l-100.37 3.22 4.67 28.87 89.73-25.89z"/></clipPath></defs><style>.a{fill:#363636}.b{opacity:.49;fill:#8fd4f7}.c{fill:#53c6ed}.d{fill:#0c7b7d}.e{opacity:.49;fill:#2088bd}.f{fill:#045169}.g{fill:#fff}.h{fill:none;stroke:#afbac4;stroke-miterlimit:10;stroke-width:.7}.i{fill:none;stroke:#2155b5;stroke-miterlimit:10;stroke-width:3}.j{fill:#ffb387}.k{fill:#d4004a}.l{opacity:.49;fill:#85a9ff}.m{opacity:.49;fill:#1b729e}.n{fill:none;stroke:#19034d;stroke-miterlimit:10;stroke-width:5}.o{fill:none;stroke:#fff;stroke-miterlimit:10}.p{fill:#f02b66}.q{fill:#2155b5}.r{fill:#19034d}.s{opacity:.62;fill:url(#g1)}.t{fill:url(#g2)}.u{fill:#f5ba00}.v{fill:#19034d;stroke:#19034d;stroke-miterlimit:10;stroke-width:2}.w{fill:#1b729e;stroke:#19034d;stroke-miterlimit:10;stroke-width:2}.x{fill:none;stroke:#19034d;stroke-miterlimit:10;stroke-width:2}.y{opacity:.23;fill:#363636}.z{fill:#08a38c}.A{fill:#c75555}.B{fill:url(#g3)}.C{fill:url(#g4)}.D{fill:url(#g5)}.E{opacity:.62;fill:url(#g6)}.F{fill:url(#g7)}.G{opacity:.34;fill:#0c3df0}.H{fill:none;stroke:#19034d;stroke-miterlimit:10;stroke-width:6}</style><g style="opacity:.2"><path class="a" d="m400.9 396.7h-295c-1.6 0-2.9-1.2-2.9-2.6 0-1.3 1.3-2.5 2.9-2.5h295c1.6 0 2.9 1.2 2.9 2.5 0 1.4-1.3 2.6-2.9 2.6z"/></g><path class="b" d="m127.4 382.4c0 0 273.6 0 273.7 0 5.3 0 18.9-19.5 21.6-24.2 7-12.3 13.2-25.3 18.5-38.4 10.8-26.1 18.2-53.8 19.5-82.1 0.9-20.1-1.9-41.8-15.4-56.7-8.6-9.6-20.8-15.3-30-24.4-18.3-18.1-22.1-46.4-37-67.5-17.2-24.3-52.3-36.3-78.8-22.6-14.5 7.5-24.8 21-37.4 31.2-28.7 23.1-67.3 27.9-103.2 35.4-36 7.5-74.7 21.2-92.5 53.4-14.3 26.1-10.7 61.5-7.4 90.1 2.2 20.1 18 42.7 28.7 59.5 11.1 17.3 24.5 32.9 39.7 46.3z"/><path class="c" d="m271.6 382.4c19.7 0 41 2.3 60.5 0 64.7-7.7 117.1-78.2 96.9-142.5-9.3-29.3-33.9-50.5-57.5-70.1-39.3-32.8-86.7-83.8-142.4-81.5-18.7 0.8-36.8 8.2-52.2 18.8-15.4 10.7-28.4 24.5-40.1 39.1-15.8 19.6-29.5 40.8-41 63.1-11.4 22.1-17.3 42.2-19.6 66.8-1.5 15.4 0.1 31.4 6.6 45.4 11.4 24.6 36.5 38.1 56.5 54.8 15.3 12.9 40.8 6.6 59.6 6.5 24.3-0.1 48.5-0.4 72.7-0.4z"/><path class="d" d="m162.6 309.5c0.8 1.9 1.6 3.9 2.1 5.9 3 10.2 1.5 21.2-1.3 31.5-2.4 8.8-5.9 17.3-11.5 24.5-11.8 15.1-29.9 20-48.2 18.1-16.1-1.6-32.7-0.1-41-17.5-5.4-11-5-23.9-3.8-36 1.3-12.2 3.4-24.6 1.4-36.6-1.8-10.4-6.2-22.3 0.6-30.3 3.3-3.9 8.6-5.7 11.7-9.6 4.3-5.5 3.4-13.5 0.7-20-2.7-6.4-6.8-12.2-8.7-18.9-3.6-13.1 3.3-28.3 15.5-34.2 4.1-1.9 8.7-3 11.8-6.3 5-5.5 3.4-14 3.8-21.4 0.3-6.7 2.4-13.3 6.1-18.8 14.8-22.1 40.5-3.8 36.6 18.3-3.3 19.3-14.4 41.1-1.8 59.9 6.3 9.4 18.4 14.4 22.6 25 5.5 14-5.9 29.2-4.5 44.2 0.7 7.8 4.9 14.8 7.9 22.2z"/><path class="e" d="m262.5 386.5c19.7 0 40.9 2.3 60.5 0 35.6-4.3 64.4-25.9 81.7-56.8 11.1-19.9 14.9-35.4 8.9-57.6-5.9-22.1-14.5-43.4-19.4-65.9-4.2-19.7-5.6-40-11.8-59.2-6.3-19.2-18.6-37.8-37.5-44.8-18.7-7-39.9-1.3-57.3 8.2-17.5 9.5-32.8 22.7-50.3 32.3-13.6 7.4-28.4 12.6-41.5 20.9-12.4 7.8-23 18.2-31.8 29.8-9 11.8-12.4 23.3-17.7 36.9-5.5 13.8-13.3 26.8-22.9 38.2-10.7 12.6-24.3 24.7-26.5 41.1-1.1 8.5 1.2 17.2 4.7 25.1 7.7 17.5 21.7 32.1 38.8 40.8 8.2 4.2 16 9.5 25.3 11.1 10.7 2 21.8 0.3 32.7 0.3 21.3-0.2 42.7-0.4 64.1-0.4z"/><path class="f" d="m414.6 303.2c-5.8-5.8-7.9-11 0.7-23.9 8.4-12.5 2.3-32.9-14.9-34.6-6.4-0.7-13.7-3.8-12.1-11.8 1-4.7 4.6-8.4 8.1-11.7 3.4-3.4 7-7.2 7.8-11.9 1.2-7.6-4.4-10.6-7.5-16.3-2.9-5.4-2.3-11.7-0.7-17.6 1.7-6.7 4.2-13.9 1.8-20.5-2.8-7.8-12.2-13.3-11.5-21.6 0.3-3.3 2.3-6.4 2.1-9.7-1.1-19.2-24.1-23.2-26-2.4-0.7 6.8 1.1 13.5 2.3 20.2 1.2 6.7 1.8 13.9-1.2 20.1-3.5 7.5-11.4 11.8-16.7 18.1-5.5 6.4-8.4 14.8-8.3 23.2 0.2 9.6 3.9 19.2 2.1 28.7-1.9 9.8-9.4 17.4-17.2 23.6-7.9 6.2-16.5 11.6-22.4 19.7-6.4 8.8-7.9 19-6.9 29.6 0.8 7.7 10.6 19.4 5.7 26-0.9 1.3-2.2 2.2-3.2 3.3-4.3 4.3-5.6 10.8-4.7 16.7 4.3 26.5 41.9 31 62.8 36.6 17 4.6 38 0.3 52.5-9.7 9.6-6.6 17.8-21.9 22.2-32.4 3.9-9.5 4.6-21.4-2.1-29.3-4.6-5.5-9.3-9.1-12.7-12.4z"/><path class="d" d="m298.3 295.8c6-1.6 11.2-4.8 15.7-9.1 9.7-9.2 15.1-23.1 18.6-35.9 2.4-8.6 3.7-17.6 3.3-26.5-0.4-8.9-2.5-17.5-4.6-26.1-1.9-7.3-3.9-14.7-7.4-21.3-3.2-6-7.6-11.2-12.2-16.2-5-5.4-10.5-11.3-10.6-18.7-0.1-6.3 4-12 5.2-18.2 3-15.9-12.6-29.7-13.3-45.8-0.5-9.1 3.8-19-0.7-27-0.9-1.7-2.3-3.2-4-4.1-4.1-2.1-9.4-0.2-12.4 3.3-3.8 4.2-7 11.7-8.9 17-2.6 7-3.3 15-3 22.4 0.2 4.6 1.4 10.5 0.1 15.1-1.2 3.9-4.5 5.7-7.5 8.7-6.2 6.2-11.6 14-11.7 23.1-0.1 6.7 2.6 13.2 2.6 19.9-0.1 8.8-5 17.5-8.1 25.5-3.7 9.5-6.7 18.7-8.7 28.9-1.7 9-3.2 18.2-2.6 27.4 0.8 11.4 5 22.5 11.8 31.7 3.6 4.9 8.2 8.2 12.3 12.5 4.1 4.2 6.2 7.9 12.3 9.9 10.5 3.4 23 6.3 33.8 3.5z"/><path class="f" d="m230.6 118.5c-2.3 5.6-5 11.5-3 16.8 0.9 2.2 2.6 4 4.1 5.9 5.2 6.7 9.4 17.2 7.7 26.3-1.5 8.1-7.9 11.7-5.3 21 1.3 4.9 4.1 9.2 5.9 13.9 4.2 11 2.9 24.3-3.3 35.1-13.6 23.3-46.7 27.8-69.1 23.3-14.6-3-29.9-9.8-23.2-28.3 2.9-8.1 8.5-15.3 10.7-23.6 2.4-9.2 0.5-19.2 4.3-28 3.9-9 12.7-14.8 18.4-22.9 8-11.5 8.7-26 10.6-39.6 2.5-18.9 11.4-42.3 34-37.3 3.7 0.8 7.3 2.4 9.6 5.3 2.9 3.6 3.4 8.7 3.1 13.5-0.3 5.6-1.6 11.3-3.7 16.7q-0.4 0.9-0.8 1.9z"/><path class="g" d="m403.7 191.3v188.9c0 8-6.5 14.5-14.5 14.5h-277.3c-8 0-14.5-6.5-14.5-14.5v-188.9c0-8 6.5-14.5 14.5-14.5h277.3c8 0 14.5 6.5 14.5 14.5z"/><path  d="m404 190.8v189.9c0 7.9-6.4 14.3-14.3 14.3h-278.4c-7.8 0-14.2-6.4-14.2-14.3v-189.9c0-7.9 6.4-14.3 14.2-14.3h278.4c7.9 0 14.3 6.4 14.3 14.3z"/><path class="g" d="m376.8 184v203.4h-251.9v-203.4z"/><path fill-rule="evenodd" class="h" d="m396.6 288.4c-2.5 2.9-7 3.1-9.9 0.5-2.8-2.5-3.1-7-0.5-9.9 2.6-2.8 7-3.1 9.9-0.5 2.8 2.6 3.1 7 0.5 9.9z"/><path fill-rule="evenodd" class="i" d="m133.8 204h76"/><path fill-rule="evenodd" class="i" d="m225.8 203.1h136"/><path fill-rule="evenodd" class="i" d="m225.8 215.5h136"/><path fill-rule="evenodd" class="i" d="m225.8 227.8h136"/><path fill-rule="evenodd" class="i" d="m225.8 240.2h136"/><path fill-rule="evenodd" class="i" d="m339.3 252.6c5.5 0 17 0 22.5 0"/><path fill-rule="evenodd" class="i" d="m225.8 252.6h61.7"/><path fill-rule="evenodd" class="i" d="m225.8 332.5h136"/><path fill-rule="evenodd" class="i" d="m225.8 343.5h136"/><path fill-rule="evenodd" class="i" d="m225.8 354.5h136"/><path fill-rule="evenodd" class="i" d="m225.8 365.5h136"/><path fill-rule="evenodd" class="i" d="m133.8 219.5h76"/><path fill-rule="evenodd" class="i" d="m133.8 235h76"/><path fill-rule="evenodd" class="i" d="m133.8 248.5h76"/><path fill-rule="evenodd" class="i" d="m133.8 262h76"/><path fill-rule="evenodd" class="i" d="m133.8 275.5h76"/><path fill-rule="evenodd" class="i" d="m133.8 289h76"/><path fill-rule="evenodd" class="i" d="m133.8 302.5h76"/><path fill-rule="evenodd" class="i" d="m133.8 316h76"/><path fill-rule="evenodd" class="e" d="m133.8 326.5h76v46h-76z"/><path fill-rule="evenodd" class="e" d="m227.3 261.5h74v57h-74z"/><path class="e" d="m349.5 262c1.3 5.5 2.1 11 0.6 16.6-1.4 5.1-4.3 9.6-8.2 13-3.7 3.3-8.2 5.4-12.9 6.5-5.8 1.4-11.4 0.5-17.2 0v20.9h50v-57c0 0-12.3 0-12.3 0z"/><path class="j" d="m285.9 293.6c-0.4-1.8-1.1-3.7-0.8-5.5 1.3 0 2.3 1.2 2.8 2.3 0.6 1.2 0.8 2.5 1.5 3.6 0.6 1.1 1.6 1.9 2.6 2.7 0.4 0.4 0.8 0.7 1 1.2 0.3 0.8 0 1.6-0.5 2.3-0.5 0.9-1.3 1.8-2.3 2.3-1.9 1-5.1 0-5.1-2.5-0.1-0.8 0.6-1.4 0.9-2.2 0.4-1.4 0.2-2.8-0.1-4.2z"/><path class="j" d="m315.7 303.5c3.7 0.3 7.6-0.6 11-2.4 0.6-0.2 1.2-0.6 1.8-0.4 0.8 0.3 1.1 1.5 0.8 2.4-0.4 0.9-1.2 1.5-2 1.9-1.8 1.1-3.8 1.7-5.8 1.9-2.2 0.3-4.7 0.1-6.5 1.5-0.8 0.7-1.7 1.8-2.7 1.7-0.5-0.1-0.9-0.4-1.2-0.7-2-1.5-4.1-2.9-1.5-5 1.8-1.4 4-1 6.1-0.9z"/><path class="k" d="m285.3 295.7c-0.7 1.5-1.5 3-2.6 4.5-3.5 5-7.1 10-11.5 14.4-0.5 0.5-1.1 1.1-1.8 1.3-0.5 0.2-1 0.2-1.5 0.3-4.8 0.2-9.6 0.3-14.3 1-3.4 0.4-9-0.1-11.7 2.6-5.5 3.9-0.8 11.1 1.8 15.3 0.6 1 1.3 2 2.4 2.3 0.8 0.1 1.7-0.2 2.4-0.5 8.7-3.3 17.4-5.8 26-9.1 1.5-0.5 2.9-1.1 4.2-2 1.8-1.4 3-3.4 4.1-5.3q2.7-4.5 5.3-8.9c1.7-2.8 3.3-5.6 4.6-8.6q0.2-0.6 0.4-1.2c-2.7-1.9-5.3-3.9-7.8-6.1z"/><path fill-rule="evenodd" class="l" d="m340.6 286.5c-8.3 15.5-27.5 21.2-43 12.9-15.4-8.3-21.2-27.5-12.9-43 8.3-15.4 27.6-21.2 43-12.9 15.5 8.3 21.3 27.5 12.9 43z"/><path class="m" d="m304.8 300.1c4.2 1.3 8.9 1.7 13.3 1.5 11.8-0.6 20.4-8.8 24.4-19.5 3.3-8.9 2.9-19.6-3.9-26.4h-41.8v41.9c2.8 0.4 5.4 1.7 8 2.5z"/><path fill-rule="evenodd" class="n" d="m340.6 286.5c-8.3 15.5-27.5 21.2-43 12.9-15.4-8.3-21.2-27.5-12.9-43 8.3-15.4 27.6-21.2 43-12.9 15.5 8.3 21.3 27.5 12.9 43z"/><path fill-rule="evenodd" class="o" d="m317.5 246.4c-5.8-0.5-11.8 0.9-16.9 3.9"/><path fill-rule="evenodd" class="o" d="m296.1 254.5c-5.3 4.7-8.2 11.9-7.9 19 0.4 7.1 4.1 14 9.8 18.2"/><path class="j" d="m243.2 317.1c-0.1-1.7 0.1-3.5 0.4-4.9 0.8-4.3 1.5-8.7 0.4-13.1-0.4-1.7-1.1-3.6-0.7-5.3 0.6-2.3 3.3-3.1 5.3-3.6 2.6-0.6 5.1-0.8 7.5-1.8 0.9-0.4 3.4-0.9 4.2 0 0.4 0.4 0.4 1 0.5 1.6 0.5 4.4 0.9 9-1 13-1.2 2.7-3.3 4.9-4 7.7-0.6 2.4 0 4.9 0 7.4-0.2 6.4-6.1 7.5-10.6 3.7-1.3-1.1-1.9-2.9-2-4.7z"/><path class="p" d="m308.9 305.4q-0.2 0-0.4 0c-1.8-0.1-4.1 2.1-5.5 3.1q-2.8 2.1-5.6 4.2c-3.8 2.8-7.6 5.7-11.6 8.3-1.8 1.2-3 2.2-5.1 1.7-1.7-0.5-3.7-1.9-5.4-2.6-4.4-1.8-8.7-3.6-13.1-5.3-2.6-1.1-5.3-2.1-8.1-2.5q-0.6 0-1.2 0c-3.2-0.1-6.7 1.2-8.3 4-3.2 5.6 1.4 11.9 6.1 14.9 2 1.3 4.4 2.1 6.7 2.8q4.6 1.4 9.1 2.8c7.4 2.3 15.5 4.5 22.5 1.3 2.2-1 4.2-2.4 6-3.9 4.5-3.6 8.2-7.3 11.9-11.6 2.3-2.7 4.4-5.5 6.4-8.4 0.8-1 2.7-3 2.8-4.3q0-0.1 0-0.3c0-0.4-2.2-1.7-2.6-2-1.3-0.8-2.6-1.4-4-1.9q-0.3-0.2-0.6-0.3z"/><path class="j" d="m283.6 414.8c1-1.4 5.1-2.4 6.9-1.6 2.2 0.9 4.3 4.5 4.9 6.7q0.2 0.7 0.3 1.5c-1.3 6.3-2.9 12.5-3.9 18.8q0 0 0 0c-3.3-0.3-6.8-0.8-9.6-2.8 0-3.9 0.2-7.8 0.5-11.6 0.2-2.4-0.5-9.1 0.9-11z"/><path class="j" d="m192.1 430.6c2.7-1.8 6.8-2.5 9.8-3.3 3.8-0.9 7.9-1.4 11.6-0.3 1.3 0.3 2.5 0.9 3.5 1.8 0.9 0.9 1.6 2.2 1.5 3.5-0.4 5.5-6.9 5.8-10.8 6.4q-5.4 0.8-10.9 1c-2.8 0.1-5.9-0.1-6.9-3.2-0.6-1.9 0.1-4.2 1.7-5.5q0.2-0.2 0.5-0.4z"/><path class="q" d="m260.8 377.6c0-1 0.2-13.4-0.6-13.7-3.3-1.2-7.1-0.9-10.6-0.8-2.6 0.1-9.2-1.3-11.1 0.8-1.2 1.2-1.1 4.7-1.4 6.3q-0.7 3.9-1.4 7.9c-0.6 3.2-1.2 6.5-1.1 9.7 0.2 5.5 2 10.8 2.7 16.2 0.3 3-0.3 6.5-0.4 9.6q-0.1 3.1 0 6.3c0 1.9 0.5 3.1-1.5 2.4-2.7-0.9-4.7-1.3-7.6-0.5-3.2 1-6.2 2.6-9.4 2.8-2.2 0-4.3-0.6-6.5-0.7-2.6-0.1-5.1 0.6-7.6 1.2-1.4 0.4-2.8 0.8-3.5 1.8 1.4 4.5 2.6 9 3.5 13.7q0.6 3.1 1.1 6.1 0.4 0 0.8 0 2.7-0.1 5.3-0.4c7.4-0.8 14.5-2.9 21.9-3.8 6.9-0.8 16.7 0.4 22.1-5 4.2-4.3 3.7-10.9 4.1-16.5q0.8-13 1.1-26.1 0.2-8.6 0.1-17.3z"/><path class="q" d="m306 382.3c-0.5-1-1.3-1.8-2.3-2.2-1.3-0.5-2.7-0.3-3.9 0.3-4.8 2.2-9 7-12.9 10.5q-1.1 1-2.2 2 0 0.8-0.1 1.8c-0.2 1.7-0.4 3.4-1 5-0.7 1.8-2.1 3.4-2.6 5.3-0.6 2.2-0.1 4.6-0.6 6.9-0.3 1-0.7 2-1.1 3.1-1.3 3.9-1.1 8.3-2.1 12.3-0.3 1.1 0.5 2.1 1.6 2.1 3.4-0.2 8.9 0.2 9.7 0.2h7.9c0.7 0 1.3-0.4 1.6-1 3.5-9.4 6.2-19 8.1-28.8 0.7-3.6 1.3-7.2 1.2-10.8 0-1.9-0.2-4.7-1.3-6.7z"/><path class="q" d="m283.4 395.9q1.8-0.2 3.6-0.2c2.7-0.2 5.6-0.3 8.4 0 2.7 0.3 5.8 1.2 8.4-0.3 2.1-1.3 3.1-4 3.5-6.5 0.6-3.3 0.5-7-1.6-9.6-0.6-0.7-1.4-1.3-2.1-1.9-6.9-5.5-15.7-7.1-24.1-9.3-3-0.8-6.2-1.5-8.7-3.3-3-2-3.3-6.3-6.6-7.6-3.7-1.5-8.9 1-12.5 2-5 1.3-6.8 4-7.3 8.9-1 9.9 5.1 17.1 11.9 23.3 7.3 6.5 17.8 5.2 27.1 4.5z"/><path class="p" d="m270.2 360.7c0.1 1.4 0 2.6-0.4 3-1.4 1.3-9.7 0.3-11.6 0.4q-5.6 0.1-11.2 0.3c-2.7 0-5.4 0.3-8.1 0.4-1.8 0.1-1.6-0.1-1.6-1.8q0.1-2.1 0.1-4.2c0-6-0.5-11.9-1.7-17.9-1.3-6.2-2.6-12.6-1.5-18.9 0.3-1.8 0.8-3.5 1.7-5.1 1.1-1.9 3.2-4.3 5.3-5.2 1.8-0.7 4.6-0.7 6.5-0.6 9.1 0.4 19.9 5.6 21.7 15.4 0.7 3.9 0 8-0.4 12.1-0.4 4.4-0.3 8.9 0 13.3 0.1 1.4 1 5.8 1.2 8.8z"/><path class="r" d="m243.1 295.7c-0.2-1.4-0.1-2.8 0.6-4 0.3-0.5 0.8-1 1.3-1.4 1.6-1.5 3.7-2.5 5.9-3 2.1-0.4 4-1.3 6.1-1.9 1.9-0.5 3.5-1.7 5.5-2 0.5-0.1 1-0.1 1.4 0.1 0.6 0.3 0.8 1.1 0.7 1.8 0 0.6-0.4 1.2-0.8 1.8q-1.1 1.4-2.5 2.6c0.5-0.2 1.1-0.4 1.6-0.1 0.4 0.2 0.4 0.8 0.3 1.2-0.2 0.5-0.6 0.8-0.9 1.1-1.3 1.2-3 2.9-4.8 3.3-0.9 0.2-1.5 0.3-1.6 1.5-0.1 0.7 0 1.5-0.5 2-0.6 0.7-1.7 0.7-2.4 1.3-0.5 0.4-0.7 1-0.9 1.6-0.5 1.5-1.2 2.9-2.4 3.8-1.2 1-3.4 1.5-4.9 1.6-0.4 0.1-0.9 0-1.1-0.3-0.1-0.2-0.1-0.5-0.1-0.7q0.3-4.3-0.3-8.5-0.1-0.9-0.2-1.8z"/><path class="r" d="m281 440.3c0.7-3.5 3-3.2 6.1-3.8 2.7-0.4 5.1 1.4 7.4 2.5 3 1.3 6.6 3.1 9.9 3.6 0.6 0 1.2 0.1 1.8 0.4 0.6 0.3 1 0.8 1.1 1.5 0 0.8-0.7 1.5-1.4 2-2.8 1.9-6.5 2-9.7 1.7q-7-0.5-14.1-1.1c-0.3 0-0.7 0-1-0.2-0.6-0.4-0.6-1.3-0.5-2.1 0.1-1.3 0.1-3 0.4-4.5z"/><path class="r" d="m197.3 440.9c0.2 3 0.8 5.9 2.6 8.2 0.2 0.3 0.4 0.6 0.5 1 0.1 0.7-0.7 1.3-1.4 1.5-1.5 0.5-3.2 0.6-4.6-0.1-2.7-1.4-3.5-4.9-4.6-7.8-0.7-2-1.7-4-2.9-5.8-0.8-1.2-1.7-2.4-2-3.8-0.6-3.4 2.9-3.7 5.1-4.5 0.7-0.2 1.3-0.4 1.9-0.5 1.4 0 2.8 0.8 3.6 2 0.9 1.2 1.3 2.6 1.6 4.1q0.2 1.4 0.2 2.8 0 1.4 0 2.9z"/><path class="j" d="m253 296.1c3.1-3.3 7.8 5.2 1.4 5.6-0.6 0-1.3-0.4-1.7-0.9-0.9-1-1.1-2.6-0.4-3.8q0.3-0.5 0.7-0.9z"/><path class="s" d="m260.2 401c0.1-1.3 0.4-2.5 0.5-3.8 0.1-1.1-0.3-2.3 0.1-3.4-3.9-2.1-7.4-5-10.3-8.4-0.3-0.4-1.6-2.6-2-2.6-0.5 0-0.8 1.5-0.9 1.9-0.4 1.2-1.1 2.6-1.3 3.9-0.4 2.2-0.4 4.4-0.1 6.6 0.5 4.3 2.9 7.6 6.2 10.4 0.9 0.8 1.9 1.5 3.1 1.8 1.2 0.3 2.5 0.1 3.4-0.8 0.9-0.9 1.1-2.4 1.2-3.7q0.1-1 0.1-1.9z"/><path class="t" d="m259.1 332.4c1.2 2.6 2.2 5.6 3.1 8.4 0.7 1.8 1.3 3.7 2 5.6 0.4 1.1 0.9 3 2.1 1.6 1.2-1.7 1.5-5 2-7 0.2-1 0.8-2.2 0.8-3.3-3.4-1.6-6.7-3.4-10-5.3z"/><path class="u" d="m265.3 281.9l-6.5 2.5q-0.1-0.4-0.4-0.8c-2.2-2-6.3-3.3-9.1-2.5-3.4 1-6.6 4.8-6.8 8.4 0 0.6-0.1 1 0.1 1.3l-7.2 2.9c-0.4 0.1-0.6 0.7-0.4 1.2 0.2 0.5 0.7 0.8 1.1 0.6l29.9-11.7c0.4-0.2 0.6-0.7 0.4-1.2-0.2-0.6-0.7-0.9-1.1-0.7z"/><path class="v" d="m267.8 356c0-1.7-1.3-3-3-3-1.6 0-3 1.3-3 3l-1.8 17.4c-0.1 0.9 0.6 1.6 1.4 1.6h6.8c0.9 0 1.5-0.7 1.5-1.6z"/><path fill-rule="evenodd" class="w" d="m264.8 380c-2.7 0-5-2.2-5-5 0-2.8 2.3-5 5-5 2.8 0 5 2.2 5 5 0 2.8-2.2 5-5 5z"/><path class="v" d="m279.8 356c0-1.7-1.3-3-3-3-1.6 0-3 1.3-3 3l-1.8 17.4c-0.1 0.9 0.6 1.6 1.4 1.6h6.8c0.9 0 1.5-0.7 1.5-1.6z"/><path fill-rule="evenodd" class="w" d="m276.8 380c-2.7 0-5-2.2-5-5 0-2.8 2.3-5 5-5 2.8 0 5 2.2 5 5 0 2.8-2.2 5-5 5z"/><path fill-rule="evenodd" class="x" d="m241.8 311c-1.6 20 8.8 37 17 43 11 8 15 6 21.9 5"/><path class="r" d="m275.5 357.8q-0.1 0-0.1 0c-0.2-0.3-0.4-0.5-0.8-0.6q-0.8 0-1.6-0.1c-2.3-0.1-4.5 0-6.8 0.2-0.9 0.1-1.1 1.3-0.2 1.6q0.2 0.1 0.4 0.2 0.1 0 0.1 0c-0.1 0.2 0 0.5 0.2 0.8q0.1 0.1 0.2 0.2 0 0.3 0.3 0.4c0 0.5 0.3 1 0.8 1q0.8-0.1 1.6-0.1c1.7 0.3 3.5 0.1 5 0.1 0.5 0 0.8-0.4 0.8-0.8 0.2-0.4 0-1-0.5-1.2q-0.1 0-0.1 0 0.1 0 0.3 0 0.1-0.1 0.2-0.1 0.2-0.1 0.4-0.1c0.9-0.1 0.6-1.4-0.2-1.5z"/><path class="y" d="m102.8 408.5h-6c-1.6 0-3-1.3-3-3 0-1.7 1.4-3 3-3h6c1.7 0 3 1.3 3 3 0 1.7-1.3 3-3 3z"/><path class="y" d="m389.8 411h-18c-1.1 0-2-0.9-2-2 0-1.1 0.9-2 2-2h18c1.1 0 2 0.9 2 2 0 1.1-0.9 2-2 2z"/><path class="z" d="m78.1 358.6c0.7-7.8 1.8-15.2-1.1-23.6-1.7-5-1.9-10.1-3.8-15.1-2.3-6.2-5.7-11.8-7.7-18.1-2.4-7.6-2.7-16-0.8-23.7 1.7-6.2 8.2-8.9 6.7-0.5-1.7 9.4-0.3 19.3 3.9 27.9 4.1 8.6 11.1 16.2 12.6 25.7 1.5 9.3-2.5 18.6-3.1 28-0.6 8.4 1.6 16.6 4.5 24.5 2.1 5.7 7.4 12.4 8.3 18.2 1.2 7.4-5.4 3.8-8.2 1.1-4-3.7-6.4-9.1-8-14.2-2-6.6-3.8-14.9-3.8-21.9 0-2.8 0.2-5.6 0.5-8.3z"/><path class="z" d="m368 385.3c0.9-2.3 2-4.6 2.8-6.9 0.4-1 0.7-2.1 0.6-3.1-0.2-1.5-1.2-2.8-1.8-4.2-2-4.7 1.4-10.2 0.3-15.2-0.3-1.5-1-2.9-1.6-4.4-0.8-2.1-4-10.6-0.5-11.7 0.8-0.3 1.6 0.1 2.3 0.6 3.5 2.5 4.3 7.2 4.3 11.4 0.2 5.8-1.3 11.8-0.1 17.5 0.4 2.1 1.2 4.1 1.5 6.2 0.3 2.3-0.8 3.6-1.6 5.7-1.6 3.9-2.2 8.4-1 12.5 1 3.3 3.1 6.2 5.1 9.1 0.6 0.9 1.2 1.7 1.4 2.8 0.1 1-0.2 2.2-1.1 2.7-1 0.5-2.3 0.1-3.3-0.5-4.2-2.2-5.9-6.5-7.8-10.5-2-4.3-1-8.1 0.5-12z"/><path class="z" d="m395.3 395.1c0.2-2.8-0.6-5.4-0.9-8.3-0.3-2.5-0.2-5.3 0.4-7.7 0.4-1.7 1.4-3.1 1.9-4.8 1.2-4.5 1.6-9.2 1-13.8-0.4-2.5-1-5.1-0.9-7.7 0.1-4.4 2.2-8.6 3.6-12.8 1.4-4.3 1.8-9.4-1-12.9-0.7-0.8-1.7-1.5-2.7-1.1-0.4 0.2-0.7 0.6-1 1.1-0.9 1.8-0.6 3.9-0.7 5.9-0.3 7.3-5.4 13.9-5.1 21.2 0.2 4.2 2.2 8.1 2 12.3-0.2 3.2-1.6 6.3-2.9 9.3-1.3 3-2.4 6.3-1.7 9.5 0.6 2.8 1.3 4.5 0.2 7.2-0.6 1.8-1.6 3.5-2.4 5.3-1.3 2.6-3.1 3.2-5.9 3.4-2.2 0.2-4.7 0.7-5.4 2.8-0.4 1.2 0.1 2.6 1 3.5 0.9 0.9 2.2 1.4 3.5 1.7 4 0.7 8.3-0.7 11.4-3.4 2.5-2.2 4.3-5.3 5.2-8.5q0.3-1.1 0.4-2.2z"/><path class="z" d="m377.5 407.4c-2.3-1.7-3.3-4.7-3.6-7.6-0.3-2.9-0.1-5.9 0.7-8.7 1.5-5.6 5.1-10.6 5.7-16.4 0.4-4.5-1.1-8.9-1.2-13.3-0.1-4 0.8-7.9 0.5-11.9-0.2-3.8-1.6-7.4-2.7-11-2.3-7.9-3.7-16.2-3.9-24.5-0.1-1.6 0.3-3.8 1.9-4 1.6-0.2 2.5 1.8 2.8 3.5 2 9.1 3.6 18.1 6.2 27 1.1 4.1 2.2 8.3 1.4 12.4-0.4 2.1-1.2 4.1-1.4 6.2-0.3 3.1 0.9 6.2 1.5 9.3 0.5 2.4 0.6 4.9 0.3 7.3-0.3 2.7-1.5 5-2.1 7.5-0.9 4.6-2.7 10.4-0.9 14.9 1 2.5 3.9 5.6 2.2 8.3-1.4 2.3-5.5 2.3-7.4 1z"/><path class="z" d="m90.2 380.9c1.5-4.2 4.1-8 4.6-12.4 0.4-3.6-0.8-7.1-0.9-10.8-0.3-6.3 2.5-12.3 4.7-18.3 3.4-9.5 5.4-19.6 5.8-29.6 0.3-6.7 0-13.7 3.3-19.4 0.6-1.1 1.5-2.1 2.7-2.3 1.3-0.1 2.5 1 2.9 2.2 0.4 1.2 0.3 2.6 0.2 3.9q-2 17.6-4 35.2c-0.4 3.6-0.8 7.4-2 10.9-1 2.9-2.5 5.7-3.2 8.8-1.9 8.4 2.7 17.6-0.6 25.6-1.2 2.8-3.2 5.2-4.3 8-1.3 3.5-0.9 7.5 0.3 11.1 1 3.2 3.1 7.4 0.5 10.3-2.9 3.3-5.5 0.2-7.2-2.5-4-6-5.1-13.9-2.8-20.7z"/><path class="z" d="m99.4 390.2c2.9-2 5.9-4.3 7.9-7.2 1.8-2.6 4.3-4.6 5.6-7.5 1.2-2.7 1.7-5.6 1.9-8.6 0.4-6.1-0.5-12.2-0.8-18.4-0.3-6.1 0-12.5 2.7-18 1-2.2 2.5-4.2 4.5-5.6 1.5-1 3.5-1.6 5.1-0.7 2.1 1 2.5 4 1.7 6.1-0.8 2.2-2.5 4-3.7 5.9-2.3 3.7-3 8.5-3.4 12.7q-0.8 8-0.8 16.1c0.1 5.3 0.3 10.8-2.3 15.4-3.3 5.9-10.9 9.3-11.9 16 1.6 2.2 5.1 0.8 7.3-0.7 3.8-2.5 7.6-5.2 9.7-9.1 2.4-4.4 2.3-10 5.2-14.1 0.9-1.2 2.4-2.4 3.8-1.7 1.6 0.7 1.2 3.1 0.7 4.8-1.8 5-3.5 10.1-5.3 15.1-1.3 3.6-3.1 8-7.1 9.2-1.4 0.4-2.9 0.4-4.4 0.7-3 0.8-5.4 2.9-8.1 4.3-3.2 1.7-6.9 2.4-10.4 2-2.3-0.3-4.7-1.1-5.9-3-1.1-1.8-0.9-4.1 0-6 1.6-3.4 4.9-5.6 8-7.7z"/><path class="y" d="m335.7 405.2c-1 0.4-1.9 1.2-1.6 2.2 0.2 0.8 1.1 1.2 1.9 1.4 1 0.2 2 0.4 3 0.1 1.4-0.4 3-2.6 1.6-3.9-1.1-0.9-3.8-0.3-4.9 0.2z"/><path class="y" d="m344.3 403.7c0.4 0.8 1.6 0.8 2.6 0.6 0.4-0.1 0.8-0.2 1.2-0.4 3.5-2.3-5.6-3.8-3.8-0.2z"/><path class="y" d="m342.5 410.9c-0.2 0.5 0 1.1 0.3 1.6 0.4 0.4 0.9 0.6 1.4 0.8 1.4 0.5 3 0.4 4.3-0.2 2.2-1 1.7-3.4-0.5-4-1.4-0.4-4.9 0.3-5.5 1.8z"/><path class="y" d="m74.8 408.9c-0.4 0.4-0.9 0.9-0.9 1.5 0 0.7 0.7 1.3 1.3 1.7 1.7 0.9 3.8 0.9 5.5 0.1 0.7-0.4 1.4-1 1.7-1.8 1.2-3.7-6.1-2.8-7.6-1.5z"/><path class="y" d="m88.2 415.1c0.3-0.7 0-1.7-0.7-2.1q-0.3-0.1-0.5-0.1c-1.2-0.1-5.3 0.3-4.6 2.4 0.2 0.5 0.9 0.8 1.5 1 0.7 0.2 1.6 0.4 2.4 0.2 0.8-0.2 1.5-0.7 1.9-1.4z"/><path class="y" d="m89.1 410.2c0.5 0 1.1-0.2 1.4-0.6 1-1.1-0.9-1.6-1.7-1.6-0.7 0-1.9 0.2-1.9 1.1 0 1 1.4 1.2 2.2 1.1z"/><path class="y" d="m73.4 417.7c0.8-0.1 1.7-0.1 2.5 0.1 0.6 0.2 1.3 0.5 1.3 1.2 0 0.4-0.2 0.7-0.6 0.9-0.4 0.2-0.8 0.3-1.2 0.3-1 0.1-2.9 0-3.7-0.8-1.1-1.3 0.7-1.7 1.7-1.7z"/><path class="y" d="m120.4 403.7c-0.4 0.2-0.7 0.5-0.8 0.9 0 0.4 0.1 0.7 0.4 1 0.5 0.6 1.2 0.9 2 1.1 0.7 0.1 1.5 0.1 2.3 0.1 0.7-0.1 1.3-0.2 2-0.4 0.6-0.3 1.2-0.7 1.5-1.3 0.1-0.4 0.2-0.9 0-1.2-0.2-0.3-0.5-0.4-0.8-0.5-2.2-0.9-4.5-1-6.6 0.3z"/><path class="y" d="m107.3 409.6c1.8 0 3.7 0.3 5.1 1.4 0.1 0.1 0.3 0.2 0.3 0.4 0.1 0.3-0.1 0.5-0.4 0.7-0.8 0.7-1.9 1.1-3 1.4-1.5 0.4-3.1 0.6-4.7 0.5-1.4 0-3.4 0-4.7-0.5-0.8-0.3-1.6-1.3-1.5-2.1 0.2-1.3 2.2-1.3 3.2-1.4q2.8-0.5 5.7-0.4z"/><path class="j" d="m130.6 208.3l15-1.4c-0.2 2.7-0.2 10.9-2.3 18.5 0 0.1-1.4 3.8-5 3.3-1.4-0.2-3.5-3-4.4-3.3 0.1-3.2-2.7-15-3.3-17.1z"/><path class="p" d="m128.8 190.6c0.2 4.1 0.7 8.3 0.8 12.5 0 0.9 0.5 8.4 0.8 9.8 5.6-1.1 11.1-2.2 16.6-3.6 0.8-6.4 1.5-12.9 2.1-19.4 0.2-1.6 0.3-3.2 0.3-4.8 0.1-1.1-0.2-2.2-0.1-3.4 0.3-2.6 1.6-5.1 1.3-7.8-0.2-2.3-1.5-4.2-2.4-6.2-1.9-4.2-1.7-8.7-2.7-13.1-0.6-2.8-2.2-6.8-5.5-4-10.4 8.9-12.1 13.2-11.8 17.5 0.6 7.4 0.4 15 0.6 22.5z"/><path class="r" d="m190.1 70.8c0.7 0.9 1.4 1.7 2.3 2.5 3.1 2.5 7.2 3.2 11.2 3.7-2.8 6.4-8.7 11.3-15.5 13-2.8 0.7-5.9 0.8-8.6-0.3-3.3-1.3-5.8-3.9-7.4-7-1.1-2.2-1.6-4.4-2.4-6.7-0.7-2-1.9-4-2.2-6.2-1.6-11 14.7-7.9 19.4-3 1.1 1.2 2.1 2.7 3.2 4z"/><path class="q" d="m124.7 243.4c0.5-1.1 1.3-2.2 1.9-3 1.9-2.5 3.8-5.1 5.1-8.1 1-2.4 1.2-5.1 2.2-7.5 0 0 6.1 2.9 9.8-4.1 1.2-2.3 2.1 1.7 2.4 2.2q1.2 3.4 2.9 6.6c0.5 1-6.9 6.2-7.7 6.9-2.9 2.3-5.1 5.1-7.8 7.6-0.4 0.6-1.2 1-1.7 1.4-1.6 1.1-5.2 2.6-6.8 0.6-0.7-0.8-0.6-1.7-0.3-2.6z"/><path class="j" d="m112.4 205.4q0.3-0.4 0.6-0.8c0.1-0.2 0.3-0.5 0.6-0.5 0.3-0.1 0.6 0.1 0.9 0.3 1.4 1 2.9 1.8 4.4 2.5 1 0.5 2.4 1.8 3.4 2 0.6 0.1 1.2 0.2 1.6 0.6q-1.3 2.5-2.6 5-1.7 3.5-3.5 6.9c-1.3 2.4-2.9 5.3-5.9 4.4-2-0.6-5.8-2.9-5.8-5.3 0-1.1 0.4-2.2 0.8-3.2 1.6-4.1 3.2-8.2 5.5-11.9z"/><path class="j" d="m181.6 80.6c0 0.7-1.7 2.2-2.3 2.6-1.3 1.2-3.2 2.1-5 1.8-2.1-0.3-3.9-1.6-5.1-3.3-1.3-1.6-2-3.6-2.6-5.6-0.5-1.9-1.3-4.6-1-6.6 0.3-1.6 2.5-2.1 3.8-2.4 2.4-0.6 4.9-0.6 7.2 0 0.8 0.2 1.5 0.5 2.1 1 0.4 0.4 0.8 1 1.1 1.5 1 1.9 1.5 4.2 1.8 6.4 0.2 1 0.1 2 0.1 3q0 0.8-0.1 1.6z"/><path class="j" d="m189.4 93c-0.4-0.1-0.9-0.1-1.4-0.2-2.5-0.2-4.2-2.3-5.1-4.5-1-2.4-1.2-4.7-1.2-7.3q0-1.7 0-3.4c-0.2 0.8-0.8 1.5-1.5 2-1.4 0.8-3.3 1.2-4.8 1.5q-2.5 0.6-4.9 0.8c1.2 2.6 1.7 6.4 1.6 9-0.2 3-2.3 3.4-4.5 4.2q-0.7 0.4-1.1 0.9c-0.5 0.8-0.7 1.7-0.6 2.7 0 0.7 0.5 1.3 1 1.9 1 1.1 2.2 2 3.4 2.8 0.9 0.6 1.9 1.1 2.9 1.6 2.3 1.2 4.8 2.1 7.4 1.8 2.8-0.4 5.5-2.3 7.2-4.4 1-1.4 2-2.9 2.4-4.7 0.3-1.2 0.7-4.1-0.8-4.7z"/><path class="j" d="m155.2 104.6c0.6-0.6 1.3-1.2 2-1.7 1.9-1.5 4-2.8 6.4-3 2.8-0.2 6.1 1.7 6 4.8 0 1.8-0.5 3.5-1.1 5.2-1.4 3.5-5.1 5.7-8.2 7.6-3.5 2.1-7.3 3.6-11.3 4.5-0.4 0.1-0.8 0.2-1.1 0-0.4-0.1-0.7-0.3-0.9-0.6-7.6-7.5-9.9-19.2-11.4-29.3-0.1-0.4-0.2-0.7-0.3-1.1-0.3-0.3-0.6-0.6-1-0.8-1.8-1.3-3.6-2.7-4.4-4.7-0.8-2-0.2-4.7 1.8-5.6 2-0.8 4.1 0.5 5.7 1.8 3.3 2.8 5.5 7 7.6 10.8 2.8 5.1 5 10.6 7.1 16 0 0.1 1.9-2.4 1.9-2.6q0.6-0.6 1.2-1.3z"/><path class="q" d="m158.8 99.1c2.8-1.6 5.6-3.3 8.7-4.2 0.2-0.1 0.4-0.1 0.6-0.1q0.2 0.1 0.3 0.2c2.6 2.2 5.1 3.1 8.5 3.1 4.1 0 8.2-2 10.7-5.3q0.1-0.1 0.3-0.3c0.1 0 0.3 0 0.4 0 2.8-0.1 5.6 0.1 8.2 1 2.6 0.9 3.9 2.7 4.9 5.2 1.5 3.7 1.6 8.3-1.1 11.3-0.9 1-2.2 1.9-2.7 3.2-0.3 0.7-0.3 1.6-0.4 2.4 0 5-0.3 9.9-0.5 14.9-0.1 4.1 0.6 8.3 0.1 12.4-0.8 5.8-16.6 4.6-19.1 4.4-1.3-0.1-9.3 1.9-9.7 0.5-0.9-2.7-2.8-4.9-2.4-7.7 0.4-2.9-0.2-3.7-0.1-8.8 0-3.2-0.4-6.1-1.1-10.7 0 0-0.5-4.1-0.8-6-0.4-3.8-1.4-14.8-4.8-15.5z"/><path class="p" d="m165.5 136.8l31.3 1.1c1 5.1 2.9 10.9 5.3 18.1 0 0-2 2-2.2 2.3-0.3 0.3-1.5-1.9-1.9-1.8-1.9 0.4-3.9 0.3-5.9 0.3-10-0.3-24.3 2-29.7-1 1.2-8.4 2.7-16.8 3.1-19z"/><path class="q" d="m168.1 110.5c1.4-2.6 2.9-5.8 3-6.1 0.5-1.8 0.8-3.7 0.3-5.5-0.5-1.8-1.8-3.4-3.6-3.9-2.3-0.6-4.6 0.8-6.5 2.3q-4.3 3.3-8 7.3 6.1 4.7 12.2 9.4c0.4 0.3 1.5-1.4 2.6-3.5z"/><path class="p" d="m196.1 160.5c-1.2-3.8-1.8-7.6-4.5-10.6-3.4-4-9.6-6.2-14.3-8.1-1.4-0.6-2.7-1.1-4-1.7-1.1-0.6-2-1.4-3.1-2.1-1.4-0.8-3-1.3-4.6-1.3-0.6 2.7-1.6 5.4-2.9 8-0.8 1.6-1.9 3.1-3.4 4.1-1.6 1.1-3.6 1.6-5.4 2.4-2.3 1.2-3.8 3.1-6.2 4-3.5 1.5-7.1 0.6-10.8 1.1-4.2 0.6-6.9 1.5-9 5.1 3.4-0.7 5.1 1.2 7.7 2.8 2.7 1.6 5.9 2.8 8.7 4.4 5.6 3.1 11 6.6 17.2 8.3 4.4 1.2 9 1 13.4 1.4 5.2 0.5 10.6 0.1 15.8 0.1 2.3-1.3 4.4-3.1 5.6-5.4 1.9-4 1.2-8.5-0.2-12.5z"/><path class="A" d="m145.4 178.3c5.1 0.5 10.6 0.1 15.7 0.1 2.2 0 4.9-3.9 5.3-5.6 1-3.2 1.2-7.6 0.8-11-0.4-3.7-2.2-7.4-5.5-9.2-1.6-0.9-3.6-1.3-5.5-1.6q-4.4-0.7-8.9-0.9c-3.2-0.2-6.4-0.1-9.4 0.9-2.2 0.6-6.3 2-7.7 3.8-2.9 3.9-4.3 8.9-3.4 13.6 0.7 3.6 3.2 7.6 6.7 9.1 3.2 1.5 8.3 0.5 11.9 0.8z"/><path class="p" d="m122.8 167.8c-1.4 3.9-2.4 8.1-3.3 11.1q-3.8 12.5-8.6 24.7-1.4 3.6-2.8 7.1c-0.5 1.1 13.5 4 14.6 4.1 3.2 0.4 5.4-8.9 6.8-11.1 3.3-4.9 6.8-9.3 9.2-14.8 1.2-2.6 2.2-5.3 2.7-8.1 0.4-2.2 0.5-4.6 0.6-6.9q0.1-4.4 0.3-8.9c0-1.6 0.1-3.4-0.6-4.9-1.8-4.6-9.1-4.6-12.6-2.2-2.9 2-4.9 5.8-6.3 9.9z"/><path class="j" d="m169.4 120.5q-0.9 0-1.8-0.2c-1-0.1-2.1-0.3-3.1-0.8-2.5-1.4-1.5-4.6-0.5-6.8 0.6-1.1 1.3-2.2 2.3-3 1.5-1 3.4-1.1 5.2-1.1 4.5-0.1 9.7 0.3 14-1.5 2.5-1.1 4.5-3 6.7-4.7 1.8-1.3 3.9-2.4 6.1-2.6 3.8-0.2 4.3 5.7 3.7 8.3-0.6 3-2.5 5.5-4.9 7.2-2.5 1.7-5.3 2.8-8.2 3.5-6.3 1.7-12.9 2.3-19.5 1.7z"/><path class="q" d="m188.8 108.1c0.7 0.7 9.2 9.1 9.3 8.9 2-2.9 4-5.8 5.1-9.2 1.9-5.7 0.4-12.4-5.9-14.3-0.9-0.3-1.9-0.4-2.8-0.2-2.1 0.6-2.5 3-3.4 4.7-1.4 2.6-2.8 5.3-4.2 7.9q0.9 1.1 1.9 2.2z"/><path class="B" d="m178 155.6c3-0.9 4.7-3.8 6.6-6.1 0.4-0.6 0.9-1.2 1.3-1.8 0.6-1.2 0.8-2.6 0.1-3.7-0.9-1.4-2.8-1.7-4.5-1.6-7.1 0-14.3 1.8-20.1 5.8-3.6 2.5-0.9 5 2.2 5.7q2.8 0.6 5.6 1.3c2.2 0.5 4.5 1 6.8 0.8q1-0.1 2-0.4z"/><path class="A" d="m150.6 177q1.5 0.7 3 1.2 1.7 0.5 3.4 0.5h34.9c4.5 0 8.7-2.7 10.2-6.9q0.1-0.4 0.2-0.8c1.7-5.9 1.2-12.4-1.3-18.1-0.8-1.7-1.6-4.6-2.7-6-0.9-1.2-2.7-1.1-4.4-0.9-1.4 0.2-1.4 0.6-2.6 1.1-1.4 0.7-2.9 1.1-4.3 1.7-3.6 1.5-7.2 3.4-11.2 3.2-4.6-0.3-9.3-1.2-13.9-1.8-5.9-0.8-12-1.5-17.9-1.2-4.4 0.3-9 1.1-12.5 3.8-3.5 2.7-5.4 6.8-7 10.9q-1.7 4.4-3 8.9c-0.5 1.7 0.1 3.6 1.6 4.6 3.8 2.4 8.2-4 12.2-4.2 5.3-0.3 10.6 2 15.3 4z"/><path class="g" d="m171.1 80.1q0 0.1 0 0.1c1.7 1.8 3.7 0.8 3.7-1q0 0 0 0c-1.2 0.5-2.5 0.7-3.7 0.9z"/><path class="q" d="m93.2 219.3c-1.3-0.2-2.7-0.4-4-0.1-1.4 0.4-2.6 1.4-2.7 2.8-0.1 0.9 0.3 1.4 1 2.1 0.6 0.5 1.3 0.9 2 1.2 1.1 0.5 16.5 6.2 23.3 7.4 1.3 0.2 1.9-0.5 2.2-1.2 0.9-2.3 1.7-4.9 2.4-7.3 0.2-0.8-0.5-1.6-1.3-1.4-7.7 1.9-9.9-4.1-9.9-4.1-6 1.3-13 0.6-13 0.6z"/><path class="r" d="m170.9 62.6c-2.5-0.2-6.5-0.4-8.1 2-0.9 1.3-1 3-0.6 4.4 0.3 1.2 1 2.3 2 2.8 1 0.5 2.2 0.4 3.4 0.2q2.9-0.5 5.6-1.5c2.5-0.8 5.2-1 6 2.2 0.2 0.6 0.2 1.4 0.7 1.8q0.2 0.1 0.5 0.1 0.1-0.1 0.2-0.1c1.5-0.9 4.7-2.6 3.9-4.8-0.4-1-1.4-1.8-2.1-2.6-1-1-1.7-2.2-2.9-2.9-0.9-0.5-1.9-0.7-2.9-0.9q-2.8-0.5-5.7-0.7z"/><path class="p" d="m150.6 177q1.5 0.7 3 1.2 1.7 0.5 3.4 0.5h34.9c4.5 0 8.7-2.7 10.2-6.9q0.1-0.4 0.2-0.8c1.7-5.9 1.2-12.4-1.3-18.1-0.8-1.7-1.6-4.6-2.7-6-0.9-1.2-2.7-1.1-4.4-0.9-1.4 0.2-1.4 0.6-2.6 1.1-1.4 0.7-2.9 1.1-4.3 1.7-3.6 1.5-7.2 3.4-11.2 3.2-4.6-0.3-9.3-1.2-13.9-1.8-5.9-0.8-12-1.5-17.9-1.2-4.4 0.3-9 1.1-12.5 3.8-3.5 2.7-5.4 6.8-7 10.9q-1.7 4.4-3 8.9c-0.5 1.7 0.1 3.6 1.6 4.6 3.8 2.4 8.2-4 12.2-4.2 5.3-0.3 10.6 2 15.3 4z"/><path class="C" d="m122.8 214.4c0.4 0.1 0.8 0.1 1.2 0 0.4-0.2 0.7-0.7 1-1.1 2.5-4.5 4.7-9.2 6.7-13.9 1.9-4.8 3.8-9.6 5.5-14.4 2.4-6.8 4.6-13.5 6.7-20.5 0.5-1.5 0.9-3.4-0.1-4.6-0.4-0.6-1-0.9-1.7-1.2-4.1-1.6-9 0.6-11.7 4.1-3.2 4-4.3 9.7-5.5 14.6-1.4 5.7-2.5 11.5-3.6 17.3-0.6 3.4-1.1 6.9-2.1 10.2-0.8 2.3-1.5 5.2-3.1 7.1-0.1 0.1-0.3 0.3-0.2 0.5 0 0.1 0.2 0.2 0.4 0.3 2.1 0.7 4.3 1.3 6.5 1.6z"/><path class="p" d="m152.4 169.9q0.1-2.2-0.3-4.4c-0.5-2.6-1.5-5.3-4.2-6.2-2.2-0.8-4.5-1.3-6.8-1.3-4.9 0.1-8.9 2.7-10.7 7.2-2.4 6-2.5 12.6-2.1 19 0.5 6.4 1.4 12.8 1.2 19.2l-0.1 1.3c1.2-1.3 3-1.6 4.7-2.2 3.3-1.4 5.7-4.3 7.9-7.3 2.6-3.5 3-8.1 5-12 1.5-2.8 3.6-5.1 4.6-8.3q0.7-2.4 0.8-5z"/><path class="D" d="m188.7 178.7c-11.5-4.4-23.7-9-34-15.7-3.5-2.2-6.5-4.6-10.9-4.7 5 5.2 7.1 12.1 6.3 19.1 0.6 1.8 1.9 1.5 5.3 1.3 2.2-0.1 4.4 0 6.7 0q-0.4 0-0.7 0c-0.2 0 17.1 0 27.3 0z"/><path class="j" d="m178.9 74.5c0.1-0.4 0.3-0.8 0.5-1 0.4-0.4 1-0.6 1.6-0.5 0.7 0.2 1.3 0.8 1.4 1.6 0.4 1.7-1.5 2.9-2.8 1.9-0.6-0.4-0.9-1.3-0.7-2z"/><path class="E" d="m188.3 104.5c1-1.7 1.9-3.5 2.8-5.2-0.3 0.1-0.6 0-0.8 0-0.5 0-0.9 0.2-1.3 0.4-1.7 0.9-3.7 1.8-4.8 3.3-0.6 0.7-1.7 3.7-0.4 4.2 0.9 0.4 2.9-0.8 3.5-1.3 0.4-0.4 0.6-0.8 0.9-1.3q0 0 0.1-0.1z"/><path class="F" d="m178.9 81.2c-1 0.8-1.8 1.6-3.1 2.1q0 0 0 0.1c-1.2 0.4-2.5 0.6-3.8 0.5 2.3 1.5 4.5 3.3 6.6 5.1q0.1 0 0.2 0c-0.1-2.6-0.2-5.2 0.1-7.8z"/><path fill-rule="evenodd" class="r" d="m172.1 76l-9.1 2.9-0.7-4.2 9.6-0.1z"/><path class="d" d="m63.3 77q0.1-0.1 0.2-0.1z"/><path class="d" d="m71.9 106.2l-3.6 1.1q1.9-0.4 3.6-1.1z"/><path class="d" d="m71.9 106.2l92.1-26.1c1.6-0.5 2.6-2.1 2.3-3.7-0.3-1.6-1.7-2.8-3.3-2.7l-97.7 3.1c8.4-0.4 13 6.4 14.3 14.1 1.1 7.1-1.3 12.8-7.7 15.3z"/><path fill-rule="evenodd" class="G" d="m79.6 92.6c-0.3 7.8-6.8 14-14.6 13.8-7.9-0.3-14-6.8-13.8-14.6 0.2-7.9 6.7-14 14.6-13.8 7.8 0.2 14 6.7 13.8 14.6z"/><path fill-rule="evenodd" class="H" d="m79.6 92.6c-0.3 7.8-6.8 14-14.6 13.8-7.9-0.3-14-6.8-13.8-14.6 0.2-7.9 6.7-14 14.6-13.8 7.8 0.2 14 6.7 13.8 14.6z"/><path fill-rule="evenodd" class="o" d="m57.4 88.3c-0.7 2.5-0.5 5.2 0.6 7.5 1.1 2.3 3.2 4.1 5.5 5"/><g clip-path="url(#cp1)"><path class="r" d="m88.9 103.2l-0.1-0.9c7.5-1.2 12.6-8.3 11.4-15.8-1.2-7.5-8.3-12.6-15.8-11.4l-0.1-0.8c7.9-1.3 15.5 4.1 16.7 12.1 1.3 8-4.1 15.5-12.1 16.8z"/><path class="r" d="m110.2 97.1l-0.2-0.8c6.1-1 10.3-6.8 9.3-12.9-1-6-6.7-10.2-12.8-9.2l-0.2-0.9c6.6-1 12.8 3.5 13.8 10 1.1 6.6-3.4 12.8-9.9 13.8z"/><path class="r" d="m148.4 85.7l-0.1-0.8c3.3-0.6 5.5-3.7 5-7-0.6-3.2-3.7-5.5-6.9-4.9l-0.2-0.9c3.8-0.6 7.3 2 7.9 5.7 0.6 3.8-1.9 7.3-5.7 7.9z"/><path class="r" d="m130.6 91.2l-0.2-0.8c4.7-0.8 7.9-5.2 7.2-9.9-0.8-4.7-5.2-7.9-9.9-7.1l-0.1-0.9c5.1-0.8 10 2.7 10.8 7.9 0.8 5.1-2.7 10-7.8 10.8z"/></g><path class="j" d="m171.7 107.4c1.2 3.3 2.7 7.7 1 10.1-0.7 0.9-1.6 1.5-2.7 1.9-1.2 0.5-2.7 0.7-4 0.3-4.8-1.4-4.6-7.6-5.4-11.6-1.1-5.5-1.5-11.1-1.9-16.7-0.1-1.5-0.2-3 0.2-4.5 0.5-1.3 2.2-3.7 3.8-2.9 1.1 0.6 1.4 2.9 1.8 3.9q1.3 2.8 2.4 5.6c1.5 3.9 2.8 7.9 4.1 11.8 0.2 0.6 0.5 1.3 0.7 2.1z"/><path class="j" d="m157.7 72.7c2.3 1.6 3.2 2 4.7 4.6 1 1.7-0.8 2.2-1.5 1.2-1.4-2.1-2.2-2.8-4.3-4.3-1-0.6 0.1-2.1 1.1-1.5z"/><path class="j" d="m156.4 74.4c2.6 1.8 2.5 2.3 4.6 4.6 0.8 0.9-0.6 2.1-1.4 1.2-2.1-2.2-1.9-2.6-4.3-4.3-1-0.7 0.1-2.2 1.1-1.5z"/><path class="j" d="m154.4 76.7c0.4-0.6 0.8-0.4 1.3-0.1 0.6 0.5 0.2 0.3 0.8 0.8q1.5 1.4 2.8 3.1c0.7 1-0.7 2.2-1.4 1.2q-1.1-1.4-2.4-2.7c-0.4-0.4-0.7-0.8-1-1.1-0.5-0.5-0.4-0.8-0.1-1.2z"/><path class="j" d="m154.5 78.9c1.6 1.3 2 1.8 3.3 3.5 0.7 0.9-0.7 2.1-1.5 1.1-1.2-1.5-1.4-1.9-3-3.1-0.9-0.7 0.2-2.2 1.2-1.5z"/><path class="j" d="m156.2 81.6c-0.3 0.3-0.6 0.7-0.7 1.1-0.2 1.2 1 3.5 1.4 4.6 0.6 1.4 1.5 2.9 3 3.3 1.3 0.3 2.7-0.4 3.4-1.5 1-1.5 0.8-3.6 0.8-5.3 0-1.4-0.4-5.7-2-6.6-1.1-0.7-3.4 2.4-4.1 3-0.5 0.5-1.3 0.9-1.8 1.4z"/></svg>