<?xml version="1.0" encoding="utf-8"?>
<svg xmlns="http://www.w3.org/2000/svg" version="1.1" width="200px" height="200px" xmlns:bx="https://boxy-svg.com">
  <defs>
    <bx:export>
      <bx:file format="svg" path="logo.svg" normalization="{&quot;removeAnimations&quot;:true,&quot;convertTextsToPaths&quot;:true,&quot;splitCompoundPaths&quot;:true,&quot;embedExternalFonts&quot;:true,&quot;removeBoxySVGMetadata&quot;:true,&quot;removeForeignMetadata&quot;:true,&quot;resetTransformOrigins&quot;:true}"/>
    </bx:export>
  </defs>
  <svg xmlns="http://www.w3.org/2000/svg" version="1.1" width="2933.3333" height="2933.3333" transform="matrix(0.08997794985771179, 0, 0, 0.08997794985771179, -31.96783447265625, -25.2333984375)" id="object-0">
    <svg xmlns="http://www.w3.org/2000/svg" viewBox="0 0 2933.3333 2933.3333">
      <path fill="#d9473a" fill-rule="nonzero" d="m 19151.8,11252.6 c -1593.7,-72.3 -3158.7,-386.2 -4495.8,-946.2 852.8,-356.8 1750.2,-607.1 2664.8,-741.9 -289.4,-75.6 -396.2,-470.4 -263,-738 133.4,-267.8 423.7,-420.3 710.2,-506 286.6,-85.8 547.8,-179.6 861,-248.7 -292.8,13.1 -562.4,24.9 -843.3,51.1 -280.6,26.2 -570.6,32.9 -837,-59.7 -266.2,-92.6 -506.8,-302.1 -567.3,-577.5 -60.7,-275.3 118.3,-494.7 358.6,-693.7 -1141.7,659.5 -2512.1,900.4 -3792.4,606.9 -160.4,-427.7 -171.8,-980 150.4,-1477.1 -693.2,-0.1 -588.3,-969.1 -231.2,-1437.3 -198.5,-12.1 -383.3,94.9 -547.6,207.1 -164.2,112.3 -330.3,237.2 -526.7,269.2 -196.3,32 -431.6,-69 -470.1,-264.2 C 10523.8,5396.7 9895.36,6288.2 9497.77,7272.8 8765.7,5192.5 7970.1,4166.5 7739.75,3907.1 c -64.27,-72.2 -178.48,-67.2 -236.07,10.4 l -106.16,142.6 c -51.11,68.8 -35.21,165.9 34.79,215.5 251.24,177.5 888.29,927.6 1865.45,3564.3 84.52,234.9 171.06,483.7 259.51,747 1707.73,5086.7 2505.33,7164.4 2517.73,7196.5 0.2,0.3 0.2,0.4 0.2,0.4 0,0 -1011.2,-1889 -2863.98,-7185.1 -82.61,-236.4 -163.1,-459.7 -241.16,-670.4 -1107.71,-564.3 -2372.27,-818.7 -3612.02,-723 112.73,164 20.47,402.9 -139.67,521 -160.14,118 -365.56,149.5 -560.7,188.4 -195.03,38.9 -400.77,96.3 -530.79,246.9 584.45,71.8 1350.68,674.1 866.23,1169.9 580.64,117.1 967.83,511.2 1161.59,925 -684.99,1120.7 -1815.29,1932.3 -3084.94,2287.6 310.2,-32.5 592.3,-7.1 746.81,228.7 154.52,235.8 136.28,554.2 16.34,809.3 -119.95,255.2 -327.39,458 -542.35,640.4 -214.97,182.4 -411.91,367 -625.92,567.2 268.31,-175.7 517.96,-296.8 779.59,-441.8 261.63,-144.9 573.52,-246 858.17,-154.3 284.75,91.9 492.29,444.1 344.14,703.9 735.68,-559.7 1541.99,-1026.5 2393.27,-1387.2 -534.18,1347.8 -1403.81,2686.4 -2465.92,3876.7 233.63,-109.5 419.33,-300.8 645.65,-424.6 226.2,-123.8 537.78,-163.3 720.51,18.8 130.87,130.5 154.2,331.7 159.29,516.6 13.26,490.1 -50.58,982.1 -188.56,1452.5 138.82,-370.5 285.7,-753.2 566.42,-1032 280.62,-278.7 735.58,-423.7 1081.2,-231.2 282,157.2 416.58,484.3 515.84,791.5 114.85,-1578.7 620.83,-3049.8 1455.88,-4227.7 732.88,1488.7 838.38,3267.1 778.08,4773.5 265.5,-593.6 1063.5,-817.9 1668.9,-580.2 605.2,237.7 1014.9,829 1199.8,1452.5 -152.2,-731.6 -132,-1539 270,-2168.9 402,-630 1264.1,-997.9 1935.2,-669.4 -1113.7,-1313.2 -1802.3,-2928.4 -1840.7,-4437.5 1392.8,240.6 2762.4,899.7 3944.4,1897.9 -150.3,-285.7 -290.2,-610.7 -205.5,-922 103.9,-381.8 525.6,-605.9 921.2,-611.7 395.5,-5.9 771.8,156.7 1133.9,316.3 -432.9,-230.1 -829.4,-528.4 -1170.6,-880.5 -128.6,-132.7 -256.4,-290.1 -258.2,-474.9 -2.3,-257.9 243.6,-453.2 490.4,-528.4 246.7,-75.3 513.2,-74.4 754.8,-165" transform="translate(0 2933.3333) scale(0.13333333 -0.13333333)"/>
    </svg>
  </svg>
</svg>